SplineFontDB: 3.0
FontName: SansGuiltLB
FullName: Sans Guilt LB
FamilyName: Sans Guilt LB
Weight: Medium
Copyright: Created by RCA Workshop "Read The Fucking Manual", with FontForge 2.0 (http://fontforge.sf.net) and Fonzie

StartChar: .notdef
Encoding: 65536 -1 0
Width: 500
Flags: MW
HStem: 0 50<100 400 100 450> 483 50<100 400 100 100>
VStem: 50 50<50 50 50 483> 400 50<50 483 483 483>
LayerCount: 2
Fore
SplineSet
50 0 m 1
 50 533 l 1
 450 533 l 1
 450 0 l 1
 50 0 l 1
100 50 m 1
 400 50 l 1
 400 483 l 1
 100 483 l 1
 100 50 l 1
EndSplineSet
EndChar

StartChar: uni0041
Encoding: 65 65 1
Width: 737
Flags: HW
LayerCount: 2
Fore
SplineSet
338.001 701 m 0
 323.001 703 315.001 684 330.001 681 c 0
 340.001 679 342.001 661 336.001 626 c 0
 331.001 599 332.001 579 338.001 566 c 0
 346.001 547 345.001 535 335.001 535 c 0
 323.001 535 313.001 526 315.001 518 c 0
 316.001 515 317.001 510 318.001 507 c 0
 322.001 493 335.001 496 350.001 516 c 0
 353.001 519 354.001 519 357.001 519 c 0
 364.001 517 379.001 510 387.001 504 c 0
 412.001 486 436.001 491 449.001 515 c 0
 454.001 525 454.001 566 448.001 588 c 0
 445.001 599 442.001 610 442.001 612 c 0
 440.001 624 432.001 642 425.001 653 c 0
 421.001 660 414.001 672 410.001 680 c 0
 396.001 707 379.001 718 362.001 709 c 0
 345.001 700 346.001 700 338.001 701 c 0
260.001 530 m 1
 259.001 514 259.001 514 255.001 510 c 0
 251.001 506 250.001 499 253.001 490 c 0
 256.001 477 278.001 477 278.001 489 c 0
 278.001 490 275.001 493 271.001 496 c 0
 260.001 503 258.001 509 265.001 516 c 0
 267.001 518 270.001 522 270.001 524 c 0
 271.001 526 274.001 532 278.001 536 c 0
 292.001 554 286.001 580 272.001 566 c 0
 263.001 556 260.001 549 260.001 530 c 1
212.001 420 m 0
 203.001 389 203.001 391 212.001 380 c 0
 221.001 368 223.001 362 220.001 358 c 0
 215.001 350 206.001 354 205.001 364 c 0
 203.001 380 194.001 366 185.001 335 c 0
 185.001 332 182.001 327 179.001 324 c 0
 170.001 313 169.001 310 176.001 304 c 1
 180.001 299 180.001 299 175.001 294 c 0
 168.001 288 166.001 285 166.001 279 c 0
 166.001 272 164.001 270 157.001 265 c 0
 145.001 257 139.001 239 141.001 224 c 0
 142.001 217 141.001 214 134.001 207 c 0
 130.001 204 128.001 200 126.001 195 c 0
 125.001 190 121.001 182 118.001 177 c 0
 114.001 167 113.001 166 115.001 162 c 0
 118.001 156 118.001 145 114.001 135 c 0
 110.001 123 110.001 119 115.001 114 c 0
 120.001 110 120.001 109 123.001 117 c 0
 124.001 119 126.001 122 127.001 122 c 0
 130.001 122 130.001 120 126.001 116 c 0
 124.001 114 122.001 110 120.001 108 c 1
 116.001 99 113.001 99 107.001 105 c 0
 102.001 111 95.001 111 93.001 105 c 0
 90.001 99 90.001 87 92.001 85 c 1
 93.001 82 93.001 82 85.001 81 c 0
 81.001 80 78.001 73 78.001 64 c 0
 78.001 60 77.001 58 73.001 53 c 0
 67.001 47 58.001 27 58.001 21 c 0
 58.001 19 56.001 14 54.001 10 c 0
 45.001 -6 64.001 -10 106.001 0 c 0
 111.001 1 113.001 6 109.001 9 c 0
 102.001 14 102.001 20 109.001 20 c 0
 113.001 20 118.001 22 129.001 30 c 0
 132.001 32 133.001 32 138.001 31 c 1
 150.001 26 159.001 39 151.001 50 c 0
 147.001 56 147.001 65 151.001 77 c 0
 153.001 82 153.001 84 152.001 89 c 0
 150.001 95 150.001 97 154.001 104 c 0
 157.001 110 158.001 112 157.001 120 c 0
 156.001 136 173.001 140 176.001 125 c 0
 178.001 119 180.001 115 181.001 115 c 0
 186.001 115 192.001 127 192.001 137 c 0
 192.001 139 194.001 143 197.001 147 c 0
 200.001 151 201.001 155 203.001 165 c 0
 204.001 172 206.001 181 208.001 185 c 0
 213.001 194 212.001 196 206.001 200 c 0
 201.001 203 201.001 203 200.001 219 c 0
 199.001 239 209.001 247 221.001 235 c 0
 230.001 225 234.001 225 241.001 233 c 0
 245.001 237 246.001 246 242.001 253 c 0
 236.001 264 256.001 275 263.001 264 c 0
 266.001 260 266.001 260 262.001 253 c 0
 251.001 235 269.001 219 285.001 232 c 0
 289.001 235 289.001 236 288.001 243 c 0
 287.001 251 290.001 256 297.001 254 c 0
 318.001 250 323.001 248 319.001 244 c 0
 318.001 243 316.001 242 312.001 243 c 0
 302.001 244 296.001 237 302.001 232 c 0
 306.001 228 337.001 230 347.001 234 c 1
 356.001 239 360.001 239 367.001 236 c 0
 380.001 230 390.001 228 397.001 229 c 0
 401.001 229 412.001 230 421.001 231 c 0
 430.001 231 437.001 232 438.001 233 c 0
 439.001 233 444.001 233 449.001 232 c 0
 461.001 230 470.001 232 480.001 237 c 0
 488.001 241 491.001 241 497.001 236 c 0
 500.001 234 503.001 232 507.001 232 c 0
 513.001 232 516.001 228 519.001 214 c 0
 523.001 200 526.001 193 530.001 189 c 0
 536.001 181 545.001 161 545.001 155 c 0
 545.001 151 547.001 147 551.001 140 c 0
 554.001 135 556.001 130 556.001 129 c 0
 556.001 128 560.001 121 564.001 112 c 0
 584.001 72 585.001 70 588.001 80 c 0
 588.001 82 589.001 85 590.001 86 c 0
 591.001 87 591.001 88 589.001 90 c 0
 588.001 91 588.001 93 589.001 97 c 0
 589.001 100 590.001 105 591.001 107 c 1
 591.001 110 592.001 111 594.001 110 c 1
 597.001 110 598.001 90 594.001 90 c 1
 594.001 90 593.001 89 593.001 88 c 0
 593.001 86 602.001 87 604.001 89 c 0
 606.001 93 613.001 90 613.001 84 c 1
 614.001 80 613.001 79 608.001 74 c 0
 591.001 57 589.001 51 594.001 34 c 0
 600.001 15 613.001 11 619.001 26 c 0
 623.001 37 635.001 41 641.001 33 c 0
 643.001 30 643.001 30 641.001 24 c 0
 637.001 15 640.001 12 650.001 16 c 0
 657.001 19 661.001 19 670.001 14 c 0
 688.001 5 690.001 9 681.001 33 c 0
 678.001 42 678.001 42 680.001 49 c 0
 684.001 63 683.001 66 669.001 73 c 0
 659.001 79 655.001 79 654.001 72 c 0
 651.001 61 636.001 59 635.001 70 c 0
 635.001 74 635.001 79 634.001 82 c 0
 633.001 85 634.001 87 636.001 90 c 0
 648.001 105 632.001 129 619.001 115 c 0
 612.001 108 602.001 111 605.001 118 c 0
 605.001 120 606.001 126 607.001 131 c 0
 608.001 143 608.001 144 614.001 145 c 0
 622.001 147 622.001 154 614.001 164 c 0
 611.001 168 611.001 169 612.001 173 c 0
 614.001 179 614.001 183 611.001 190 c 0
 609.001 194 608.001 197 608.001 203 c 0
 608.001 214 594.001 228 582.001 228 c 0
 578.001 228 573.001 233 573.001 237 c 0
 573.001 239 572.001 244 571.001 248 c 0
 570.001 256 570.001 256 576.001 263 c 0
 584.001 271 584.001 274 579.001 283 c 0
 573.001 292 568.001 302 567.001 307 c 0
 567.001 309 564.001 314 560.001 319 c 0
 556.001 326 554.001 329 553.001 338 c 0
 553.001 345 551.001 350 547.001 357 c 0
 544.001 363 539.001 373 537.001 379 c 0
 530.001 394 523.001 402 515.001 401 c 0
 508.001 400 499.001 409 501.001 417 c 0
 502.001 423 499.001 430 494.001 433 c 0
 492.001 434 488.001 438 486.001 441 c 0
 482.001 449 477.001 450 472.001 444 c 0
 465.001 436 460.001 439 465.001 448 c 0
 472.001 459 468.001 465 456.001 461 c 0
 451.001 460 446.001 459 444.001 459 c 0
 436.001 460 434.001 453 439.001 434 c 0
 442.001 426 442.001 424 439.001 416 c 1
 436.001 401 437.001 398 456.001 383 c 0
 465.001 375 469.001 375 480.001 378 c 0
 489.001 381 493.001 377 487.001 372 c 0
 484.001 370 481.001 365 480.001 361 c 0
 479.001 358 475.001 352 472.001 349 c 0
 466.001 342 466.001 339 470.001 330 c 0
 472.001 324 472.001 322 472.001 315 c 0
 471.001 308 471.001 306 476.001 295 c 0
 482.001 283 481.001 282 473.001 280 c 0
 467.001 279 465.001 281 460.001 291 c 0
 457.001 299 453.001 302 444.001 303 c 0
 439.001 304 433.001 306 429.001 309 c 0
 410.001 320 381.001 326 360.001 323 c 0
 354.001 322 341.001 320 332.001 319 c 0
 323.001 318 312.001 317 307.001 316 c 0
 276.001 308 261.001 316 271.001 335 c 0
 277.001 347 278.001 356 274.001 363 c 0
 269.001 373 270.001 374 279.001 382 c 0
 290.001 391 290.001 395 282.001 402 c 0
 268.001 413 280.001 427 296.001 421 c 0
 300.001 419 306.001 426 309.001 434 c 0
 314.001 450 311.001 455 296.001 454 c 0
 288.001 454 285.001 454 278.001 458 c 0
 274.001 460 267.001 462 264.001 463 c 0
 261.001 464 256.001 466 254.001 468 c 0
 248.001 473 244.001 473 236.001 466 c 0
 223.001 455 220.001 450 212.001 420 c 0
508.001 333 m 0
 510.001 326 510.001 326 518.001 326 c 0
 528.001 326 532.001 323 532.001 316 c 0
 532.001 305 519.001 303 511.001 312 c 0
 506.001 318 504.001 319 494.001 316 c 0
 485.001 313 482.001 322 489.001 333 c 0
 496.001 344 497.001 345 503.001 341 c 0
 504.001 340 507.001 336 508.001 333 c 0
244.001 300 m 0
 241.001 298 237.001 295 236.001 292 c 0
 231.001 281 225.001 279 216.001 285 c 0
 206.001 291 218.001 311 231.001 309 c 0
 236.001 308 237.001 308 239.001 311 c 0
 244.001 316 250.001 314 250.001 308 c 0
 250.001 304 250.001 303 244.001 300 c 0
527.001 280 m 1
 524.001 275 523.001 274 526.001 269 c 0
 527.001 266 529.001 263 529.001 260 c 1
 530.001 258 532.001 253 535.001 250 c 0
 545.001 239 534.001 226 518.001 231 c 0
 511.001 233 503.001 249 506.001 256 c 0
 507.001 259 507.001 263 507.001 265 c 0
 507.001 268 509.001 272 512.001 276 c 0
 514.001 279 516.001 283 516.001 285 c 0
 516.001 292 526.001 293 529.001 288 c 0
 530.001 285 530.001 283 527.001 280 c 1
188.001 256 m 0
 186.001 254 185.001 253 186.001 248 c 0
 187.001 243 186.001 238 182.001 234 c 0
 179.001 231 179.001 224 183.001 217 c 0
 186.001 213 187.001 210 186.001 207 c 0
 185.001 204 185.001 197 185.001 191 c 0
 185.001 178 183.001 174 173.001 169 c 1
 157.001 159 152.001 174 167.001 191 c 0
 174.001 199 174.001 199 169.001 203 c 0
 157.001 213 153.001 221 153.001 232 c 0
 153.001 245 158.001 249 164.001 241 c 0
 168.001 235 174.001 235 176.001 240 c 0
 177.001 243 179.001 246 181.001 248 c 0
 183.001 251 184.001 253 183.001 257 c 0
 182.001 262 185.001 264 188.001 260 c 0
 190.001 258 190.001 257 188.001 256 c 0
EndSplineSet
EndChar

StartChar: uni0042
Encoding: 66 66 2
Width: 544
Flags: W
LayerCount: 2
Fore
SplineSet
148 685 m 1
 148 682 142 682 137 684 c 1
 131 688 129 688 123 683 c 0
 119 679 119 679 115 683 c 0
 111 686 111 686 104 685 c 0
 99 684 94 684 90 684 c 0
 84 685 84 685 79 679 c 0
 76 675 72 672 67 671 c 0
 54 667 45 646 49 632 c 0
 50 627 51 622 52 620 c 0
 52 618 54 614 56 612 c 0
 61 606 61 604 56 598 c 0
 50 592 48 586 48 576 c 0
 48 571 47 567 44 560 c 0
 40 551 40 551 41 534 c 0
 41 525 42 503 42 486 c 0
 42 461 43 455 45 449 c 0
 47 441 47 441 44 433 c 0
 39 422 39 395 44 381 c 0
 47 370 48 357 44 348 c 0
 42 342 42 341 45 331 c 0
 49 318 49 318 45 308 c 0
 42 298 42 296 47 288 c 0
 52 281 52 278 48 269 c 0
 43 256 45 244 51 240 c 0
 58 235 58 232 52 228 c 0
 46 223 49 217 58 217 c 0
 67 217 71 211 65 206 c 0
 63 204 60 203 55 203 c 0
 42 203 39 197 45 185 c 1
 49 180 50 177 50 170 c 0
 50 160 52 154 57 146 c 1
 62 140 61 136 53 137 c 0
 47 138 45 132 50 125 c 0
 55 119 55 117 49 110 c 0
 45 104 45 104 48 97 c 1
 49 91 50 88 49 84 c 0
 47 75 47 29 48 15 c 0
 49 0 51 -1 61 -2 c 0
 66 -3 72 -4 75 -5 c 0
 82 -7 107 -8 113 -6 c 0
 116 -5 127 -4 138 -4 c 0
 149 -3 161 -3 164 -2 c 0
 168 -1 171 -2 174 -4 c 0
 180 -7 216 -7 227 -4 c 0
 234 -3 235 -3 240 -5 c 0
 244 -6 250 -7 260 -7 c 2
 281 -7 l 2
 284 -7 290 -7 295 -6 c 0
 304 -4 323 -1 337 0 c 0
 342 1 350 2 353 3 c 0
 357 5 363 6 366 7 c 0
 417 23 476 69 448 71 c 0
 443 72 437 77 437 81 c 0
 437 86 434 87 430 85 c 0
 426 82 426 82 423 73 c 0
 421 65 417 63 410 66 c 0
 406 67 405 67 399 64 c 0
 392 60 388 59 386 62 c 0
 382 67 379 67 374 64 c 0
 366 58 354 60 347 69 c 0
 341 77 328 75 314 65 c 0
 311 62 307 60 306 60 c 0
 305 60 303 59 300 57 c 0
 294 52 288 53 283 60 c 0
 280 65 280 65 262 65 c 0
 252 65 241 66 237 67 c 0
 233 68 225 68 214 67 c 0
 205 66 192 65 186 65 c 0
 180 65 174 64 173 63 c 0
 173 62 171 63 169 64 c 0
 163 67 155 66 150 62 c 0
 142 57 140 58 138 64 c 0
 138 66 136 70 133 73 c 0
 130 75 127 80 126 84 c 0
 123 91 118 98 114 98 c 0
 110 98 103 105 103 108 c 0
 103 112 106 113 113 110 c 0
 119 107 123 108 125 112 c 0
 128 117 122 126 115 126 c 0
 111 126 112 131 118 139 c 0
 124 146 124 147 123 153 c 0
 123 157 122 162 122 165 c 0
 122 172 119 175 113 172 c 0
 106 168 103 171 103 180 c 0
 103 188 108 191 112 187 c 0
 123 177 130 202 122 221 c 0
 119 228 119 228 122 234 c 0
 124 239 124 240 121 246 c 0
 117 254 117 254 122 260 c 0
 125 265 125 266 123 272 c 0
 122 275 121 279 122 281 c 0
 122 282 123 288 124 293 c 0
 126 319 306 319 344 292 c 0
 349 288 357 284 361 283 c 0
 382 274 409 243 409 227 c 0
 409 217 414 212 420 216 c 1
 424 220 430 219 430 215 c 0
 430 212 428 210 423 210 c 0
 417 210 413 204 414 196 c 0
 416 184 415 170 413 165 c 0
 409 155 411 151 420 149 c 0
 422 148 425 147 427 146 c 0
 431 143 434 144 439 150 c 0
 448 161 457 155 448 143 c 0
 442 136 443 132 450 128 c 0
 454 126 460 132 460 139 c 0
 460 146 467 146 470 138 c 0
 473 130 473 128 468 124 c 1
 458 119 456 111 462 103 c 0
 464 101 465 97 465 95 c 0
 465 90 468 92 479 103 c 0
 490 113 490 114 488 125 c 0
 488 130 488 132 491 136 c 0
 508 158 508 190 491 189 c 0
 479 189 479 199 491 201 c 1
 505 202 508 212 500 225 c 0
 489 241 490 239 493 248 c 0
 496 259 484 279 476 275 c 0
 475 275 473 274 472 274 c 0
 470 273 470 274 470 281 c 0
 470 290 467 295 459 301 c 0
 457 303 452 308 449 312 c 0
 447 316 443 321 441 322 c 0
 436 325 419 332 416 332 c 0
 415 332 410 335 406 339 c 0
 401 343 397 346 396 346 c 0
 393 346 370 358 367 361 c 0
 361 368 365 381 374 381 c 0
 382 381 389 388 391 399 c 0
 391 404 393 407 402 416 c 0
 428 441 443 499 433 532 c 0
 432 533 432 536 431 538 c 0
 431 540 428 543 426 545 c 1
 419 548 419 552 425 558 c 0
 433 565 426 582 413 587 c 0
 406 590 404 593 406 601 c 0
 409 610 405 620 396 627 c 0
 387 634 383 639 378 645 c 0
 373 652 363 659 350 665 c 0
 344 667 331 673 322 678 c 0
 296 690 259 693 245 683 c 0
 238 678 234 678 233 685 c 1
 231 691 228 692 219 690 c 0
 213 689 210 689 205 691 c 0
 192 695 157 695 152 690 c 0
 149 688 148 685 148 685 c 1
80 623 m 0
 81 621 83 619 84 618 c 0
 86 617 88 616 89 615 c 0
 90 614 92 614 94 615 c 0
 100 619 115 614 115 608 c 0
 115 599 105 595 97 601 c 1
 90 605 90 605 86 603 c 0
 79 599 71 601 71 607 c 0
 71 608 69 613 68 617 c 0
 64 628 71 636 77 629 c 0
 79 627 80 624 80 623 c 0
205 624 m 0
 215 626 216 626 222 624 c 0
 229 621 234 621 241 624 c 0
 248 626 249 626 257 621 c 0
 261 618 270 614 276 611 c 0
 295 603 305 598 311 591 c 1
 315 588 320 584 323 583 c 0
 333 579 341 567 340 558 c 0
 339 551 339 550 346 539 c 0
 353 527 353 527 351 521 c 0
 350 515 350 512 351 502 c 0
 354 478 307 406 289 406 c 0
 288 406 284 404 280 403 c 1
 277 401 269 398 262 396 c 0
 255 395 247 392 245 391 c 0
 240 388 244 388 165 387 c 0
 127 387 125 387 125 395 c 0
 125 397 124 401 122 403 c 0
 114 413 112 422 119 423 c 1
 125 425 126 429 123 446 c 0
 121 460 121 469 126 474 c 0
 126 475 127 480 126 486 c 0
 125 498 124 504 125 517 c 0
 126 522 125 530 124 535 c 0
 123 540 121 547 121 551 c 0
 120 558 119 559 115 561 c 0
 109 563 108 568 113 572 c 0
 120 577 123 586 122 596 c 0
 120 612 152 630 170 624 c 0
 178 621 192 621 205 624 c 0
407 128 m 0
 406 125 404 122 399 120 c 0
 393 118 392 116 391 113 c 1
 391 107 401 107 409 114 c 0
 415 118 417 118 425 118 c 0
 441 119 442 119 442 121 c 0
 441 130 428 136 413 133 c 0
 410 133 409 131 407 128 c 0
EndSplineSet
EndChar

StartChar: uni0043
Encoding: 67 67 3
Width: 705
Flags: W
LayerCount: 2
Fore
SplineSet
508 682 m 0
 497 683 494 680 499 675 c 0
 501 673 502 671 501 665 c 0
 498 639 498 634 506 631 c 0
 510 630 511 630 516 634 c 0
 521 638 521 638 531 636 c 0
 536 634 547 634 556 634 c 0
 580 633 582 632 574 621 c 0
 569 614 569 612 575 606 c 0
 584 598 608 594 614 599 c 0
 618 603 620 603 622 599 c 0
 623 596 620 594 615 595 c 0
 611 595 612 591 617 586 c 0
 622 581 631 578 637 580 c 0
 643 582 650 607 647 612 c 0
 644 616 644 616 622 616 c 0
 598 616 594 620 606 633 c 1
 620 651 620 658 605 658 c 0
 597 658 591 662 591 667 c 0
 591 681 568 691 557 682 c 0
 550 676 549 677 542 682 c 1
 536 688 536 688 525 684 c 0
 520 682 515 682 508 682 c 0
262 674 m 0
 257 669 256 669 251 670 c 0
 240 672 231 663 241 659 c 0
 245 658 248 659 255 664 c 1
 262 671 269 666 269 653 c 0
 269 647 273 644 280 647 c 1
 293 650 296 657 289 666 c 1
 288 669 286 673 285 675 c 0
 284 679 281 682 278 682 c 0
 277 682 275 681 272 680 c 0
 269 679 265 677 262 674 c 0
218 644 m 0
 217 643 214 643 210 644 c 0
 198 646 184 635 189 628 c 1
 194 618 l 2
 201 604 207 602 222 609 c 0
 227 612 229 613 229 616 c 0
 229 621 232 629 235 629 c 0
 239 629 251 636 252 639 c 0
 255 647 242 652 227 648 c 0
 223 647 219 645 218 644 c 0
276 633 m 0
 270 633 269 633 263 628 c 0
 260 625 256 623 256 623 c 2
 255 623 251 620 246 617 c 0
 242 614 236 611 235 611 c 0
 232 610 231 609 231 607 c 0
 231 598 228 593 221 594 c 0
 215 595 210 593 210 589 c 0
 210 581 196 587 194 596 c 0
 193 601 192 601 189 601 c 0
 185 600 185 601 186 604 c 0
 186 607 184 618 182 621 c 0
 177 627 168 619 166 607 c 0
 165 599 160 595 145 590 c 0
 139 588 136 586 134 583 c 2
 127 573 l 1
 119 564 122 560 133 563 c 0
 145 567 151 566 156 562 c 0
 163 555 176 556 184 564 c 0
 189 569 189 569 194 567 c 0
 197 565 202 564 205 564 c 0
 208 564 213 563 217 561 c 0
 225 557 228 558 244 573 c 0
 259 587 260 588 254 595 c 0
 250 600 250 605 255 610 c 0
 261 618 267 615 270 605 c 0
 273 595 281 596 285 607 c 0
 287 610 290 615 292 619 c 1
 295 622 297 627 298 630 c 0
 298 633 300 637 302 638 c 0
 304 640 306 642 306 643 c 0
 306 645 301 644 298 642 c 0
 293 637 282 633 276 633 c 0
123 547 m 0
 113 547 107 542 105 533 c 0
 104 528 104 528 112 529 c 0
 122 530 128 528 128 524 c 0
 128 520 115 506 112 507 c 0
 109 509 104 519 104 523 c 0
 104 527 102 527 99 524 c 0
 98 523 97 521 98 519 c 0
 101 507 98 500 90 497 c 0
 88 496 88 494 88 488 c 0
 88 480 88 480 82 476 c 0
 70 468 68 453 77 441 c 0
 84 432 83 424 74 424 c 0
 67 424 63 419 62 408 c 0
 61 403 59 394 57 389 c 0
 53 380 52 370 54 367 c 0
 55 366 54 362 52 359 c 0
 49 352 49 352 53 344 c 1
 55 337 56 332 57 318 c 0
 58 301 65 273 68 275 c 0
 70 276 85 271 87 268 c 1
 92 264 91 259 83 254 c 0
 73 247 72 238 80 237 c 0
 87 236 88 228 82 222 c 0
 72 210 81 198 94 207 c 0
 99 210 104 209 106 204 c 0
 109 199 109 185 106 187 c 0
 93 198 88 186 100 173 c 0
 109 163 111 160 111 154 c 0
 111 143 132 121 139 125 c 0
 142 127 148 122 149 116 c 0
 152 102 172 76 179 76 c 0
 183 76 198 64 201 58 c 0
 204 52 205 52 215 49 c 1
 221 46 222 46 227 48 c 0
 236 52 244 48 240 41 c 0
 236 33 240 27 248 28 c 0
 253 29 262 25 269 18 c 0
 273 14 277 12 282 11 c 0
 286 10 291 9 294 7 c 0
 298 5 303 4 307 3 c 0
 311 3 321 1 328 -2 c 0
 349 -8 357 -4 346 7 c 0
 340 13 339 19 343 24 c 0
 349 32 356 27 356 15 c 0
 357 -2 379 -12 389 0 c 0
 395 7 396 7 402 2 c 0
 408 -2 413 -2 419 2 c 0
 424 6 427 6 432 -1 c 0
 439 -9 457 -6 461 4 c 0
 464 13 477 19 481 13 c 0
 482 10 480 3 476 1 c 0
 474 -1 475 -5 478 -6 c 0
 488 -9 509 7 511 18 c 0
 512 23 512 23 517 24 c 1
 526 24 533 19 527 14 c 0
 522 9 526 4 534 7 c 0
 541 9 543 14 541 19 c 0
 538 25 541 27 552 26 c 0
 558 26 564 27 566 27 c 0
 569 28 570 28 570 26 c 0
 570 16 579 15 588 22 c 0
 599 31 602 32 610 32 c 1
 617 33 619 34 623 38 c 0
 626 41 630 43 633 44 c 0
 645 46 646 59 634 59 c 0
 625 59 628 66 638 71 c 0
 648 77 651 84 642 84 c 0
 638 84 632 89 632 92 c 0
 632 95 638 100 640 99 c 0
 643 97 647 102 647 108 c 0
 647 112 648 115 651 119 c 0
 656 124 657 127 654 130 c 0
 651 132 646 132 644 129 c 0
 642 127 635 123 632 123 c 0
 626 123 597 110 587 103 c 0
 585 101 581 99 578 98 c 0
 572 97 569 94 569 89 c 0
 569 84 566 84 561 88 c 0
 556 91 549 92 547 90 c 0
 545 87 535 83 530 83 c 0
 528 83 520 81 514 78 c 1
 507 76 497 73 490 73 c 0
 471 71 462 66 461 58 c 0
 461 51 458 48 454 50 c 0
 453 50 452 52 453 58 c 0
 455 71 452 71 415 68 c 0
 392 67 389 66 385 59 c 0
 380 52 375 48 372 50 c 1
 370 53 369 52 367 48 c 0
 366 46 363 44 359 43 c 0
 352 40 352 40 350 44 c 0
 349 46 347 48 344 49 c 0
 336 52 339 63 348 62 c 0
 351 62 354 61 355 60 c 0
 359 57 366 61 366 66 c 0
 366 76 342 75 334 64 c 0
 333 62 335 50 336 49 c 0
 344 44 334 21 323 18 c 0
 316 16 312 20 313 28 c 0
 314 31 314 33 312 34 c 1
 309 38 307 47 306 54 c 0
 306 60 305 63 301 68 c 0
 296 76 296 76 300 82 c 0
 305 90 301 96 295 88 c 1
 289 82 286 84 287 92 c 0
 288 100 287 101 280 105 c 0
 277 106 270 111 265 114 c 1
 261 118 251 124 243 128 c 0
 233 133 229 136 226 140 c 0
 216 155 213 156 208 150 c 0
 203 144 201 145 197 151 c 0
 195 153 190 158 186 161 c 0
 182 164 177 169 176 171 c 0
 173 174 171 175 165 175 c 0
 152 175 141 192 151 196 c 0
 154 198 155 197 158 195 c 0
 169 186 180 182 180 187 c 0
 180 192 170 206 166 208 c 0
 160 211 160 212 157 226 c 0
 156 233 156 235 159 242 c 0
 162 252 162 255 155 263 c 0
 152 266 150 271 149 273 c 0
 149 275 147 281 144 286 c 0
 141 292 140 297 140 302 c 0
 141 328 139 339 136 342 c 0
 132 346 118 353 111 354 c 0
 99 355 96 365 103 373 c 0
 108 378 124 378 130 373 c 0
 134 370 136 371 139 377 c 0
 143 385 139 391 129 394 c 0
 123 395 122 397 121 404 c 0
 120 411 120 411 114 410 c 0
 100 409 91 421 99 429 c 0
 113 441 115 442 124 432 c 0
 131 424 142 424 152 433 c 1
 161 443 160 449 146 456 c 0
 141 458 138 463 139 467 c 1
 141 470 151 470 157 467 c 0
 171 460 183 483 175 498 c 0
 170 506 170 508 176 519 c 0
 182 531 182 533 177 538 c 0
 175 540 173 543 171 546 c 0
 169 552 162 553 153 549 c 0
 150 547 149 547 145 550 c 0
 140 554 138 554 133 550 c 1
 130 549 126 547 123 547 c 0
EndSplineSet
EndChar

StartChar: uni0044
Encoding: 68 68 4
Width: 733
Flags: W
LayerCount: 2
Fore
SplineSet
291 695 m 0
 284 694 282 693 277 689 c 0
 271 684 261 679 258 679 c 0
 255 679 255 680 255 684 c 0
 256 692 250 695 242 691 c 0
 237 688 236 688 230 690 c 0
 222 693 221 693 217 685 c 0
 214 678 211 677 203 682 c 0
 196 687 191 687 183 683 c 0
 177 680 177 680 171 683 c 0
 164 687 160 686 159 681 c 0
 159 679 158 676 158 674 c 0
 157 670 154 668 150 670 c 0
 145 673 137 674 133 671 c 0
 125 664 120 663 114 666 c 0
 105 671 83 672 80 667 c 0
 68 651 106 621 132 625 c 0
 135 626 139 625 142 624 c 0
 150 620 154 622 157 631 c 0
 159 637 163 637 167 631 c 0
 173 623 184 631 180 640 c 0
 177 648 177 649 180 652 c 0
 183 656 186 656 190 652 c 0
 194 648 202 648 204 653 c 0
 210 663 220 637 215 625 c 0
 212 618 215 615 222 617 c 1
 230 618 236 624 236 631 c 0
 236 636 236 637 240 641 c 1
 249 647 248 655 239 655 c 0
 227 655 231 663 243 663 c 0
 248 663 254 664 256 664 c 0
 261 666 275 659 281 652 c 0
 286 646 292 648 294 656 c 0
 296 668 301 670 305 661 c 1
 307 653 310 652 317 656 c 0
 323 660 330 659 334 654 c 0
 337 651 347 650 350 653 c 0
 353 655 356 653 356 648 c 0
 356 640 357 639 370 639 c 0
 389 640 393 637 385 627 c 0
 378 618 379 615 387 616 c 0
 390 616 397 615 402 613 c 0
 420 608 422 608 429 614 c 0
 435 619 436 620 440 617 c 1
 443 616 461 594 464 588 c 0
 467 583 475 582 478 586 c 0
 481 589 483 588 490 582 c 0
 494 579 499 575 501 574 c 0
 505 571 505 567 501 560 c 0
 495 549 499 545 518 547 c 0
 536 549 537 548 529 540 c 0
 521 531 524 525 537 527 c 0
 545 528 547 526 544 519 c 0
 541 511 543 507 551 504 c 0
 558 502 560 501 557 498 c 0
 554 496 554 492 558 486 c 0
 560 483 561 478 561 473 c 0
 562 468 564 460 566 455 c 0
 568 450 570 445 570 443 c 0
 570 432 576 430 585 438 c 0
 592 445 598 443 597 433 c 0
 597 423 594 419 587 418 c 0
 578 417 576 411 583 404 c 0
 586 400 592 399 593 402 c 0
 595 405 604 402 604 398 c 0
 604 397 600 394 596 391 c 0
 584 382 583 378 588 368 c 0
 591 361 591 359 590 355 c 0
 586 345 595 341 601 350 c 0
 603 354 605 355 606 355 c 0
 607 355 609 354 611 354 c 0
 618 354 620 347 613 345 c 1
 598 343 589 328 587 302 c 0
 586 291 586 288 582 283 c 0
 580 280 578 273 577 268 c 0
 575 263 573 256 569 251 c 0
 561 238 561 237 573 231 c 0
 581 227 582 224 576 218 c 0
 571 213 570 209 572 204 c 0
 574 197 562 188 560 194 c 0
 558 197 561 204 564 205 c 0
 570 208 569 208 561 208 c 0
 552 208 545 202 545 195 c 0
 545 190 543 188 534 184 c 0
 527 180 525 177 525 169 c 0
 525 163 527 161 534 155 c 0
 542 149 537 139 526 139 c 0
 521 139 519 139 516 143 c 0
 512 150 504 151 500 148 c 0
 494 142 491 136 493 131 c 0
 495 124 493 120 488 121 c 0
 477 124 476 124 469 118 c 1
 464 116 459 111 458 108 c 0
 454 102 454 102 446 102 c 0
 438 102 437 102 420 88 c 0
 411 81 409 80 395 83 c 0
 393 84 390 83 386 80 c 0
 382 76 380 76 373 76 c 0
 369 76 364 75 363 74 c 0
 361 73 354 72 345 72 c 0
 336 72 328 71 325 70 c 0
 320 68 319 68 313 71 c 0
 304 75 295 74 267 66 c 0
 256 63 235 62 227 65 c 0
 218 68 198 69 187 66 c 0
 183 65 177 64 175 65 c 0
 169 66 163 62 165 58 c 0
 166 55 178 50 182 51 c 0
 188 52 194 47 191 44 c 1
 189 39 186 39 178 41 c 0
 167 43 162 39 171 34 c 0
 178 30 177 23 169 17 c 0
 166 15 165 15 163 17 c 0
 162 18 158 20 155 21 c 0
 152 22 148 24 147 25 c 0
 140 33 129 26 134 17 c 0
 140 8 133 4 123 12 c 0
 115 19 112 19 100 13 c 0
 89 8 84 8 82 16 c 0
 81 23 80 29 79 38 c 0
 78 51 69 56 69 44 c 0
 69 42 67 37 66 34 c 0
 56 19 56 17 66 8 c 0
 75 0 82 -3 90 -2 c 1
 101 -2 151 -4 152 -5 c 0
 154 -7 162 -2 164 2 c 0
 166 7 168 7 174 2 c 0
 187 -8 199 -5 191 6 c 0
 188 9 188 10 190 13 c 0
 195 20 204 16 201 8 c 0
 199 3 200 1 206 -1 c 0
 217 -4 219 -3 222 7 c 0
 223 12 225 15 227 16 c 0
 234 21 242 14 239 6 c 1
 234 -3 239 -6 254 -5 c 0
 269 -4 270 -3 267 10 c 0
 265 16 270 20 277 19 c 0
 283 18 284 19 287 22 c 0
 290 24 294 25 304 27 c 0
 333 31 334 31 334 19 c 0
 334 0 345 -8 356 2 c 0
 360 5 360 6 359 15 c 0
 358 27 360 31 365 27 c 0
 370 24 372 18 370 12 c 0
 367 0 377 -3 393 5 c 0
 398 7 406 10 409 10 c 0
 426 12 420 19 401 18 c 0
 385 18 385 18 390 29 c 0
 393 35 393 35 399 34 c 0
 404 33 405 34 408 38 c 0
 412 42 412 42 418 39 c 0
 432 30 433 30 438 35 c 0
 441 37 444 39 445 38 c 0
 446 38 448 36 450 35 c 0
 455 31 458 32 460 35 c 0
 465 42 469 43 473 38 c 0
 478 33 480 33 489 41 c 0
 492 44 496 47 497 48 c 0
 499 50 500 52 500 56 c 0
 500 66 510 72 522 71 c 0
 531 70 531 70 538 77 c 0
 542 80 550 87 554 91 c 0
 562 98 563 99 563 104 c 0
 563 110 566 112 574 115 c 0
 581 118 598 137 602 145 c 0
 603 148 606 153 608 156 c 0
 613 164 613 164 608 171 c 0
 600 183 607 190 617 179 c 0
 626 169 629 172 629 188 c 1
 628 200 628 200 634 202 c 0
 641 205 644 208 645 216 c 0
 646 219 647 222 648 223 c 0
 659 232 661 245 653 252 c 0
 647 257 647 257 661 267 c 0
 665 270 665 271 666 279 c 0
 666 284 667 295 668 304 c 0
 670 319 670 319 666 323 c 0
 660 330 663 334 674 337 c 0
 681 338 683 346 680 354 c 0
 679 358 677 365 677 370 c 0
 675 380 671 385 664 385 c 0
 659 385 656 389 659 394 c 0
 660 396 662 397 668 397 c 0
 679 397 680 407 671 420 c 0
 669 422 666 427 664 430 c 0
 660 434 660 436 659 446 c 1
 659 459 655 465 646 467 c 0
 642 468 639 470 634 475 c 0
 628 481 625 483 622 483 c 0
 615 483 608 487 608 490 c 0
 608 493 616 497 623 497 c 0
 636 497 638 512 626 518 c 0
 615 523 610 535 612 547 c 0
 614 554 610 561 604 566 c 0
 602 567 600 570 598 573 c 0
 590 587 583 592 578 586 c 0
 572 579 564 585 565 596 c 0
 567 611 526 644 504 644 c 0
 500 644 499 645 496 649 c 0
 489 661 476 666 439 671 c 0
 437 672 432 674 427 677 c 0
 411 688 406 689 398 684 c 0
 387 677 378 679 371 689 c 0
 367 696 365 697 356 693 c 1
 344 686 339 683 338 678 c 0
 335 670 328 673 324 684 c 0
 321 695 313 700 304 697 c 0
 302 697 296 696 291 695 c 0
553 95 m 0
 550 91 513 97 509 102 c 0
 504 109 511 116 522 113 c 0
 529 112 543 114 547 118 c 0
 549 120 556 119 557 117 c 0
 558 114 555 98 553 95 c 0
71 617 m 0
 75 613 77 610 77 609 c 0
 77 608 78 605 78 604 c 0
 79 600 79 600 74 601 c 0
 64 603 61 597 67 590 c 0
 76 580 76 565 67 559 c 0
 63 557 61 555 61 553 c 0
 60 549 61 548 70 541 c 0
 76 536 76 532 70 527 c 1
 65 521 63 513 67 507 c 1
 71 503 71 500 69 493 c 0
 68 488 68 486 70 481 c 0
 72 474 72 472 69 466 c 0
 68 463 67 459 67 457 c 0
 67 454 65 452 63 450 c 0
 56 444 55 439 58 420 c 0
 60 405 62 401 69 399 c 0
 80 396 85 382 76 379 c 0
 69 377 67 368 72 363 c 0
 76 360 75 357 67 348 c 0
 62 343 59 339 59 336 c 0
 57 322 56 312 58 305 c 0
 59 299 59 297 57 291 c 0
 55 284 55 283 57 276 c 0
 60 265 60 258 56 248 c 1
 55 242 54 235 54 228 c 0
 54 223 53 215 52 212 c 0
 50 200 56 197 63 206 c 0
 68 211 79 215 90 216 c 0
 96 216 96 209 90 208 c 0
 79 206 70 195 70 185 c 0
 70 176 70 176 63 174 c 0
 53 172 51 165 56 158 c 0
 64 148 64 137 57 127 c 0
 54 123 55 118 57 113 c 0
 59 110 59 107 59 102 c 1
 57 94 59 93 68 96 c 0
 74 98 79 97 79 94 c 0
 79 91 86 88 89 89 c 0
 93 90 92 94 88 98 c 0
 80 104 91 111 103 108 c 0
 115 104 120 109 114 118 c 0
 109 125 109 127 116 137 c 0
 120 143 125 145 125 141 c 0
 125 137 131 131 134 132 c 1
 138 132 139 139 135 142 c 0
 133 144 131 147 129 151 c 0
 125 160 118 164 103 164 c 0
 86 164 82 168 90 179 c 0
 92 183 94 183 101 177 c 0
 108 171 110 171 114 178 c 0
 119 186 123 189 127 187 c 0
 130 186 132 187 132 191 c 0
 132 196 128 200 121 202 c 0
 113 205 111 207 111 212 c 0
 112 217 116 218 124 214 c 0
 132 209 135 211 135 220 c 0
 135 223 136 229 137 232 c 0
 141 242 137 250 129 246 c 0
 125 245 125 245 123 247 c 0
 119 250 121 256 126 257 c 0
 133 258 134 260 134 266 c 0
 135 274 132 279 127 281 c 0
 124 282 121 284 119 286 c 0
 115 289 112 288 110 281 c 0
 110 278 108 276 104 275 c 1
 101 273 97 271 95 269 c 0
 92 266 91 266 89 267 c 1
 87 270 87 274 89 275 c 0
 90 276 93 280 95 284 c 0
 99 292 102 295 107 293 c 0
 108 293 112 294 116 297 c 0
 122 301 123 301 124 299 c 0
 132 286 142 294 135 307 c 0
 131 315 131 316 136 324 c 0
 142 333 141 335 129 335 c 1
 120 336 105 340 101 344 c 0
 94 350 102 357 112 353 c 0
 118 351 119 351 126 354 c 0
 139 360 140 364 134 372 c 0
 130 378 130 379 134 386 c 0
 137 392 138 417 135 425 c 0
 134 427 133 431 133 434 c 0
 133 442 131 446 124 449 c 0
 117 452 118 457 126 457 c 1
 130 456 132 457 133 458 c 1
 133 460 130 465 128 465 c 0
 127 465 124 470 121 477 c 0
 111 497 116 518 129 508 c 0
 134 504 136 505 136 510 c 0
 136 512 137 518 138 522 c 0
 140 534 139 537 131 541 c 1
 120 545 117 557 122 568 c 0
 127 579 117 585 111 574 c 0
 109 571 107 568 105 568 c 0
 102 567 101 565 100 561 c 0
 95 545 88 551 84 573 c 0
 83 576 82 580 80 583 c 0
 78 587 77 599 80 599 c 2
 80 599 83 598 86 598 c 1
 94 595 97 599 97 609 c 0
 97 623 79 642 69 638 c 0
 61 635 62 628 71 617 c 0
108 63 m 0
 101 61 99 57 102 52 c 0
 105 46 103 42 95 38 c 0
 86 33 86 31 92 29 c 0
 102 25 111 27 119 35 c 0
 123 39 124 39 129 38 c 0
 140 37 151 56 142 60 c 0
 140 60 138 62 136 65 c 0
 134 68 132 70 128 71 c 0
 120 73 120 73 117 69 c 0
 115 67 112 64 108 63 c 0
EndSplineSet
EndChar

StartChar: uni0045
Encoding: 69 69 5
Width: 449
Flags: W
LayerCount: 2
Fore
SplineSet
107 674 m 0
 85 675 79 672 74 656 c 0
 69 642 77 639 93 650 c 0
 97 653 102 655 103 655 c 0
 104 655 107 657 110 659 c 0
 119 666 123 667 127 664 c 0
 137 656 136 656 146 659 c 0
 162 663 181 660 183 652 c 0
 184 646 186 646 190 652 c 0
 193 657 196 659 200 657 c 0
 204 656 204 655 200 648 c 0
 192 636 205 626 223 630 c 0
 230 632 233 633 235 631 c 1
 241 629 244 630 251 638 c 0
 267 655 276 658 281 646 c 0
 283 642 285 638 286 638 c 2
 293 638 l 2
 297 638 298 637 301 632 c 0
 307 624 314 626 314 637 c 0
 314 645 318 650 326 650 c 0
 336 650 338 659 330 667 c 0
 322 675 318 674 312 663 c 0
 308 656 296 664 298 672 c 0
 299 680 296 683 287 684 c 0
 279 685 277 682 283 675 c 0
 292 664 283 659 269 668 c 0
 259 674 253 673 237 661 c 0
 223 650 216 652 225 664 c 0
 231 673 231 674 225 677 c 0
 223 678 218 680 216 682 c 1
 209 685 206 685 197 681 c 0
 193 679 187 678 183 678 c 0
 179 678 174 677 171 675 c 0
 161 671 156 673 148 684 c 0
 143 692 138 693 133 685 c 0
 126 674 123 673 107 674 c 0
90 600 m 0
 96 603 98 602 99 596 c 0
 99 593 101 588 103 586 c 0
 109 579 102 573 95 579 c 0
 93 580 90 581 85 580 c 0
 78 579 77 579 73 585 c 1
 67 591 64 592 60 589 c 0
 55 586 58 571 63 570 c 0
 70 569 74 562 70 556 c 0
 67 550 58 552 55 559 c 0
 52 568 48 564 45 549 c 0
 43 539 45 534 50 529 c 0
 57 522 57 516 49 515 c 1
 39 512 38 505 46 494 c 0
 51 488 52 486 52 480 c 0
 52 473 52 473 61 471 c 0
 63 471 65 469 66 464 c 1
 68 460 70 456 72 454 c 0
 75 448 75 447 71 445 c 0
 65 443 61 445 58 455 c 0
 50 476 50 476 44 473 c 0
 38 470 38 465 45 454 c 0
 52 442 52 445 45 426 c 0
 39 411 39 411 41 403 c 0
 46 388 45 376 39 364 c 0
 32 351 32 349 40 340 c 0
 43 337 47 331 49 328 c 0
 57 319 61 326 55 338 c 0
 51 346 51 354 55 356 c 0
 61 358 61 357 67 351 c 0
 73 344 73 344 86 355 c 0
 102 369 108 362 94 346 c 0
 86 337 82 336 75 341 c 0
 72 344 70 343 65 337 c 0
 62 333 64 329 71 323 c 0
 82 312 78 294 63 294 c 0
 54 294 52 296 52 305 c 0
 52 311 51 312 46 309 c 1
 33 304 36 278 49 281 c 0
 54 282 60 277 60 272 c 0
 60 270 52 265 48 265 c 0
 42 265 40 258 45 251 c 0
 50 245 47 231 39 225 c 0
 35 221 36 216 42 210 c 0
 50 203 50 201 44 194 c 0
 37 187 37 187 41 167 c 0
 44 149 45 148 51 151 c 0
 60 156 68 158 74 158 c 0
 80 158 81 158 83 162 c 0
 86 168 90 168 93 162 c 0
 95 157 102 154 104 157 c 0
 107 162 104 178 100 180 c 0
 98 180 94 181 92 182 c 0
 89 183 87 183 83 181 c 0
 76 177 69 180 69 186 c 0
 69 190 79 196 87 197 c 0
 96 198 100 201 102 209 c 0
 103 213 105 217 107 219 c 0
 112 225 115 237 115 249 c 0
 115 255 116 262 116 265 c 0
 119 274 117 278 111 282 c 0
 104 287 104 289 109 294 c 0
 113 298 113 300 110 307 c 0
 107 313 110 319 116 320 c 0
 120 321 120 323 114 330 c 0
 108 337 108 340 114 343 c 0
 119 345 121 348 121 353 c 0
 121 361 126 360 135 351 c 0
 143 342 145 343 146 358 c 0
 147 369 146 370 137 369 c 0
 130 368 127 370 120 377 c 1
 116 383 108 383 102 377 c 0
 95 370 85 374 86 383 c 0
 87 387 86 389 83 393 c 0
 76 400 81 407 92 405 c 0
 98 404 99 406 99 413 c 0
 99 416 101 420 102 423 c 0
 104 427 104 427 102 431 c 0
 98 439 90 434 94 425 c 0
 97 419 96 418 88 418 c 0
 79 418 77 421 77 436 c 0
 77 462 86 473 99 463 c 0
 107 457 115 459 115 467 c 0
 115 470 114 471 104 472 c 0
 102 473 99 475 97 477 c 0
 93 481 91 481 79 483 c 0
 67 484 67 493 80 497 c 0
 90 500 89 504 74 518 c 0
 65 527 63 545 71 545 c 0
 72 545 73 546 74 549 c 0
 75 551 77 554 79 554 c 0
 81 555 85 557 87 559 c 0
 89 561 92 561 99 561 c 0
 118 561 121 599 103 605 c 0
 101 606 98 608 96 611 c 0
 92 618 74 626 68 623 c 0
 46 614 68 592 90 600 c 0
94 519 m 0
 101 519 103 510 96 505 c 0
 89 499 94 493 106 494 c 0
 116 495 114 518 103 525 c 0
 101 526 97 531 94 534 c 0
 88 542 83 544 81 539 c 0
 79 532 87 519 94 519 c 0
294 381 m 0
 287 387 277 385 273 377 c 0
 268 368 260 369 261 378 c 0
 261 385 258 387 251 386 c 0
 242 384 239 382 239 374 c 0
 239 369 239 366 237 364 c 0
 234 360 231 361 231 366 c 0
 231 378 214 381 204 371 c 0
 201 367 199 367 197 367 c 0
 184 372 178 358 189 350 c 0
 193 346 194 346 196 351 c 0
 198 359 208 356 206 348 c 0
 205 342 203 341 199 344 c 0
 195 347 195 347 193 339 c 1
 191 336 189 333 188 333 c 0
 187 333 184 332 182 330 c 0
 178 327 168 328 165 332 c 0
 155 343 154 343 149 343 c 0
 143 343 134 331 134 323 c 0
 134 321 144 318 149 319 c 0
 151 319 157 319 162 317 c 0
 190 311 198 312 207 323 c 0
 213 330 212 330 221 324 c 0
 230 318 234 318 240 323 c 0
 247 330 250 330 255 324 c 0
 264 315 291 313 300 321 c 0
 306 325 309 326 315 322 c 0
 322 318 335 317 345 320 c 0
 350 321 356 322 359 322 c 0
 362 322 367 323 369 325 c 1
 372 326 379 328 384 328 c 0
 399 330 405 337 397 347 c 0
 395 350 394 353 393 366 c 0
 392 386 385 393 375 383 c 0
 370 378 342 378 334 384 c 0
 325 390 316 389 308 382 c 0
 301 375 301 375 294 381 c 0
52 117 m 1
 59 116 59 112 53 106 c 0
 43 95 54 81 69 85 c 0
 74 87 75 87 77 85 c 0
 85 77 99 95 93 107 c 0
 92 109 91 115 91 119 c 0
 91 125 90 128 89 128 c 0
 88 129 86 131 85 135 c 1
 83 138 81 140 79 141 c 0
 77 141 74 142 72 143 c 0
 67 145 64 144 57 139 c 0
 44 129 41 117 52 117 c 1
90 74 m 0
 84 72 83 71 81 65 c 0
 77 53 64 44 51 43 c 1
 37 43 33 23 46 20 c 0
 52 18 53 15 49 10 c 0
 44 3 51 -1 72 -1 c 0
 77 -1 84 -2 88 -3 c 0
 91 -4 103 -4 118 -3 c 0
 132 -2 154 -1 166 -1 c 0
 193 0 191 -1 193 3 c 0
 195 5 194 7 192 11 c 0
 188 16 189 21 194 26 c 0
 195 27 197 31 197 33 c 0
 197 39 203 44 208 43 c 0
 218 40 218 35 208 29 c 0
 202 26 202 26 205 21 c 1
 208 18 209 14 209 10 c 0
 209 2 212 -1 221 0 c 0
 229 1 235 6 235 10 c 0
 235 13 236 13 243 15 c 1
 247 15 249 15 254 9 c 0
 263 -1 285 -7 292 -1 c 0
 295 1 290 6 283 6 c 0
 276 6 267 10 267 15 c 0
 267 20 272 21 281 20 c 0
 285 19 289 18 290 18 c 0
 300 20 305 15 302 9 c 0
 299 3 300 2 308 0 c 0
 331 -5 343 -2 347 8 c 0
 349 12 360 22 363 22 c 0
 368 22 370 14 367 8 c 0
 363 1 370 -4 377 -1 c 0
 380 1 383 2 391 1 c 0
 411 -1 425 35 407 42 c 0
 398 46 397 49 406 59 c 0
 411 65 409 71 401 71 c 0
 398 71 392 66 392 63 c 1
 392 63 391 61 390 60 c 0
 387 58 384 61 384 65 c 0
 384 69 380 69 371 64 c 0
 363 60 363 60 359 63 c 0
 351 68 347 69 316 69 c 1
 298 70 283 70 280 71 c 0
 276 72 273 72 266 71 c 0
 260 70 257 70 254 71 c 0
 251 72 250 72 246 71 c 0
 239 68 231 67 229 69 c 0
 228 69 225 70 223 70 c 0
 220 69 216 70 215 71 c 0
 208 75 195 74 189 69 c 0
 187 68 183 65 180 63 c 0
 166 53 166 53 168 61 c 0
 170 71 150 76 134 69 c 0
 124 65 115 69 115 76 c 0
 115 84 102 86 98 80 c 0
 97 77 94 75 90 74 c 0
EndSplineSet
EndChar

StartChar: uni0046
Encoding: 70 70 6
Width: 419
Flags: W
LayerCount: 2
Fore
SplineSet
152 671 m 1
 148 671 143 670 140 667 c 0
 136 664 132 663 128 663 c 0
 121 662 119 662 117 657 c 0
 115 650 96 654 88 664 c 0
 81 672 79 673 73 669 c 0
 66 664 64 664 60 669 c 0
 55 674 53 674 50 671 c 0
 46 666 40 655 40 652 c 0
 40 649 39 643 38 638 c 0
 32 617 36 580 45 580 c 0
 48 580 53 584 55 589 c 0
 58 594 67 603 70 603 c 0
 75 603 69 607 62 609 c 0
 49 611 47 616 57 621 c 0
 60 622 63 625 64 629 c 1
 70 640 99 634 99 622 c 0
 99 619 102 616 105 616 c 0
 108 616 113 623 113 627 c 0
 113 630 125 637 130 637 c 0
 135 637 138 642 136 648 c 0
 132 657 149 659 154 649 c 0
 156 643 166 645 170 652 c 0
 178 668 172 683 162 675 c 0
 159 673 155 672 152 671 c 1
228 661 m 0
 219 643 221 636 234 645 c 0
 240 649 242 650 246 649 c 0
 248 648 252 649 256 650 c 0
 267 655 270 649 259 644 c 0
 246 638 243 632 248 622 c 0
 249 619 250 616 250 614 c 0
 250 612 257 609 262 609 c 0
 264 609 268 611 272 613 c 1
 278 618 279 618 284 616 c 0
 293 612 316 612 316 616 c 0
 316 617 319 621 323 625 c 0
 328 631 330 634 329 635 c 0
 326 645 326 645 327 647 c 0
 336 658 348 652 344 640 c 0
 343 637 342 633 342 630 c 0
 342 627 341 623 341 621 c 0
 338 611 362 605 375 613 c 0
 382 617 382 617 378 624 c 0
 376 627 375 631 375 633 c 0
 375 636 374 640 374 643 c 0
 372 653 375 658 383 658 c 0
 387 658 388 658 388 662 c 0
 388 667 384 671 379 671 c 0
 376 671 372 671 370 672 c 0
 364 674 360 673 352 667 c 0
 344 660 341 659 333 662 c 0
 321 667 315 663 315 653 c 0
 315 641 308 641 305 653 c 0
 302 662 301 662 294 663 c 0
 291 663 286 665 283 667 c 0
 280 669 276 671 275 671 c 0
 273 671 269 672 266 673 c 0
 259 676 258 677 247 675 c 0
 233 672 233 672 228 661 c 0
41 555 m 0
 42 550 42 549 38 542 c 0
 32 530 34 518 43 518 c 0
 44 518 47 515 51 512 c 0
 55 508 59 505 59 505 c 2
 60 505 62 504 63 503 c 0
 66 500 63 499 54 500 c 0
 34 503 31 491 35 397 c 0
 35 390 44 389 47 395 c 0
 49 399 49 400 46 407 c 0
 43 415 42 415 49 425 c 0
 50 428 50 429 48 432 c 0
 44 437 44 440 50 445 c 0
 54 449 56 455 53 457 c 0
 46 462 57 476 68 476 c 0
 73 476 77 477 82 480 c 0
 91 486 94 486 98 479 c 0
 100 476 101 475 104 475 c 0
 114 475 115 480 108 495 c 0
 105 501 102 507 102 509 c 0
 102 518 95 525 89 522 c 0
 69 511 42 530 55 546 c 0
 61 553 73 557 73 552 c 0
 73 545 82 540 83 547 c 0
 84 551 82 554 77 555 c 0
 72 556 72 556 73 565 c 0
 74 574 74 574 72 571 c 0
 69 566 58 567 51 571 c 1
 47 575 44 575 41 571 c 0
 39 568 38 564 41 555 c 0
67 452 m 0
 69 450 71 447 72 445 c 0
 73 437 77 435 85 439 c 0
 89 441 90 441 95 439 c 0
 102 436 104 436 107 439 c 0
 115 446 111 453 102 451 c 0
 98 451 94 451 91 453 c 0
 88 454 83 455 81 455 c 0
 78 455 74 456 72 458 c 0
 69 461 68 461 65 460 c 0
 62 458 63 455 67 452 c 0
334 375 m 0
 327 380 314 381 310 376 c 1
 301 370 l 2
 298 369 295 367 294 365 c 0
 291 362 284 361 278 363 c 0
 274 364 275 353 279 351 c 0
 281 351 286 347 289 344 c 0
 293 339 296 337 299 337 c 0
 303 337 304 337 306 333 c 0
 307 331 310 328 313 327 c 0
 316 326 321 322 324 319 c 0
 333 310 342 309 350 315 c 0
 355 319 356 319 362 313 c 0
 370 305 380 309 377 319 c 0
 376 323 378 327 383 332 c 0
 387 336 387 336 383 344 c 0
 381 349 379 353 379 354 c 0
 379 355 378 357 376 360 c 0
 374 362 371 366 370 370 c 0
 364 382 358 385 349 377 c 0
 342 372 339 371 334 375 c 0
36 334 m 0
 39 328 39 326 38 320 c 0
 37 310 45 301 51 307 c 0
 53 309 54 311 54 315 c 0
 54 317 55 322 56 324 c 0
 58 328 57 329 53 336 c 0
 50 340 47 345 47 346 c 0
 47 352 40 357 35 353 c 0
 31 350 31 343 36 334 c 0
240 348 m 1
 242 345 258 340 263 340 c 0
 276 340 276 329 263 324 c 0
 255 320 259 316 270 314 c 0
 288 312 291 326 276 343 c 0
 272 348 270 349 267 350 c 0
 264 350 259 351 256 353 c 0
 248 356 248 356 244 354 c 0
 240 352 237 349 240 348 c 1
180 319 m 0
 184 315 185 316 194 323 c 0
 198 327 203 331 205 331 c 0
 216 333 216 341 206 347 c 0
 199 352 195 352 191 350 c 0
 184 346 176 323 180 319 c 0
39 293 m 1
 33 288 32 284 36 277 c 0
 37 274 38 271 37 265 c 0
 35 252 42 246 49 254 c 0
 56 262 58 262 60 255 c 0
 61 252 65 247 68 244 c 0
 81 232 73 221 55 227 c 0
 49 229 49 230 47 243 c 0
 45 253 36 238 36 225 c 0
 36 207 44 201 54 211 c 0
 57 213 60 216 61 216 c 0
 66 216 70 212 72 208 c 0
 73 205 76 202 78 200 c 0
 83 195 81 192 74 188 c 0
 70 186 66 183 64 181 c 0
 59 173 54 176 52 186 c 0
 50 197 47 199 41 193 c 0
 36 188 35 178 38 167 c 0
 41 158 40 147 36 131 c 0
 34 124 35 119 37 115 c 0
 41 108 43 90 42 86 c 0
 40 81 45 63 48 61 c 0
 50 59 49 51 45 48 c 0
 41 46 41 42 44 36 c 0
 45 34 46 29 46 22 c 0
 46 8 51 3 61 8 c 0
 65 10 71 9 74 6 c 0
 81 -2 89 0 92 9 c 0
 94 18 95 19 101 18 c 0
 108 16 111 20 110 32 c 0
 110 37 111 44 111 47 c 0
 112 52 112 52 105 58 c 0
 98 65 98 65 108 66 c 0
 118 68 119 76 110 88 c 1
 103 99 102 103 106 109 c 0
 109 112 109 114 108 118 c 0
 107 124 107 128 108 141 c 0
 109 149 109 151 107 153 c 0
 94 163 93 167 98 181 c 0
 101 189 101 192 98 197 c 0
 96 200 96 201 101 205 c 0
 107 210 107 210 105 216 c 0
 99 232 100 236 109 247 c 0
 115 255 107 265 100 258 c 0
 95 253 74 253 73 257 c 0
 72 263 74 273 78 280 c 0
 83 288 83 290 81 292 c 0
 76 297 65 291 64 282 c 0
 63 274 59 277 59 287 c 0
 58 299 51 305 46 300 c 0
 45 299 41 296 39 293 c 1
EndSplineSet
EndChar

StartChar: uni0047
Encoding: 71 71 7
Width: 703
Flags: W
LayerCount: 2
Fore
SplineSet
345 659 m 0
 339 647 331 645 322 654 c 0
 315 661 315 661 301 659 c 0
 294 659 291 657 288 655 c 0
 283 650 279 648 275 648 c 0
 271 648 269 644 271 639 c 0
 272 637 272 633 272 630 c 0
 272 619 278 618 296 626 c 0
 303 629 309 631 311 631 c 0
 312 631 314 633 316 635 c 0
 323 643 326 645 331 642 c 0
 342 634 354 632 362 636 c 0
 366 638 372 640 375 640 c 0
 379 640 381 641 386 645 c 0
 393 651 393 651 399 645 c 0
 403 640 404 640 407 641 c 0
 413 645 411 653 403 655 c 0
 400 656 397 659 396 661 c 0
 387 673 369 677 355 669 c 0
 350 666 347 663 345 659 c 0
194 627 m 0
 194 623 186 617 179 617 c 0
 174 617 172 616 166 611 c 0
 150 598 144 590 139 578 c 0
 138 574 134 568 131 564 c 0
 126 559 125 558 126 555 c 0
 130 541 130 541 115 532 c 0
 106 526 105 521 111 515 c 0
 115 510 121 491 119 486 c 0
 117 481 110 485 104 494 c 1
 100 498 85 498 80 493 c 0
 76 488 75 463 79 450 c 0
 83 437 83 438 75 430 c 0
 70 426 68 422 67 418 c 0
 61 395 61 393 66 390 c 0
 70 388 71 386 68 381 c 0
 65 375 65 375 68 371 c 0
 78 356 76 350 63 350 c 0
 53 350 50 348 50 344 c 0
 50 340 51 338 58 333 c 0
 61 331 62 330 60 326 c 0
 57 319 58 316 62 312 c 0
 68 306 69 304 65 297 c 0
 57 285 62 269 75 264 c 0
 85 260 85 255 75 251 c 0
 65 247 66 240 77 225 c 0
 81 220 86 212 88 206 c 1
 91 201 94 195 95 193 c 1
 98 191 97 190 95 186 c 1
 90 180 99 161 111 153 c 0
 113 152 114 150 114 149 c 0
 114 145 122 139 128 138 c 0
 138 136 139 136 140 133 c 0
 141 132 140 128 139 125 c 0
 135 115 150 99 166 94 c 0
 175 92 177 87 173 82 c 0
 168 75 170 71 187 61 c 0
 193 57 201 52 205 49 c 0
 220 39 225 37 233 38 c 0
 240 39 240 39 248 31 c 0
 259 20 272 13 277 15 c 0
 284 18 288 17 292 13 c 1
 294 9 296 8 302 8 c 0
 306 8 311 7 314 6 c 0
 320 4 323 4 332 7 c 0
 342 10 346 9 355 1 c 0
 364 -8 363 -8 370 -5 c 0
 373 -4 378 -3 381 -2 c 1
 385 -2 389 0 392 1 c 0
 395 3 398 3 404 2 c 0
 408 2 414 2 416 3 c 1
 428 3 l 1
 434 2 436 2 441 5 c 0
 447 8 447 8 453 3 c 1
 459 -4 466 -5 475 -3 c 0
 479 -2 486 0 492 1 c 0
 507 3 520 7 525 10 c 0
 529 13 534 13 539 10 c 0
 545 6 554 6 564 10 c 0
 568 11 574 13 577 14 c 0
 581 15 586 17 588 19 c 0
 598 26 612 31 617 30 c 0
 628 26 639 32 639 41 c 0
 639 43 641 47 643 51 c 0
 646 58 646 62 642 63 c 0
 640 64 639 66 639 69 c 0
 638 74 633 78 629 78 c 0
 623 78 631 96 637 99 c 0
 638 99 639 100 639 102 c 0
 639 104 641 106 645 107 c 0
 653 111 654 115 652 131 c 0
 651 137 651 144 651 147 c 0
 654 167 639 161 636 140 c 0
 634 129 619 123 605 128 c 0
 599 130 595 140 598 146 c 0
 599 147 601 152 603 156 c 0
 606 164 606 164 609 159 c 0
 610 156 612 154 613 155 c 1
 613 155 614 156 613 157 c 1
 613 157 613 158 614 159 c 0
 615 159 615 159 615 157 c 0
 615 156 616 153 618 151 c 0
 621 147 625 151 625 158 c 0
 625 160 626 163 627 164 c 0
 629 165 626 173 622 176 c 0
 615 182 621 191 634 198 c 0
 657 209 661 228 641 230 c 0
 628 231 630 238 645 247 c 0
 656 254 655 265 643 271 c 0
 636 274 632 279 632 284 c 0
 632 285 635 288 639 291 c 0
 644 294 646 297 647 300 c 0
 647 302 648 306 648 308 c 0
 649 312 648 313 643 320 c 1
 633 330 633 330 626 323 c 0
 619 317 617 317 611 321 c 0
 608 324 606 325 603 324 c 0
 601 323 595 323 590 322 c 0
 584 321 580 320 576 317 c 0
 569 313 565 313 557 316 c 0
 544 320 522 316 529 310 c 0
 533 307 535 307 540 312 c 0
 546 319 550 318 551 309 c 0
 551 303 551 302 548 302 c 0
 547 302 543 300 541 298 c 0
 532 288 520 291 520 302 c 0
 520 308 520 308 500 318 c 0
 486 324 481 326 478 326 c 1
 476 325 473 324 471 324 c 0
 469 323 465 324 461 326 c 0
 448 332 443 321 444 291 c 1
 446 263 453 252 467 256 c 0
 470 257 476 258 480 258 c 0
 502 258 509 261 510 271 c 1
 510 284 520 290 526 281 c 0
 535 266 571 253 575 264 c 0
 577 269 568 277 560 277 c 0
 549 277 545 281 550 290 c 0
 551 293 552 297 552 299 c 0
 552 310 575 300 587 283 c 0
 594 273 595 272 592 266 c 0
 588 258 588 224 592 217 c 0
 596 208 595 205 586 206 c 1
 576 206 572 200 575 190 c 0
 577 186 577 181 577 173 c 0
 576 163 576 163 582 156 c 1
 590 149 590 147 583 139 c 0
 578 134 577 131 577 121 c 1
 578 116 582 114 586 117 c 0
 591 120 594 119 598 113 c 0
 603 105 607 103 615 105 c 0
 624 107 627 106 627 99 c 0
 627 93 620 88 612 89 c 0
 607 90 607 89 602 82 c 0
 593 67 574 60 561 67 c 0
 550 73 545 73 535 69 c 0
 529 67 525 66 522 67 c 0
 515 68 509 64 509 58 c 0
 509 56 508 52 506 50 c 0
 504 47 503 44 503 40 c 0
 504 19 484 23 482 44 c 0
 480 62 479 63 462 60 c 0
 455 59 448 59 443 60 c 0
 434 62 433 61 428 54 c 0
 422 45 411 46 411 55 c 0
 411 65 400 69 389 63 c 0
 375 55 355 57 339 69 c 0
 337 70 333 71 330 71 c 0
 328 71 323 72 319 73 c 0
 312 74 311 74 306 71 c 0
 297 66 294 66 290 72 c 0
 287 77 285 78 272 82 c 0
 259 86 257 87 255 93 c 0
 252 102 250 105 247 106 c 0
 232 110 231 111 232 117 c 0
 234 129 229 133 216 129 c 1
 201 123 196 126 197 139 c 0
 198 146 198 148 194 154 c 0
 192 158 190 161 190 163 c 0
 190 171 180 177 175 171 c 1
 171 168 168 168 169 171 c 0
 171 180 169 185 160 187 c 0
 153 188 149 193 152 199 c 0
 156 210 156 211 148 210 c 0
 138 208 132 212 130 220 c 0
 128 228 120 234 116 231 c 0
 113 229 114 226 117 219 c 0
 120 214 121 204 119 204 c 0
 104 204 98 226 109 238 c 0
 113 242 118 249 121 253 c 0
 125 260 126 261 130 260 c 0
 139 258 142 266 136 275 c 0
 132 281 130 281 125 276 c 0
 121 271 121 271 118 274 c 0
 113 281 116 288 125 288 c 0
 133 288 135 292 132 308 c 1
 130 325 128 328 122 324 c 0
 118 321 118 321 115 324 c 0
 106 332 108 342 119 342 c 0
 129 342 130 350 120 351 c 0
 118 351 114 352 110 352 c 0
 104 353 100 349 100 338 c 0
 100 332 95 326 89 326 c 1
 85 327 83 333 87 338 c 0
 90 342 90 347 87 351 c 0
 81 358 88 367 98 366 c 0
 101 365 104 366 110 371 c 0
 114 374 119 377 121 377 c 0
 129 377 132 394 125 404 c 0
 115 420 118 439 131 434 c 0
 136 433 139 434 139 439 c 0
 139 444 135 447 128 447 c 0
 111 447 100 469 116 470 c 0
 122 471 123 472 125 476 c 0
 127 479 129 480 131 480 c 0
 140 480 147 484 150 490 c 0
 151 494 153 496 157 498 c 0
 164 501 168 507 170 515 c 0
 172 525 175 527 181 528 c 0
 190 530 193 533 190 540 c 0
 188 545 188 547 190 552 c 0
 193 562 184 567 173 562 c 0
 156 554 150 576 167 585 c 0
 170 587 173 589 174 590 c 0
 178 595 187 589 197 575 c 0
 205 564 228 573 228 587 c 0
 228 595 233 599 242 598 c 0
 254 597 267 603 263 608 c 0
 260 611 257 615 256 619 c 0
 252 629 240 632 230 626 c 0
 220 621 215 622 209 629 c 0
 203 636 199 637 196 632 c 0
 195 631 194 629 194 627 c 0
599 593 m 0
 606 594 609 593 615 590 c 0
 628 584 636 587 634 597 c 0
 633 606 618 616 610 613 c 0
 604 611 600 612 594 615 c 1
 589 619 566 621 559 619 c 0
 547 615 583 591 599 593 c 0
EndSplineSet
EndChar

StartChar: uni0048
Encoding: 72 72 8
Width: 666
Flags: W
LayerCount: 2
Fore
SplineSet
548 670 m 0
 548 665 547 659 544 654 c 0
 540 644 541 632 547 621 c 0
 550 615 550 611 547 607 c 0
 542 599 538 570 542 561 c 0
 546 554 546 551 544 532 c 0
 543 522 542 518 538 512 c 0
 533 503 533 500 539 485 c 0
 541 481 543 473 544 468 c 0
 545 462 546 459 548 457 c 0
 552 454 552 454 550 450 c 0
 545 442 546 432 550 428 c 0
 552 426 558 421 562 417 c 0
 579 400 593 402 584 419 c 0
 580 427 581 430 586 433 c 0
 594 437 597 445 597 462 c 0
 597 472 602 478 609 476 c 0
 614 475 616 476 616 481 c 0
 616 483 617 487 618 491 c 0
 620 499 619 505 615 506 c 0
 611 507 607 504 607 501 c 0
 607 489 598 488 596 500 c 0
 595 503 594 505 590 507 c 0
 579 512 576 523 583 533 c 0
 588 539 588 545 585 552 c 0
 578 568 592 569 600 553 c 0
 603 546 606 546 610 553 c 0
 619 572 618 570 615 573 c 0
 613 575 610 577 608 577 c 0
 605 578 603 580 601 583 c 0
 599 586 597 590 596 592 c 0
 593 597 598 603 607 607 c 0
 614 610 618 614 616 620 c 0
 614 624 611 627 608 625 c 0
 607 625 601 622 595 618 c 1
 582 612 580 609 586 602 c 0
 591 596 591 593 585 590 c 0
 576 585 572 594 572 614 c 1
 573 629 572 628 583 636 c 0
 590 641 588 647 580 647 c 0
 573 647 569 651 571 655 c 0
 572 659 577 660 581 657 c 0
 590 651 592 650 595 650 c 0
 597 650 598 649 598 648 c 0
 598 640 606 635 611 639 c 0
 616 644 615 650 607 655 c 0
 601 658 601 659 602 662 c 0
 602 665 602 667 600 669 c 0
 599 671 596 675 595 678 c 0
 591 685 574 691 562 689 c 0
 552 688 548 682 548 670 c 0
50 637 m 0
 53 627 53 627 51 613 c 1
 46 592 50 587 62 596 c 0
 70 602 71 603 68 613 c 0
 62 634 75 648 84 630 c 0
 85 627 88 623 91 621 c 0
 95 618 95 618 93 610 c 0
 91 598 96 593 103 602 c 0
 104 604 109 608 114 610 c 0
 127 616 130 626 125 644 c 0
 122 653 118 655 109 650 c 0
 102 646 95 647 91 652 c 0
 85 660 67 665 57 663 c 1
 48 660 45 652 50 637 c 0
88 549 m 0
 84 550 77 546 77 542 c 0
 77 538 73 534 68 531 c 0
 61 527 58 523 57 513 c 0
 57 508 56 503 55 501 c 0
 51 494 55 486 64 483 c 0
 79 478 80 466 65 466 c 0
 59 466 56 462 55 453 c 0
 54 443 58 440 67 445 c 0
 73 448 74 448 87 446 c 0
 90 445 92 446 95 448 c 0
 100 451 106 451 118 448 c 0
 127 446 132 478 123 481 c 0
 115 483 114 484 117 485 c 0
 127 489 127 494 119 498 c 1
 108 502 107 511 118 514 c 0
 132 518 132 533 118 533 c 0
 112 533 111 536 112 544 c 0
 113 553 111 554 101 554 c 0
 96 554 94 554 93 551 c 0
 92 549 90 549 88 549 c 0
54 409 m 0
 55 405 55 398 54 391 c 0
 53 377 56 372 66 372 c 0
 69 372 73 372 75 371 c 0
 81 369 83 370 87 380 c 0
 88 385 92 393 95 398 c 0
 101 410 100 413 92 407 c 0
 86 403 82 402 78 405 c 0
 72 409 74 415 84 421 c 0
 87 423 86 424 81 425 c 0
 80 425 75 427 70 429 c 0
 61 433 60 433 57 430 c 0
 53 426 52 417 54 409 c 0
392 373 m 0
 392 372 391 370 389 368 c 0
 382 359 399 350 411 356 c 0
 418 360 423 359 425 355 c 0
 427 350 421 344 414 344 c 0
 411 344 409 344 408 341 c 0
 406 338 388 339 381 342 c 0
 375 345 372 345 369 340 c 0
 364 334 361 333 357 335 c 0
 346 340 343 330 352 320 c 0
 368 303 420 300 420 316 c 0
 420 324 437 326 450 320 c 0
 460 315 487 326 478 331 c 0
 477 332 474 336 471 340 c 0
 464 351 458 351 455 341 c 0
 451 329 442 335 441 349 c 0
 439 363 434 368 427 364 c 1
 424 361 423 362 419 366 c 0
 416 369 413 371 411 372 c 0
 409 372 406 374 404 377 c 0
 400 382 395 382 392 378 c 0
 391 376 391 374 392 373 c 0
307 353 m 0
 312 350 313 349 313 345 c 0
 315 333 321 329 326 335 c 1
 330 338 330 338 326 346 c 0
 324 350 322 355 322 359 c 0
 322 371 314 375 304 368 c 0
 296 362 297 358 307 353 c 0
572 356 m 0
 573 350 573 349 570 347 c 0
 563 340 574 328 586 329 c 0
 590 330 590 329 592 325 c 0
 594 319 603 314 607 316 c 0
 610 318 609 344 605 348 c 0
 598 353 593 359 592 363 c 0
 590 370 584 373 576 369 c 1
 571 368 570 364 572 356 c 0
87 351 m 1
 84 341 82 341 73 350 c 0
 66 358 58 360 54 354 c 0
 51 348 50 326 54 320 c 0
 57 315 57 315 53 308 c 0
 48 300 48 299 54 293 c 0
 60 287 60 284 57 279 c 0
 54 272 54 268 60 265 c 0
 66 262 67 252 61 252 c 0
 55 252 53 231 58 223 c 0
 63 216 63 216 57 204 c 0
 52 195 52 194 53 190 c 0
 56 184 55 180 53 172 c 1
 48 160 56 153 65 159 c 0
 67 161 70 163 72 163 c 0
 83 166 86 174 85 197 c 0
 84 204 86 208 90 209 c 0
 97 211 102 193 96 187 c 0
 91 182 93 180 101 182 c 0
 109 184 112 183 114 179 c 0
 117 172 115 168 107 168 c 0
 93 168 83 153 96 151 c 0
 120 146 134 166 118 184 c 0
 111 192 111 196 116 203 c 0
 124 213 118 240 107 244 c 0
 101 246 90 261 88 272 c 0
 88 274 84 279 80 284 c 0
 69 297 66 306 72 313 c 0
 73 315 75 318 75 321 c 0
 75 325 80 331 90 338 c 0
 97 343 107 357 106 359 c 0
 105 362 104 362 96 359 c 1
 90 358 90 357 87 351 c 1
182 318 m 0
 189 314 191 315 194 324 c 0
 196 331 198 333 204 332 c 0
 210 331 213 334 209 339 c 0
 207 342 207 342 200 340 c 1
 194 337 190 338 187 342 c 0
 185 345 179 345 174 343 c 0
 167 340 171 323 182 318 c 0
560 304 m 0
 562 299 562 299 558 295 c 1
 552 291 552 290 558 284 c 0
 562 281 564 280 565 282 c 1
 568 283 571 281 572 276 c 0
 573 274 575 273 576 272 c 0
 581 271 587 265 587 261 c 0
 587 254 584 244 581 241 c 0
 578 238 577 237 577 224 c 0
 577 211 575 199 572 189 c 0
 570 180 562 189 560 204 c 0
 559 213 557 215 552 216 c 0
 549 217 546 230 549 233 c 0
 552 235 558 230 559 225 c 0
 561 217 564 218 569 229 c 0
 578 248 570 256 556 242 c 0
 552 238 548 235 547 234 c 0
 540 233 537 224 541 218 c 0
 542 216 542 214 540 206 c 0
 538 197 538 192 539 160 c 0
 539 134 539 123 538 118 c 0
 536 111 537 110 539 103 c 0
 542 96 542 95 540 91 c 0
 538 87 538 81 541 81 c 0
 543 81 542 75 539 68 c 0
 538 64 538 62 540 58 c 0
 543 51 543 43 538 33 c 0
 535 26 535 25 537 19 c 0
 539 12 539 3 538 -1 c 0
 535 -7 539 -9 553 -9 c 0
 560 -9 570 -10 577 -11 c 0
 591 -12 595 -9 593 0 c 0
 592 8 598 13 606 13 c 0
 617 13 616 21 606 22 c 0
 598 23 593 27 592 35 c 1
 592 61 l 1
 591 72 591 84 591 87 c 0
 590 93 597 97 605 96 c 0
 609 96 610 97 611 98 c 1
 611 102 608 106 606 104 c 0
 604 101 600 102 597 105 c 0
 591 112 594 118 604 118 c 0
 615 118 618 129 612 145 c 0
 610 153 610 153 614 161 c 0
 621 175 617 185 607 176 c 0
 603 172 599 171 597 174 c 0
 596 177 596 202 597 206 c 0
 598 208 599 213 600 218 c 0
 601 226 601 228 607 234 c 0
 616 243 615 244 604 251 c 0
 598 256 602 281 610 289 c 0
 619 297 615 307 605 302 c 0
 602 301 598 301 596 301 c 0
 592 301 589 298 590 294 c 0
 591 290 589 289 583 286 c 0
 574 283 569 289 567 305 c 0
 565 317 562 320 559 313 c 0
 558 311 558 309 560 304 c 0
578 47 m 0
 579 37 576 34 566 34 c 0
 556 34 551 38 553 47 c 0
 554 55 554 54 553 65 c 0
 552 74 552 76 558 77 c 0
 564 79 564 78 570 72 c 0
 576 66 576 65 578 47 c 0
64 126 m 0
 82 126 94 120 94 110 c 0
 94 97 90 94 81 101 c 0
 71 108 63 104 64 93 c 0
 64 86 64 86 58 86 c 0
 50 87 47 82 49 73 c 0
 50 69 51 63 52 59 c 0
 54 41 66 28 83 26 c 0
 92 25 92 24 93 14 c 0
 94 7 99 7 112 13 c 0
 127 21 129 24 122 31 c 1
 118 37 117 43 120 46 c 0
 124 50 123 56 116 60 c 1
 104 69 105 95 118 87 c 0
 121 85 126 95 125 104 c 0
 125 109 120 115 117 113 c 0
 113 110 110 114 111 124 c 0
 111 131 108 133 92 133 c 0
 75 134 74 135 69 142 c 0
 64 150 63 150 59 144 c 1
 52 137 56 126 64 126 c 0
EndSplineSet
EndChar

StartChar: uni0049
Encoding: 73 73 9
Width: 189
Flags: HW
LayerCount: 2
Fore
SplineSet
114.875 652 m 4
 132.875 652 135.875 662 121.875 677 c 4
 115.875 684 114.875 684 109.875 681 c 4
 97.875 673 101.875 652 114.875 652 c 4
55.875 636 m 4
 55.875 628 72.875 625 79.875 632 c 4
 88.875 642 76.875 662 66.875 656 c 4
 64.875 654 55.875 639 55.875 636 c 4
110.875 628 m 4
 111.875 619 107.875 617 94.875 618 c 4
 87.875 619 86.875 619 80.875 615 c 4
 74.875 610 73.875 610 67.875 613 c 4
 59.875 616 55.875 613 57.875 605 c 5
 58.875 591 58.875 532 56.875 526 c 4
 54.875 519 54.875 515 56.875 509 c 4
 58.875 505 58.875 503 56.875 501 c 4
 52.875 495 51.875 493 54.875 487 c 4
 57.875 482 57.875 482 54.875 474 c 4
 49.875 463 51.875 459 63.875 457 c 4
 68.875 457 68.875 453 61.875 445 c 4
 54.875 438 53.875 434 56.875 427 c 4
 58.875 424 58.875 420 57.875 415 c 4
 56.875 406 57.875 405 65.875 405 c 4
 75.875 405 78.875 412 70.875 417 c 5
 64.875 422 66.875 433 74.875 433 c 4
 75.875 433 79.875 435 82.875 437 c 4
 94.875 446 100.875 435 89.875 423 c 5
 84.875 416 84.875 415 85.875 411 c 4
 90.875 400 87.875 393 78.875 393 c 4
 71.875 393 69.875 392 66.875 386 c 4
 64.875 383 62.875 381 62.875 381 c 5
 58.875 381 56.875 376 57.875 372 c 4
 57.875 369 56.875 363 55.875 357 c 4
 51.875 344 51.875 340 55.875 333 c 4
 58.875 328 58.875 328 55.875 321 c 4
 52.875 316 52.875 313 53.875 307 c 4
 53.875 303 53.875 299 52.875 297 c 4
 51.875 295 50.875 285 49.875 271 c 5
 49.875 246 l 6
 49.875 244 49.875 236 50.875 227 c 4
 52.875 208 52.875 209 51.875 197 c 4
 49.875 183 55.875 175 61.875 184 c 5
 61.875 184 65.875 187 70.875 190 c 4
 81.875 197 82.875 200 76.875 204 c 5
 68.875 207 71.875 214 80.875 215 c 4
 88.875 216 91.875 214 91.875 207 c 5
 90.875 203 90.875 201 93.875 199 c 4
 97.875 196 96.875 191 90.875 184 c 4
 80.875 174 74.875 160 75.875 155 c 4
 80.875 142 71.875 137 62.875 147 c 4
 57.875 152 57.875 152 60.875 159 c 4
 62.875 166 61.875 169 57.875 169 c 4
 54.875 169 52.875 164 54.875 157 c 4
 56.875 153 55.875 151 54.875 146 c 4
 51.875 137 56.875 129 62.875 131 c 4
 73.875 135 70.875 109 58.875 100 c 4
 49.875 93 51.875 80 61.875 82 c 4
 64.875 83 73.875 77 74.875 74 c 4
 75.875 66 67.875 62 61.875 67 c 4
 53.875 74 52.875 70 53.875 42 c 5
 53.875 29 l 6
 53.875 24 54.875 20 56.875 16 c 4
 58.875 12 59.875 7 59.875 3 c 4
 59.875 -6 59.875 -6 74.875 -6 c 4
 81.875 -6 90.875 -7 95.875 -8 c 4
 117.875 -10 131.875 4 120.875 17 c 5
 113.875 23 114.875 24 120.875 37 c 5
 124.875 43 126.875 49 125.875 51 c 4
 125.875 52 124.875 54 124.875 56 c 4
 123.875 58 125.875 60 129.875 64 c 4
 136.875 72 136.875 75 127.875 93 c 4
 118.875 109 118.875 113 122.875 120 c 4
 127.875 129 132.875 143 132.875 148 c 5
 133.875 151 133.875 156 134.875 160 c 5
 134.875 166 134.875 169 132.875 175 c 4
 129.875 182 129.875 183 131.875 189 c 4
 133.875 195 133.875 198 132.875 204 c 4
 130.875 212 132.875 238 134.875 244 c 4
 137.875 252 139.875 279 137.875 291 c 4
 136.875 297 136.875 306 136.875 311 c 4
 136.875 318 136.875 320 133.875 323 c 5
 131.875 327 130.875 329 131.875 332 c 4
 131.875 335 132.875 341 132.875 345 c 4
 132.875 350 133.875 357 134.875 360 c 4
 136.875 366 136.875 366 132.875 374 c 4
 127.875 383 127.875 387 132.875 395 c 5
 137.875 401 136.875 402 128.875 402 c 4
 119.875 401 115.875 406 120.875 413 c 4
 122.875 415 124.875 419 126.875 423 c 4
 128.875 426 130.875 432 132.875 436 c 4
 139.875 448 140.875 468 135.875 477 c 4
 131.875 486 131.875 487 134.875 493 c 4
 136.875 497 137.875 513 135.875 520 c 4
 135.875 522 135.875 527 137.875 533 c 4
 139.875 544 138.875 557 135.875 569 c 4
 133.875 575 133.875 578 134.875 582 c 4
 136.875 589 136.875 606 134.875 613 c 4
 133.875 616 132.875 621 133.875 627 c 4
 134.875 641 123.875 647 113.875 638 c 4
 109.875 635 109.875 635 110.875 628 c 4
83.875 529 m 4
 77.875 523 77.875 521 87.875 507 c 4
 98.875 492 98.875 481 87.875 482 c 4
 84.875 482 83.875 483 82.875 489 c 4
 81.875 497 79.875 500 74.875 503 c 4
 69.875 506 69.875 508 72.875 514 c 4
 74.875 519 74.875 520 72.875 525 c 4
 71.875 529 70.875 532 71.875 535 c 4
 72.875 538 73.875 543 73.875 546 c 4
 73.875 557 79.875 558 83.875 548 c 4
 88.875 538 88.875 533 83.875 529 c 4
EndSplineSet
EndChar

StartChar: uni004A
Encoding: 74 74 10
Width: 291
Flags: W
LayerCount: 2
Fore
SplineSet
225 671 m 0
 218 663 215 662 207 664 c 0
 197 667 193 665 186 651 c 0
 183 644 182 643 184 639 c 0
 185 637 185 632 185 629 c 0
 185 624 186 621 189 618 c 1
 192 613 192 613 193 583 c 1
 193 548 193 549 206 555 c 0
 211 558 216 559 216 559 c 1
 218 558 217 549 215 546 c 0
 211 540 209 539 199 539 c 0
 186 539 183 535 180 514 c 0
 179 508 180 507 186 500 c 0
 193 492 194 491 188 488 c 0
 179 483 180 478 190 472 c 0
 197 468 199 465 196 456 c 0
 196 453 195 450 195 450 c 1
 201 445 214 441 216 444 c 0
 226 458 238 454 233 438 c 0
 226 414 235 395 245 414 c 0
 250 424 252 425 255 426 c 0
 268 429 267 469 254 476 c 1
 243 480 233 482 226 480 c 0
 217 477 211 489 217 496 c 0
 222 501 229 499 233 492 c 1
 240 483 248 485 248 498 c 0
 248 506 249 508 253 508 c 0
 258 509 257 514 253 518 c 0
 243 529 244 544 254 540 c 0
 260 538 264 541 264 548 c 0
 264 557 259 563 253 560 c 0
 248 558 240 561 240 566 c 0
 240 570 251 582 253 579 c 0
 259 571 263 594 258 606 c 0
 254 614 255 616 259 623 c 0
 264 630 263 634 257 643 c 0
 251 652 250 658 253 663 c 0
 257 668 256 674 250 679 c 0
 243 684 244 684 236 680 c 0
 233 678 228 674 225 671 c 0
216 614 m 0
 205 605 198 610 200 626 c 0
 201 642 206 649 214 643 c 0
 223 637 224 621 216 614 c 0
206 422 m 0
 201 410 195 408 190 417 c 0
 187 423 183 424 179 420 c 0
 175 416 178 388 182 383 c 0
 185 380 185 379 185 371 c 1
 184 366 184 351 185 338 c 0
 187 314 187 314 183 311 c 0
 180 309 180 308 180 300 c 1
 181 295 181 290 180 285 c 0
 178 279 178 277 180 270 c 0
 183 263 183 261 181 249 c 0
 179 232 180 217 184 208 c 0
 186 203 186 201 185 198 c 0
 181 187 185 167 192 168 c 0
 210 169 217 182 202 185 c 0
 197 187 195 189 195 192 c 0
 195 196 202 195 207 192 c 0
 213 187 219 192 219 202 c 0
 219 207 220 207 224 203 c 0
 226 201 229 200 230 200 c 0
 242 199 233 179 220 174 c 1
 212 172 212 171 212 167 c 0
 212 159 205 156 196 160 c 0
 191 163 191 163 187 160 c 1
 180 152 186 142 199 143 c 0
 209 144 212 142 212 137 c 0
 212 129 207 126 198 128 c 0
 186 132 179 124 185 114 c 0
 189 108 189 107 185 99 c 0
 183 95 181 90 181 88 c 0
 181 85 180 83 177 80 c 0
 171 75 169 70 171 68 c 0
 174 65 189 65 192 67 c 0
 196 71 210 64 210 58 c 0
 210 51 198 47 191 53 c 0
 188 56 188 56 182 53 c 0
 176 50 175 50 169 52 c 0
 162 54 162 54 157 49 c 0
 152 45 151 45 145 46 c 0
 138 47 138 46 136 36 c 0
 134 29 132 26 122 21 c 0
 120 20 121 16 125 7 c 1
 121 1 l 1
 111 -8 131 -19 147 -14 c 0
 157 -11 158 -11 162 -13 c 0
 165 -15 166 -15 168 -14 c 0
 171 -11 170 -8 164 -6 c 0
 155 -3 158 7 171 13 c 0
 180 18 181 18 189 14 c 0
 194 12 199 11 205 11 c 1
 210 10 217 10 220 9 c 0
 228 8 232 11 242 24 c 0
 252 38 251 45 237 50 c 0
 222 55 229 67 244 63 c 0
 253 61 256 63 258 71 c 0
 258 74 260 78 262 79 c 0
 269 86 266 100 258 103 c 0
 247 106 245 123 255 123 c 0
 257 123 260 125 262 127 c 0
 269 134 264 162 255 162 c 0
 245 162 239 179 240 201 c 0
 241 216 240 218 227 220 c 0
 222 220 221 220 217 216 c 0
 212 209 207 212 206 222 c 0
 205 225 204 230 203 232 c 0
 199 241 204 243 214 238 c 1
 223 235 223 235 231 237 c 1
 238 240 239 240 242 237 c 1
 246 235 246 234 245 225 c 0
 245 219 246 219 252 214 c 1
 266 206 271 214 265 233 c 0
 264 238 262 246 262 250 c 0
 262 255 261 259 260 262 c 1
 257 266 257 267 259 271 c 0
 263 281 260 286 255 280 c 0
 253 277 247 271 242 266 c 0
 237 261 233 256 233 255 c 0
 233 252 226 253 222 257 c 0
 219 259 216 260 214 260 c 0
 206 260 205 267 210 277 c 0
 214 286 214 288 210 294 c 1
 207 301 207 304 212 308 c 0
 219 313 226 307 226 294 c 0
 226 283 232 283 244 295 c 0
 250 300 251 301 256 301 c 0
 268 300 269 319 257 333 c 0
 252 338 251 341 256 344 c 0
 265 350 262 369 253 364 c 0
 249 362 242 361 240 363 c 1
 237 364 240 371 244 371 c 0
 250 371 247 376 239 380 c 0
 232 384 231 384 226 382 c 0
 221 379 216 379 216 380 c 0
 216 381 217 387 217 394 c 1
 219 405 219 406 216 412 c 0
 213 417 213 417 215 423 c 0
 219 431 215 436 210 430 c 0
 209 429 207 425 206 422 c 0
31 33 m 0
 35 30 35 29 31 22 c 0
 27 13 28 9 36 5 c 0
 39 4 44 1 46 -1 c 0
 52 -6 57 -7 78 -8 c 1
 107 -11 120 -6 108 3 c 0
 105 5 102 8 100 10 c 0
 98 13 97 13 96 11 c 0
 87 0 83 -1 76 5 c 0
 68 13 72 19 85 17 c 1
 100 16 117 18 117 21 c 0
 117 24 112 28 107 29 c 0
 104 30 101 32 100 33 c 0
 94 38 82 41 78 39 c 0
 72 35 63 35 59 39 c 0
 53 44 52 44 48 39 c 0
 44 34 40 34 40 38 c 0
 40 42 42 44 47 45 c 0
 50 45 50 46 51 52 c 0
 52 59 57 64 62 62 c 1
 75 60 66 72 49 78 c 0
 37 83 36 83 32 80 c 0
 22 73 21 39 31 33 c 0
EndSplineSet
EndChar

StartChar: uni004B
Encoding: 75 75 11
Width: 627
Flags: W
LayerCount: 2
Fore
SplineSet
495 688 m 0
 499 683 497 678 492 678 c 0
 489 678 482 685 479 690 c 0
 473 704 434 703 431 688 c 0
 429 683 427 680 421 677 c 0
 419 677 413 672 409 668 c 0
 404 664 399 661 397 660 c 0
 388 658 381 652 377 646 c 1
 375 641 369 634 360 626 c 0
 345 611 333 597 333 592 c 0
 333 586 330 583 323 580 c 1
 315 578 303 567 298 558 c 0
 296 555 291 550 288 546 c 1
 284 543 280 538 279 535 c 0
 277 532 273 526 269 522 c 0
 260 513 258 509 262 503 c 0
 266 497 264 494 257 497 c 0
 250 499 246 498 240 489 c 0
 237 484 230 476 225 471 c 0
 220 465 216 460 216 459 c 0
 216 458 212 454 208 449 c 0
 204 445 200 440 200 440 c 1
 200 437 186 423 180 420 c 0
 177 418 172 415 171 413 c 0
 169 411 164 405 160 400 c 0
 149 386 149 386 139 392 c 0
 134 396 132 399 128 407 c 0
 120 424 120 424 125 433 c 0
 131 445 131 454 125 461 c 0
 120 466 120 466 125 470 c 0
 134 478 132 497 123 500 c 0
 120 501 117 503 114 506 c 0
 109 511 105 511 100 505 c 0
 89 494 74 496 76 508 c 1
 82 531 75 540 61 531 c 0
 50 524 45 481 54 469 c 0
 57 465 57 461 53 455 c 0
 52 452 51 449 51 448 c 0
 51 447 49 444 48 441 c 0
 44 434 44 432 49 424 c 0
 52 419 52 418 51 411 c 1
 49 405 49 401 51 395 c 0
 52 389 52 383 51 375 c 0
 50 370 50 357 50 346 c 0
 50 336 49 324 48 318 c 0
 46 308 46 308 50 300 c 0
 54 294 55 292 54 288 c 0
 53 280 53 277 56 274 c 0
 60 270 60 268 53 261 c 0
 47 255 46 243 50 229 c 0
 54 217 54 210 53 205 c 0
 49 189 49 187 51 177 c 0
 53 168 53 167 51 160 c 1
 47 151 47 142 50 137 c 0
 52 135 53 131 54 127 c 1
 54 121 55 119 61 113 c 0
 69 106 68 103 59 98 c 0
 48 92 57 81 70 84 c 1
 78 87 85 81 86 69 c 0
 87 61 85 57 80 58 c 0
 77 58 76 58 71 70 c 0
 67 79 65 80 60 76 c 0
 58 74 57 71 56 62 c 0
 55 56 54 49 53 46 c 0
 51 38 52 21 55 16 c 0
 56 13 58 9 58 7 c 0
 58 2 60 0 63 3 c 0
 68 8 78 8 83 2 c 0
 92 -7 123 -2 125 9 c 0
 125 11 127 15 128 18 c 0
 133 28 133 36 129 52 c 0
 127 60 125 67 125 69 c 0
 125 71 124 75 122 79 c 0
 120 85 120 86 122 90 c 0
 125 99 125 100 120 106 c 0
 114 112 111 112 109 107 c 0
 102 93 79 91 79 103 c 0
 79 111 93 119 101 115 c 0
 114 108 133 129 126 144 c 0
 123 152 123 152 126 160 c 0
 129 166 129 167 127 178 c 0
 125 187 125 195 126 215 c 0
 127 240 127 240 121 244 c 0
 115 249 115 253 121 258 c 0
 130 265 128 270 115 277 c 0
 113 278 111 280 110 282 c 0
 109 285 113 285 115 281 c 0
 119 275 127 292 126 301 c 0
 125 304 126 308 127 311 c 0
 134 330 134 337 125 343 c 0
 116 350 115 359 124 360 c 0
 129 360 134 356 137 347 c 0
 139 340 147 334 158 332 c 0
 166 331 171 325 171 318 c 0
 171 312 174 308 185 302 c 0
 188 300 193 295 196 290 c 0
 200 285 203 282 206 282 c 0
 209 281 211 279 214 274 c 0
 217 268 220 265 223 264 c 0
 228 262 232 257 235 251 c 0
 236 249 239 245 242 242 c 0
 245 239 254 231 262 224 c 0
 270 216 276 210 277 210 c 0
 278 210 281 207 283 204 c 0
 286 199 288 197 292 197 c 1
 298 195 303 192 303 189 c 0
 303 179 326 154 338 152 c 0
 345 151 346 150 350 139 c 0
 353 132 356 128 374 111 c 1
 402 82 403 82 414 90 c 0
 417 93 421 95 423 95 c 0
 426 95 428 97 425 99 c 0
 421 103 422 107 428 110 c 0
 436 113 438 109 433 101 c 1
 431 95 433 94 445 95 c 0
 457 96 459 99 454 106 c 1
 449 116 454 122 462 116 c 0
 465 114 467 112 468 112 c 0
 470 112 472 109 472 105 c 0
 472 98 449 78 442 78 c 0
 432 78 430 71 437 62 c 0
 440 59 444 53 446 48 c 0
 449 43 453 38 456 35 c 0
 460 32 464 27 466 23 c 0
 472 9 488 4 492 15 c 0
 494 23 499 25 503 21 c 0
 510 16 508 14 498 12 c 0
 492 11 491 6 495 1 c 0
 497 -3 536 -4 542 -1 c 0
 547 2 552 2 555 -1 c 0
 557 -3 558 -3 564 -2 c 0
 568 -1 573 0 575 -1 c 0
 583 -3 585 4 578 11 c 0
 575 14 573 17 573 19 c 0
 573 25 564 35 561 33 c 0
 561 32 560 29 560 27 c 0
 560 21 558 18 554 18 c 0
 551 18 549 22 549 27 c 0
 549 29 547 33 543 37 c 0
 538 43 538 44 538 50 c 0
 538 58 535 62 527 67 c 0
 519 72 510 80 508 84 c 0
 507 86 504 90 501 94 c 0
 498 97 495 102 493 106 c 0
 491 109 488 113 486 114 c 0
 485 115 480 119 477 124 c 0
 470 134 462 139 454 139 c 0
 451 139 447 140 446 141 c 0
 444 142 441 143 439 143 c 0
 434 144 432 147 433 154 c 0
 434 159 434 160 431 162 c 0
 430 163 427 167 426 170 c 0
 423 175 420 177 418 173 c 0
 417 170 410 170 408 172 c 0
 408 173 409 175 411 177 c 0
 418 182 413 191 394 205 c 0
 390 207 382 215 376 221 c 0
 367 230 362 234 358 235 c 0
 352 237 349 239 346 246 c 0
 341 256 321 246 321 233 c 0
 321 226 321 225 316 223 c 0
 305 218 300 226 310 235 c 0
 318 243 317 252 306 252 c 0
 301 252 300 251 297 248 c 0
 292 241 282 244 282 252 c 0
 282 257 284 259 289 258 c 0
 292 258 294 258 297 262 c 0
 300 265 304 268 305 269 c 0
 314 276 295 306 282 307 c 0
 279 307 269 317 268 321 c 0
 267 327 260 337 252 342 c 0
 247 346 245 348 244 351 c 0
 244 354 241 359 237 362 c 0
 231 368 231 369 232 374 c 0
 233 381 229 385 221 388 c 0
 210 391 203 402 213 402 c 0
 222 402 240 413 242 421 c 0
 243 427 247 429 253 428 c 0
 262 425 262 422 256 416 c 0
 250 411 245 400 247 396 c 0
 248 395 259 401 267 407 c 0
 269 408 271 411 271 413 c 0
 272 417 275 420 294 439 c 0
 314 458 316 462 308 470 c 0
 298 479 310 486 328 481 c 0
 333 480 335 480 338 482 c 0
 344 485 375 520 375 524 c 0
 375 525 381 530 387 537 c 0
 404 554 405 556 400 572 c 0
 398 580 399 582 408 586 c 0
 416 590 422 595 422 599 c 0
 422 606 425 608 431 603 c 0
 438 598 448 602 448 611 c 0
 448 614 447 615 443 615 c 0
 432 615 427 626 437 628 c 0
 440 628 443 627 447 624 c 0
 457 617 466 625 482 651 c 0
 484 654 488 657 492 659 c 0
 505 665 516 680 515 688 c 0
 514 696 502 703 496 699 c 0
 492 697 492 692 495 688 c 0
267 465 m 0
 264 464 257 462 251 460 c 0
 229 454 230 466 252 475 c 0
 259 478 268 482 272 484 c 0
 282 489 282 489 284 487 c 0
 289 481 278 467 267 465 c 0
240 341 m 1
 244 339 244 339 236 331 c 0
 228 322 227 320 230 313 c 0
 233 305 224 301 217 306 c 0
 215 308 213 309 211 310 c 0
 208 311 208 312 212 317 c 0
 215 321 215 321 212 326 c 0
 204 336 202 340 205 344 c 0
 209 352 218 354 225 349 c 0
 229 345 235 342 240 341 c 1
86 279 m 1
 71 281 69 287 82 294 c 0
 85 296 90 300 93 303 c 0
 99 309 106 310 111 306 c 0
 122 296 105 278 86 279 c 1
413 136 m 0
 415 134 417 134 421 136 c 0
 429 139 435 130 429 124 c 0
 426 121 423 121 417 122 c 0
 389 128 381 134 390 143 c 0
 395 148 397 148 405 142 c 0
 408 140 412 137 413 136 c 0
503 47 m 0
 499 49 497 47 497 40 c 0
 497 24 478 32 475 50 c 0
 473 62 474 63 479 62 c 0
 481 62 484 62 487 64 c 0
 493 67 499 66 507 61 c 0
 518 53 515 41 503 47 c 0
83 697 m 0
 82 696 77 695 73 695 c 0
 67 694 63 693 61 692 c 0
 49 681 51 655 64 657 c 0
 67 658 69 657 71 656 c 0
 76 652 74 650 67 649 c 0
 54 647 46 632 53 620 c 0
 56 613 56 611 56 603 c 1
 54 593 57 588 60 593 c 1
 63 596 66 596 69 593 c 0
 70 591 72 591 76 592 c 1
 81 592 83 592 86 590 c 0
 89 588 90 588 94 589 c 0
 101 592 108 586 108 577 c 0
 108 563 80 559 78 573 c 0
 76 581 73 584 67 583 c 0
 63 582 61 583 60 584 c 0
 59 586 52 580 52 576 c 0
 51 562 52 550 53 548 c 0
 58 542 72 545 78 552 c 0
 81 556 81 556 84 551 c 0
 87 546 97 542 102 544 c 0
 104 544 107 544 108 543 c 0
 113 540 120 539 123 540 c 0
 131 545 131 578 124 589 c 0
 118 597 118 600 124 603 c 0
 132 607 132 606 132 649 c 0
 132 685 130 687 103 696 c 0
 90 700 91 700 88 699 c 0
 86 699 84 698 83 697 c 0
EndSplineSet
EndChar

StartChar: uni004C
Encoding: 76 76 12
Width: 475
Flags: W
LayerCount: 2
Fore
SplineSet
53 679 m 0
 53 675 52 673 49 669 c 0
 36 657 35 626 46 610 c 0
 50 604 49 591 44 581 c 0
 42 579 42 577 44 571 c 1
 45 564 45 562 42 555 c 1
 40 547 39 546 41 541 c 0
 44 533 45 520 43 513 c 0
 34 490 34 487 39 477 c 0
 42 471 42 470 41 466 c 0
 39 459 39 456 45 451 c 0
 52 445 52 443 47 437 c 0
 44 433 43 430 41 417 c 0
 38 393 38 388 43 380 c 0
 49 371 49 367 44 362 c 0
 38 357 37 353 42 345 c 0
 47 336 47 335 42 325 c 0
 38 318 38 316 39 309 c 0
 40 295 41 247 39 240 c 0
 38 233 38 233 45 220 c 0
 48 215 48 215 44 207 c 0
 40 199 40 199 43 192 c 0
 45 185 45 183 44 170 c 0
 42 156 41 150 37 125 c 0
 36 119 37 85 40 64 c 1
 41 49 41 46 40 29 c 0
 39 7 49 -3 67 6 c 0
 77 10 89 11 95 8 c 0
 97 7 102 6 107 6 c 0
 112 6 115 5 117 3 c 0
 121 -1 121 -1 129 3 c 1
 143 7 151 8 158 4 c 0
 163 2 164 1 167 3 c 0
 170 5 175 4 182 1 c 0
 186 0 188 0 195 1 c 0
 200 2 205 2 210 1 c 0
 215 1 221 1 229 2 c 0
 243 3 296 4 302 3 c 0
 304 2 308 2 312 4 c 1
 317 5 326 6 350 6 c 1
 367 5 382 5 385 6 c 0
 388 6 393 4 398 2 c 0
 409 -3 413 -2 428 5 c 0
 442 11 442 12 436 24 c 0
 433 31 432 33 432 46 c 0
 432 68 430 72 415 69 c 0
 410 67 403 67 389 69 c 1
 370 70 370 70 360 66 c 1
 349 63 348 63 340 64 c 0
 334 65 327 66 320 65 c 0
 311 64 308 65 305 66 c 0
 295 72 250 73 239 66 c 0
 231 62 226 62 213 67 c 0
 203 70 202 70 198 68 c 0
 193 66 176 66 169 68 c 0
 167 69 160 70 153 70 c 0
 139 70 135 71 127 79 c 0
 124 81 120 83 117 84 c 0
 105 87 105 90 115 101 c 0
 121 109 122 110 118 115 c 0
 114 120 113 120 110 117 c 1
 107 112 107 115 110 127 c 0
 111 134 112 141 112 142 c 0
 111 144 112 148 112 152 c 1
 114 159 114 160 111 163 c 1
 109 167 109 167 111 171 c 0
 113 174 113 177 112 195 c 0
 112 197 113 201 115 205 c 0
 117 211 117 212 115 215 c 0
 113 218 112 222 112 225 c 0
 112 228 111 232 110 233 c 0
 107 237 108 240 112 247 c 0
 116 252 116 252 113 259 c 0
 111 266 112 269 117 269 c 0
 121 269 121 272 118 277 c 0
 113 284 113 286 118 296 c 0
 122 305 122 306 121 313 c 0
 119 323 119 330 122 336 c 0
 127 345 126 350 118 359 c 0
 109 369 108 372 112 379 c 0
 115 384 117 401 117 411 c 0
 117 412 116 421 116 430 c 0
 116 443 115 447 113 449 c 0
 112 451 110 456 110 460 c 0
 109 465 107 470 106 473 c 0
 103 479 104 483 111 489 c 0
 117 494 118 498 114 502 c 0
 108 507 111 515 119 515 c 0
 128 515 129 521 122 533 c 0
 117 541 117 541 120 548 c 0
 124 560 122 564 116 557 c 0
 109 550 97 556 102 565 c 0
 103 567 105 572 105 575 c 0
 106 581 107 582 113 586 c 0
 122 592 124 596 122 604 c 0
 121 608 121 613 121 617 c 0
 121 620 119 626 117 631 c 0
 112 642 112 648 117 654 c 0
 124 662 121 669 112 669 c 0
 108 669 106 670 101 675 c 0
 92 682 90 683 84 682 c 0
 79 682 78 682 75 685 c 0
 67 692 64 693 58 688 c 0
 54 685 53 683 53 679 c 0
89 477 m 1
 90 474 92 472 96 469 c 0
 102 465 102 464 98 461 c 0
 94 458 89 459 88 462 c 0
 87 465 86 465 82 464 c 0
 74 463 69 466 65 473 c 0
 55 488 63 494 80 486 c 0
 87 482 89 481 89 477 c 1
EndSplineSet
EndChar

StartChar: uni004D
Encoding: 77 77 13
Width: 744
Flags: W
LayerCount: 2
Fore
SplineSet
70 647 m 0
 75 640 73 631 66 631 c 0
 61 631 57 626 58 620 c 0
 59 616 58 613 57 610 c 0
 53 602 58 591 62 598 c 0
 70 611 74 611 75 599 c 0
 76 590 73 586 66 587 c 0
 55 588 54 584 54 554 c 1
 55 527 54 528 64 516 c 0
 68 510 68 508 61 505 c 0
 51 500 49 487 57 468 c 0
 60 463 62 455 62 451 c 0
 64 440 70 421 74 418 c 1
 81 410 106 415 117 426 c 0
 123 433 125 434 130 435 c 0
 140 436 143 442 137 446 c 0
 135 447 133 448 131 447 c 0
 123 445 120 453 126 460 c 0
 127 462 130 466 131 469 c 0
 132 472 134 476 136 479 c 0
 141 486 142 493 138 498 c 0
 136 501 137 520 140 530 c 0
 143 541 161 537 165 524 c 0
 167 517 174 507 186 493 c 1
 191 489 197 481 202 476 c 0
 209 467 214 465 217 470 c 1
 220 473 226 472 228 467 c 0
 229 462 227 460 220 461 c 0
 215 462 214 457 218 451 c 0
 222 445 234 429 240 422 c 0
 243 418 249 411 253 405 c 0
 257 400 262 394 264 392 c 0
 266 390 269 386 271 382 c 0
 273 379 280 371 286 364 c 0
 293 357 300 349 303 345 c 0
 310 334 312 334 321 344 c 1
 329 355 335 354 343 342 c 0
 344 340 348 338 353 337 c 0
 370 332 371 331 364 322 c 0
 362 319 359 314 358 310 c 0
 356 306 353 300 350 297 c 0
 344 290 345 287 356 277 c 0
 366 269 370 268 373 275 c 0
 377 282 384 288 389 289 c 0
 401 292 406 298 404 312 c 0
 403 321 405 324 410 322 c 1
 417 321 435 339 436 346 c 0
 436 348 438 351 441 353 c 1
 446 359 447 364 442 365 c 0
 438 366 434 362 435 357 c 0
 436 353 430 350 425 353 c 0
 420 355 420 361 426 363 c 0
 430 365 430 365 429 371 c 0
 428 380 431 383 437 379 c 0
 445 374 449 377 451 386 c 0
 452 394 455 396 460 392 c 0
 470 384 475 393 476 418 c 0
 477 441 469 447 461 429 c 0
 457 421 451 420 444 425 c 0
 433 434 448 457 463 453 c 0
 465 452 470 452 474 452 c 0
 480 451 482 450 485 447 c 0
 489 444 491 443 493 443 c 0
 495 444 498 443 499 442 c 0
 502 439 504 439 505 441 c 0
 505 442 504 443 501 444 c 0
 496 447 494 453 498 456 c 0
 501 459 507 456 509 450 c 0
 510 447 511 446 514 446 c 0
 519 447 521 451 518 456 c 0
 513 463 519 470 526 467 c 0
 541 462 551 492 539 503 c 0
 529 513 531 519 548 527 c 0
 563 534 568 545 564 559 c 0
 561 571 573 583 579 573 c 0
 581 571 581 568 578 561 c 0
 575 553 575 552 578 549 c 0
 579 547 580 544 580 542 c 0
 580 534 586 529 592 533 c 0
 602 539 610 527 606 512 c 0
 605 506 605 505 607 502 c 0
 617 488 618 478 611 465 c 0
 607 458 608 454 614 451 c 0
 616 450 619 447 621 445 c 0
 624 443 627 440 630 440 c 0
 639 437 641 427 633 427 c 0
 629 427 627 426 623 421 c 0
 618 415 617 415 612 415 c 0
 606 416 603 414 603 406 c 0
 603 390 605 368 606 367 c 0
 609 361 617 376 616 386 c 0
 614 397 621 405 631 403 c 0
 636 401 637 394 632 384 c 0
 630 379 627 372 627 368 c 0
 625 358 622 355 616 358 c 0
 607 363 604 359 603 342 c 0
 603 337 602 329 601 324 c 0
 599 318 599 315 601 305 c 0
 603 293 603 285 602 262 c 0
 601 248 601 247 604 240 c 1
 608 234 608 234 605 223 c 0
 601 207 603 195 610 187 c 0
 617 179 617 177 610 173 c 0
 603 169 601 164 603 155 c 0
 604 151 604 145 604 141 c 0
 604 137 604 132 605 129 c 0
 606 125 606 123 605 119 c 0
 599 103 602 62 610 47 c 0
 616 36 618 31 618 24 c 0
 620 7 620 8 632 -3 c 0
 647 -16 660 -16 667 -2 c 0
 669 1 672 6 673 8 c 0
 678 14 677 21 672 23 c 0
 669 24 669 27 671 27 c 0
 679 27 682 38 676 46 c 0
 668 58 668 64 677 72 c 0
 687 81 687 84 687 111 c 0
 687 132 687 133 680 131 c 0
 675 130 675 126 678 117 c 0
 681 108 681 108 678 105 c 0
 671 97 664 108 667 120 c 0
 669 127 669 130 667 139 c 0
 665 154 666 156 676 155 c 0
 687 153 694 215 687 263 c 0
 686 272 686 278 688 287 c 1
 689 297 689 311 688 342 c 0
 687 365 687 386 687 389 c 0
 688 392 687 396 685 400 c 0
 681 409 681 414 686 422 c 0
 689 428 689 431 689 439 c 0
 689 460 689 463 690 471 c 0
 690 476 690 480 689 485 c 1
 687 489 687 494 687 498 c 0
 689 511 685 518 676 518 c 0
 665 518 664 528 674 535 c 0
 683 542 685 553 677 561 c 0
 663 574 665 590 683 599 c 0
 693 603 695 612 690 623 c 0
 687 630 687 632 688 643 c 0
 689 660 689 661 685 665 c 0
 681 669 674 668 658 662 c 1
 641 654 641 654 630 660 c 0
 611 669 595 665 587 650 c 0
 585 645 580 640 577 637 c 0
 574 634 571 630 570 626 c 0
 568 620 567 619 559 614 c 0
 551 610 547 604 546 596 c 0
 544 585 532 569 522 564 c 0
 512 559 486 532 479 519 c 0
 476 515 473 511 470 509 c 0
 461 501 456 493 457 484 c 0
 459 471 456 467 445 465 c 0
 435 463 430 458 420 442 c 0
 417 439 413 434 409 430 c 0
 405 427 401 423 400 420 c 0
 399 418 396 413 393 410 c 0
 391 408 387 403 385 400 c 0
 381 394 380 393 371 393 c 0
 367 393 361 392 356 391 c 0
 347 388 342 391 338 399 c 0
 331 412 326 413 318 404 c 0
 311 397 309 398 307 408 c 1
 306 419 302 423 296 422 c 0
 291 421 288 424 289 429 c 0
 290 434 293 435 298 431 c 0
 307 425 319 431 312 439 c 0
 311 441 310 444 310 444 c 1
 310 447 304 452 298 454 c 0
 281 459 278 476 293 475 c 0
 306 474 307 481 294 493 c 0
 274 513 268 517 261 519 c 0
 257 520 253 522 251 524 c 0
 249 525 244 527 241 527 c 0
 227 530 221 547 235 547 c 0
 238 547 240 547 241 548 c 0
 242 551 238 554 234 554 c 0
 227 554 219 566 216 581 c 0
 215 585 213 590 212 592 c 0
 211 594 208 599 205 603 c 0
 202 609 200 612 195 614 c 0
 192 616 188 618 188 618 c 2
 187 619 185 620 184 620 c 0
 182 620 180 621 179 622 c 0
 178 624 176 624 175 624 c 0
 170 622 169 625 172 631 c 0
 177 644 171 650 161 641 c 0
 155 635 149 636 141 643 c 0
 135 648 138 656 146 658 c 1
 155 662 149 668 139 667 c 0
 133 666 130 667 126 668 c 0
 119 671 115 671 108 668 c 0
 101 664 99 664 94 669 c 0
 88 674 84 674 79 671 c 0
 68 664 64 654 70 647 c 0
651 474 m 1
 651 457 651 457 639 464 c 0
 632 468 630 469 628 468 c 1
 625 464 624 466 625 476 c 0
 626 487 627 487 635 489 c 1
 645 490 646 490 648 489 c 0
 649 488 650 483 651 474 c 1
119 391 m 0
 117 389 114 388 109 388 c 0
 105 388 100 387 97 386 c 0
 89 382 78 379 71 379 c 0
 64 379 59 375 59 366 c 0
 59 356 59 356 70 357 c 0
 76 357 79 357 82 355 c 0
 83 354 89 352 93 351 c 0
 108 347 101 333 85 333 c 0
 69 333 77 314 95 309 c 0
 102 308 104 301 98 296 c 0
 96 294 95 294 87 299 c 0
 72 308 63 305 61 289 c 0
 60 285 59 280 57 277 c 0
 53 268 54 266 65 262 c 0
 71 260 76 259 77 258 c 1
 79 258 82 259 85 262 c 0
 90 266 95 267 99 265 c 0
 123 252 141 256 129 271 c 0
 121 280 122 288 131 293 c 0
 141 299 142 314 137 350 c 0
 135 364 135 364 137 375 c 0
 139 385 139 388 134 393 c 0
 130 396 129 397 124 395 c 0
 123 394 120 392 119 391 c 0
63 169 m 0
 63 166 62 162 61 159 c 0
 60 156 59 152 60 149 c 0
 60 146 61 142 61 139 c 0
 62 133 64 132 71 135 c 0
 76 137 79 143 76 150 c 0
 74 154 75 157 78 154 c 0
 80 152 89 152 91 155 c 0
 95 159 104 157 106 151 c 0
 107 148 103 143 99 143 c 0
 94 143 92 140 93 131 c 0
 95 118 88 111 73 112 c 0
 61 112 56 105 65 99 c 0
 68 97 69 97 74 99 c 0
 82 101 83 101 88 97 c 0
 100 87 88 73 72 79 c 0
 66 81 63 79 63 73 c 0
 63 68 63 67 74 63 c 0
 83 60 86 55 85 48 c 0
 84 39 83 38 77 41 c 0
 74 43 72 43 70 42 c 0
 64 39 69 28 75 30 c 0
 77 31 77 31 77 28 c 1
 75 24 77 20 82 18 c 1
 84 16 89 14 91 13 c 0
 97 9 103 9 113 13 c 0
 127 18 130 23 125 38 c 0
 122 46 122 47 124 52 c 0
 127 60 127 64 123 71 c 0
 119 78 119 80 126 87 c 0
 132 94 132 96 126 98 c 0
 120 101 119 105 125 113 c 0
 131 122 131 124 127 138 c 0
 123 149 123 152 123 164 c 0
 123 180 123 181 111 181 c 0
 106 181 98 182 95 183 c 0
 85 185 79 185 72 182 c 0
 65 179 63 176 63 169 c 0
EndSplineSet
EndChar

StartChar: uni004E
Encoding: 78 78 14
Width: 727
Flags: W
LayerCount: 2
Fore
SplineSet
85 694 m 0
 81 690 81 690 68 692 c 1
 62 694 59 689 60 678 c 0
 60 672 59 668 58 665 c 0
 55 660 55 653 57 652 c 0
 59 650 59 645 56 640 c 1
 54 633 52 608 54 600 c 0
 56 594 56 592 53 585 c 1
 51 577 51 576 53 569 c 0
 54 565 56 558 56 552 c 0
 61 503 61 495 57 485 c 0
 52 470 52 450 57 440 c 0
 62 429 62 426 57 412 c 0
 53 400 53 396 58 392 c 0
 62 388 78 381 84 380 c 0
 96 378 98 369 89 361 c 0
 81 353 79 354 67 366 c 1
 60 375 56 376 52 371 c 0
 49 366 53 287 56 271 c 1
 59 261 59 260 57 253 c 0
 51 238 58 228 72 233 c 0
 75 234 77 234 80 232 c 0
 87 227 95 228 100 233 c 1
 103 238 104 238 110 238 c 0
 117 237 117 237 117 242 c 0
 117 248 119 251 125 257 c 0
 130 262 129 265 121 267 c 0
 118 268 114 270 112 272 c 0
 109 275 107 275 102 270 c 0
 99 266 95 264 92 264 c 0
 89 263 84 262 81 261 c 0
 74 258 70 260 70 265 c 0
 70 269 73 273 79 273 c 0
 85 274 85 279 78 285 c 0
 68 294 77 297 94 290 c 0
 105 286 107 287 110 293 c 0
 111 295 113 298 115 300 c 0
 117 303 120 310 122 318 c 0
 122 320 124 322 125 321 c 1
 127 321 128 323 128 326 c 0
 129 331 127 332 124 329 c 0
 122 327 119 330 118 336 c 0
 117 342 111 346 106 346 c 0
 98 345 96 358 103 366 c 0
 110 373 112 374 117 368 c 0
 124 360 133 360 137 367 c 0
 138 370 136 376 130 382 c 1
 128 386 127 387 129 393 c 0
 132 411 127 417 120 406 c 0
 117 402 114 400 111 399 c 0
 90 394 91 394 86 397 c 0
 75 403 86 427 101 427 c 0
 103 427 106 428 109 431 c 0
 112 435 114 435 122 436 c 0
 135 437 138 444 129 453 c 0
 123 459 119 459 115 454 c 0
 98 434 93 433 84 451 c 0
 77 466 76 473 82 481 c 0
 88 490 91 490 97 484 c 0
 111 469 128 466 127 480 c 0
 126 483 127 487 128 489 c 0
 131 494 130 495 126 494 c 0
 118 492 114 497 115 507 c 1
 115 518 112 520 108 512 c 0
 105 508 104 507 99 506 c 0
 95 505 91 504 89 501 c 0
 82 493 70 498 70 508 c 0
 70 513 71 515 76 516 c 0
 87 519 93 524 93 530 c 0
 93 533 91 534 82 535 c 0
 67 536 84 553 104 557 c 0
 109 558 111 560 109 565 c 0
 106 572 110 577 120 577 c 0
 128 577 126 585 117 591 c 0
 107 598 107 604 117 608 c 0
 120 609 124 611 126 613 c 0
 130 616 131 616 137 615 c 1
 144 615 144 615 149 620 c 0
 156 627 159 627 168 621 c 0
 177 614 174 604 163 601 c 0
 154 599 158 584 167 586 c 0
 171 587 173 586 183 580 c 0
 199 571 201 568 193 560 c 0
 187 555 188 550 194 546 c 0
 207 537 215 521 206 521 c 0
 202 521 191 505 193 502 c 0
 196 497 198 498 207 507 c 0
 217 517 235 520 244 514 c 0
 247 512 250 511 255 512 c 0
 262 513 271 499 269 489 c 0
 268 483 270 481 274 483 c 0
 278 485 283 483 292 476 c 0
 305 467 301 485 287 501 c 0
 283 506 278 513 276 517 c 0
 273 523 265 531 262 531 c 0
 261 531 257 533 252 536 c 0
 246 540 243 542 240 542 c 0
 234 542 233 543 227 553 c 1
 224 560 221 564 216 568 c 0
 208 573 207 577 210 582 c 1
 215 587 211 595 204 595 c 0
 199 595 187 608 187 613 c 0
 187 616 194 615 195 612 c 0
 196 610 197 610 199 611 c 1
 200 613 200 614 198 615 c 2
 196 617 l 1
 195 616 194 618 192 621 c 2
 168 654 l 2
 154 672 145 681 139 686 c 0
 135 689 129 694 126 696 c 0
 119 701 99 703 93 700 c 0
 91 699 88 696 85 694 c 0
593 670 m 0
 592 641 598 632 607 649 c 0
 612 657 615 659 620 659 c 0
 623 659 625 660 626 664 c 0
 629 671 632 672 637 669 c 0
 643 665 646 666 647 670 c 0
 649 678 659 682 662 676 c 0
 665 669 672 670 672 677 c 0
 672 679 670 681 667 683 c 0
 664 685 661 688 660 690 c 0
 656 697 632 701 615 697 c 0
 603 695 593 683 593 670 c 0
637 621 m 0
 634 619 631 617 630 617 c 0
 627 617 609 622 608 623 c 0
 601 630 597 620 597 594 c 2
 597 564 l 2
 597 555 599 554 605 558 c 0
 611 562 619 564 622 563 c 0
 623 563 625 564 626 568 c 0
 629 575 629 577 623 583 c 0
 617 590 616 594 619 598 c 0
 625 606 635 595 633 583 c 0
 632 579 633 578 638 575 c 0
 645 570 645 568 639 562 c 0
 636 559 634 556 634 556 c 2
 634 555 632 554 630 554 c 0
 627 554 625 553 623 550 c 0
 620 545 611 540 606 540 c 0
 604 540 602 539 602 538 c 0
 602 537 600 531 598 526 c 0
 589 504 610 483 630 494 c 0
 636 497 639 497 645 492 c 0
 647 491 648 491 652 495 c 0
 655 498 657 499 661 498 c 0
 672 497 675 503 668 511 c 0
 661 519 661 523 668 530 c 1
 678 538 671 591 661 589 c 0
 659 588 656 588 653 587 c 0
 642 585 638 597 648 603 c 0
 652 606 652 606 656 604 c 0
 661 601 665 602 666 607 c 0
 666 609 660 611 658 609 c 0
 654 606 652 617 656 625 c 0
 657 627 654 628 645 626 c 0
 643 625 639 623 637 621 c 0
642 479 m 0
 641 477 640 477 636 478 c 0
 626 481 624 474 631 459 c 0
 636 448 634 442 622 440 c 0
 612 439 610 457 620 463 c 1
 624 467 625 471 622 473 c 1
 620 473 617 476 614 478 c 0
 603 485 596 481 595 466 c 0
 594 454 597 413 600 408 c 1
 603 400 602 395 597 385 c 0
 593 377 593 377 595 367 c 0
 597 360 597 355 597 348 c 0
 595 325 594 315 596 309 c 0
 597 304 597 301 596 296 c 0
 595 292 595 287 596 280 c 0
 598 272 598 269 596 261 c 0
 593 252 593 249 597 234 c 0
 600 220 605 217 613 223 c 0
 616 225 618 226 625 225 c 0
 642 223 645 209 629 207 c 0
 620 206 621 193 631 193 c 0
 639 193 632 182 620 173 c 1
 607 165 607 150 619 155 c 0
 625 158 628 157 630 152 c 0
 632 145 629 142 622 143 c 0
 619 144 618 144 617 141 c 0
 615 136 617 133 628 123 c 1
 638 112 640 109 635 105 c 0
 631 101 627 102 621 107 c 0
 615 113 614 113 603 107 c 0
 594 103 594 103 593 96 c 0
 593 89 591 87 587 90 c 0
 585 91 584 91 582 89 c 0
 577 84 568 90 573 96 c 0
 575 97 577 101 578 104 c 0
 580 110 583 113 588 116 c 0
 600 121 599 127 588 132 c 0
 577 136 576 135 576 123 c 0
 576 110 564 106 560 117 c 1
 559 123 556 124 539 121 c 1
 527 120 518 128 519 138 c 0
 520 144 520 146 517 150 c 0
 512 157 514 163 523 166 c 0
 525 166 526 168 527 171 c 0
 527 173 528 175 528 176 c 2
 528 176 531 178 534 178 c 0
 544 181 548 187 542 191 c 0
 539 194 537 195 535 194 c 0
 534 193 531 193 528 192 c 0
 526 191 523 189 521 184 c 0
 516 175 513 175 507 185 c 0
 501 194 501 199 506 203 c 0
 511 208 510 212 504 213 c 0
 501 213 498 214 497 215 c 0
 493 218 486 218 483 215 c 0
 473 208 459 215 461 227 c 0
 462 233 461 234 455 243 c 0
 444 260 445 263 463 264 c 0
 480 264 481 265 474 277 c 0
 470 283 465 287 461 287 c 0
 460 287 456 289 453 292 c 0
 439 304 425 300 427 286 c 0
 429 270 419 267 400 278 c 0
 388 284 388 284 388 292 c 0
 388 299 388 300 382 306 c 0
 375 313 375 315 379 319 c 0
 384 325 395 320 401 310 c 0
 407 299 424 297 433 307 c 0
 434 308 438 311 440 312 c 0
 449 315 440 331 431 328 c 0
 421 325 415 329 418 337 c 0
 420 343 420 344 409 346 c 0
 403 348 401 348 397 347 c 0
 391 345 387 346 385 351 c 0
 383 356 384 360 389 360 c 0
 405 360 396 377 379 379 c 0
 368 381 363 385 366 389 c 0
 370 396 367 404 358 409 c 0
 350 413 346 419 348 423 c 0
 350 427 335 442 325 447 c 0
 318 450 316 453 316 460 c 0
 316 468 312 471 303 471 c 1
 299 472 296 471 296 470 c 2
 296 470 292 467 287 464 c 0
 278 460 275 456 278 451 c 1
 281 449 285 449 291 452 c 0
 299 456 300 456 308 450 c 0
 322 441 322 430 309 430 c 0
 306 430 301 428 296 426 c 0
 282 418 268 420 268 429 c 0
 268 447 242 477 235 468 c 0
 231 463 231 462 238 455 c 0
 244 449 245 449 245 440 c 0
 245 432 245 431 249 428 c 0
 253 425 255 422 257 416 c 0
 258 411 261 406 267 400 c 0
 271 395 277 388 280 384 c 0
 283 380 289 374 293 371 c 0
 299 366 302 362 305 357 c 0
 308 351 311 347 319 341 c 0
 326 335 329 331 334 323 c 0
 339 314 341 312 347 309 c 0
 352 306 354 304 356 299 c 0
 359 292 364 287 371 283 c 0
 374 281 378 277 380 273 c 1
 383 270 387 265 390 262 c 0
 395 258 396 257 396 251 c 0
 397 243 403 236 412 235 c 0
 418 234 419 231 419 223 c 0
 419 215 424 210 434 206 c 0
 443 202 450 192 450 182 c 0
 450 181 453 179 456 176 c 0
 459 174 463 170 464 167 c 0
 465 165 469 160 472 157 c 0
 475 153 481 145 485 138 c 0
 491 128 494 125 499 123 c 0
 503 121 508 118 510 116 c 0
 512 114 515 112 517 111 c 0
 519 111 523 107 527 104 c 0
 531 100 536 96 538 95 c 0
 544 92 547 87 547 81 c 0
 547 69 554 55 561 54 c 0
 563 54 566 51 570 43 c 0
 577 29 581 26 591 22 c 0
 609 16 609 16 622 20 c 0
 629 23 638 24 644 25 c 0
 661 26 665 29 661 41 c 0
 658 47 658 48 662 51 c 1
 666 56 665 60 658 65 c 1
 650 69 649 72 654 78 c 0
 658 84 658 87 654 97 c 0
 649 107 649 113 654 113 c 0
 658 113 659 114 661 118 c 0
 664 124 663 124 656 135 c 0
 654 138 652 143 651 146 c 1
 651 150 651 150 652 147 c 0
 654 143 656 143 660 148 c 0
 662 150 665 151 667 151 c 0
 671 151 673 155 673 162 c 0
 673 168 670 168 667 163 c 0
 663 154 651 167 655 177 c 0
 655 179 659 184 662 187 c 0
 670 196 670 197 665 202 c 0
 659 207 659 220 664 220 c 0
 672 220 679 261 675 276 c 0
 673 281 673 286 673 325 c 1
 674 344 669 355 664 348 c 0
 661 344 656 356 659 362 c 0
 660 365 661 365 666 365 c 1
 675 363 679 374 672 383 c 0
 669 388 669 388 672 392 c 0
 678 399 676 455 670 465 c 0
 668 469 666 474 666 475 c 0
 666 481 650 488 647 485 c 0
 645 483 643 481 642 479 c 0
368 350 m 0
 366 348 364 345 362 341 c 0
 358 333 350 334 347 343 c 0
 345 346 344 351 343 353 c 0
 341 359 343 363 349 362 c 0
 352 361 354 362 356 365 c 1
 360 368 366 368 370 364 c 0
 372 361 371 353 368 350 c 0
117 231 m 0
 117 227 111 225 108 227 c 0
 101 230 92 222 92 211 c 0
 92 210 90 208 88 206 c 0
 85 202 84 196 86 192 c 0
 87 190 95 191 101 193 c 0
 104 195 105 195 108 192 c 0
 123 181 132 187 130 206 c 0
 129 212 130 214 133 220 c 0
 139 231 130 241 120 235 c 0
 118 234 117 232 117 231 c 0
61 163 m 0
 61 155 59 144 57 139 c 0
 49 115 53 99 66 99 c 1
 78 98 83 92 77 85 c 1
 76 82 75 82 72 84 c 0
 57 90 53 83 54 51 c 0
 54 45 54 37 53 33 c 0
 51 22 53 12 59 7 c 1
 63 2 65 2 88 5 c 0
 93 6 95 5 102 2 c 0
 120 -8 138 9 130 29 c 0
 129 32 128 35 127 37 c 0
 127 38 128 42 130 46 c 0
 133 54 133 54 130 57 c 0
 123 67 119 90 123 95 c 0
 127 99 126 104 118 124 c 0
 115 134 120 137 125 127 c 0
 128 119 140 120 140 128 c 0
 140 134 132 147 128 149 c 0
 125 150 124 152 123 157 c 0
 121 166 107 176 97 175 c 0
 91 174 89 174 82 178 c 0
 74 182 64 183 63 180 c 0
 63 179 62 172 61 163 c 0
EndSplineSet
EndChar

StartChar: uni004F
Encoding: 79 79 15
Width: 840
Flags: W
LayerCount: 2
Fore
SplineSet
395 688 m 0
 393 687 389 686 384 686 c 0
 376 686 373 684 375 677 c 0
 376 670 373 667 366 668 c 0
 361 668 361 669 360 673 c 0
 359 680 357 681 352 679 c 0
 346 676 340 680 340 687 c 0
 340 694 333 696 326 690 c 0
 323 688 323 682 325 681 c 0
 331 678 325 673 319 676 c 0
 311 680 279 678 276 673 c 1
 276 671 275 667 276 664 c 1
 276 656 273 650 268 649 c 0
 265 649 263 647 261 642 c 0
 260 639 252 639 249 643 c 0
 241 651 230 649 230 640 c 0
 230 637 228 635 226 637 c 0
 220 642 213 640 207 631 c 0
 205 628 202 623 200 621 c 0
 197 618 197 618 202 612 c 0
 204 609 207 604 207 601 c 0
 209 595 219 587 225 587 c 0
 228 587 230 593 232 602 c 0
 234 612 251 620 261 614 c 0
 268 610 275 613 272 619 c 0
 269 624 272 640 276 641 c 0
 278 641 280 640 281 637 c 0
 284 632 286 632 293 636 c 0
 312 649 315 628 296 611 c 0
 277 593 324 591 345 609 c 0
 350 613 349 616 344 616 c 0
 332 616 328 623 334 631 c 0
 342 641 358 635 357 623 c 0
 357 617 357 617 360 617 c 0
 362 617 371 618 380 618 c 0
 400 619 415 623 421 628 c 0
 429 636 436 634 447 622 c 0
 455 614 460 616 461 628 c 0
 462 641 473 639 473 625 c 0
 473 612 482 607 511 603 c 0
 515 602 520 601 524 599 c 0
 529 597 532 596 539 597 c 0
 547 598 547 598 551 592 c 0
 556 585 561 580 573 572 c 1
 593 556 l 2
 604 547 608 545 614 545 c 0
 618 545 621 541 622 534 c 0
 625 523 641 497 653 488 c 0
 658 484 661 480 663 476 c 0
 663 474 667 465 670 459 c 0
 676 447 676 445 676 436 c 0
 676 407 686 377 695 377 c 0
 702 377 708 365 701 363 c 0
 693 361 690 355 690 343 c 1
 689 336 689 329 688 327 c 0
 687 325 686 318 686 311 c 0
 686 293 671 229 658 195 c 0
 657 193 651 186 645 179 c 0
 637 171 633 165 631 161 c 0
 628 152 613 136 606 134 c 0
 601 133 586 120 581 112 c 0
 579 109 574 107 563 102 c 1
 546 96 544 94 542 85 c 0
 540 75 535 74 523 79 c 1
 519 82 518 82 512 79 c 0
 509 77 502 75 496 74 c 2
 481 69 l 1
 478 66 474 66 465 66 c 0
 459 66 452 65 450 64 c 0
 445 62 398 62 380 64 c 0
 371 65 361 66 354 65 c 0
 337 64 318 65 318 67 c 0
 318 71 310 76 305 75 c 0
 300 74 298 75 295 77 c 0
 292 80 290 80 283 79 c 0
 275 78 275 78 273 82 c 0
 270 87 260 93 257 92 c 0
 253 90 250 94 248 100 c 0
 247 105 246 105 243 104 c 0
 235 101 232 103 230 109 c 0
 228 118 224 119 217 113 c 0
 214 110 211 108 209 108 c 1
 208 109 207 109 206 109 c 0
 205 109 204 111 202 113 c 0
 197 121 214 138 223 133 c 0
 230 129 227 137 219 142 c 0
 210 148 198 148 193 143 c 0
 185 134 177 140 177 157 c 0
 177 166 178 168 185 169 c 0
 193 171 191 181 180 193 c 0
 175 199 167 195 169 187 c 0
 173 174 163 178 158 192 c 0
 156 197 154 199 149 203 c 0
 138 210 136 215 142 220 c 1
 145 224 150 222 159 215 c 0
 174 202 180 213 166 228 c 0
 158 238 155 242 155 253 c 1
 153 267 150 272 138 272 c 0
 127 272 124 283 135 284 c 0
 138 285 138 286 138 291 c 0
 137 297 138 299 141 302 c 0
 149 312 144 331 132 334 c 1
 119 339 114 344 118 350 c 0
 120 354 120 354 117 354 c 0
 116 354 114 352 113 349 c 0
 110 343 110 343 102 352 c 0
 94 360 89 361 89 352 c 1
 88 348 88 347 86 347 c 0
 83 348 82 352 85 355 c 0
 87 356 88 360 88 362 c 0
 88 369 90 371 98 372 c 0
 102 372 107 374 110 375 c 0
 124 382 132 374 126 359 c 0
 124 353 128 347 134 347 c 0
 144 347 143 383 133 388 c 0
 129 390 130 394 134 393 c 0
 140 392 144 396 144 403 c 1
 145 409 149 419 156 428 c 0
 171 448 168 470 151 470 c 0
 142 470 141 472 142 480 c 1
 144 486 145 486 151 484 c 1
 153 482 156 482 157 482 c 0
 158 483 161 482 165 481 c 0
 173 478 176 479 178 486 c 0
 180 494 181 495 188 497 c 0
 202 501 205 524 192 524 c 0
 188 524 186 528 187 536 c 0
 187 544 189 545 198 540 c 0
 213 533 243 544 249 558 c 0
 249 559 254 563 261 568 c 0
 278 580 281 585 273 594 c 0
 269 598 269 598 266 596 c 0
 264 594 262 594 260 594 c 0
 255 595 254 594 248 583 c 0
 243 574 241 572 229 571 c 0
 226 571 223 569 219 565 c 0
 214 559 214 559 210 562 c 0
 209 563 206 564 205 564 c 0
 201 564 196 576 198 580 c 0
 201 589 201 589 193 598 c 0
 183 609 181 610 175 601 c 0
 172 596 170 595 165 594 c 0
 160 594 157 592 154 589 c 2
 135 570 l 2
 127 562 120 552 118 549 c 0
 116 545 113 541 111 538 c 0
 109 536 106 530 104 525 c 0
 101 520 98 514 96 511 c 0
 93 507 92 506 93 499 c 0
 94 491 94 490 91 486 c 0
 84 478 80 466 81 457 c 0
 82 449 81 448 77 442 c 0
 73 437 71 433 70 425 c 0
 69 419 66 411 64 407 c 0
 60 400 60 399 61 384 c 0
 62 374 61 367 60 364 c 0
 59 361 59 356 60 346 c 0
 62 334 62 333 60 328 c 0
 57 322 57 321 61 306 c 0
 62 300 62 296 61 289 c 0
 59 280 59 280 64 271 c 0
 67 264 68 260 67 257 c 0
 66 253 67 249 69 243 c 0
 71 238 74 228 76 220 c 0
 78 213 80 204 82 200 c 0
 84 197 86 191 87 188 c 0
 88 184 91 179 96 175 c 1
 99 171 103 167 103 165 c 0
 103 163 104 160 104 157 c 0
 105 151 111 143 119 136 c 0
 124 132 128 127 131 121 c 0
 142 100 158 88 167 94 c 1
 174 100 178 99 180 92 c 0
 181 88 182 87 185 87 c 0
 186 87 188 86 189 85 c 0
 190 81 187 78 183 78 c 0
 177 78 178 72 186 65 c 0
 196 55 210 45 213 45 c 0
 217 45 221 42 226 38 c 0
 231 34 237 32 250 30 c 0
 257 29 259 29 268 20 c 0
 278 11 285 7 291 7 c 0
 294 7 293 10 289 12 c 0
 283 16 280 23 281 31 c 0
 281 37 281 40 279 44 c 0
 275 52 275 55 282 61 c 0
 291 69 297 67 297 55 c 0
 297 49 299 47 305 46 c 0
 312 44 313 41 313 30 c 0
 313 19 320 19 329 30 c 0
 331 33 332 34 335 32 c 0
 338 30 338 28 335 25 c 0
 330 20 329 15 331 10 c 1
 334 6 336 6 354 10 c 0
 362 11 382 9 389 5 c 0
 391 4 393 5 396 6 c 0
 402 9 406 9 411 4 c 0
 418 -3 414 -10 406 -6 c 0
 403 -4 401 -4 395 -6 c 0
 387 -8 385 -8 373 -5 c 0
 366 -4 363 -5 363 -10 c 0
 363 -16 372 -19 383 -17 c 0
 390 -15 391 -15 398 -18 c 0
 415 -25 438 -21 444 -9 c 0
 449 3 458 5 459 -6 c 0
 460 -15 469 -17 476 -10 c 0
 478 -7 483 -6 484 -8 c 0
 485 -11 494 -10 498 -7 c 0
 500 -5 505 -4 508 -4 c 0
 512 -4 518 -2 527 2 c 0
 535 6 543 8 546 8 c 0
 552 8 557 13 555 19 c 1
 555 23 568 39 573 39 c 0
 577 39 581 34 581 29 c 0
 581 23 591 24 602 31 c 0
 606 34 610 36 611 36 c 0
 615 36 622 43 623 48 c 0
 624 52 628 55 638 57 c 0
 641 57 645 59 649 64 c 0
 659 74 658 79 647 76 c 0
 630 71 621 76 631 85 c 0
 636 90 638 99 634 102 c 0
 633 103 632 105 632 106 c 2
 632 106 633 106 633 105 c 0
 635 103 636 103 638 104 c 0
 642 108 647 107 652 102 c 0
 655 100 658 98 659 98 c 0
 661 98 663 97 664 96 c 0
 674 89 699 105 699 117 c 0
 699 118 701 121 704 122 c 0
 714 129 715 132 710 141 c 0
 704 152 705 158 713 157 c 0
 719 156 720 158 718 162 c 0
 715 171 717 177 725 180 c 0
 731 183 731 186 725 194 c 0
 717 203 718 206 731 208 c 0
 742 210 744 213 744 231 c 0
 744 243 745 246 747 249 c 0
 748 251 749 255 749 258 c 0
 749 266 752 269 758 269 c 1
 763 270 764 272 761 275 c 0
 755 280 753 282 754 287 c 1
 754 293 757 294 763 290 c 0
 770 285 778 290 777 299 c 0
 777 303 776 304 766 308 c 0
 758 312 761 321 771 322 c 0
 785 323 787 355 774 371 c 0
 771 376 770 378 771 381 c 0
 771 383 772 387 772 389 c 0
 774 394 768 399 761 399 c 0
 755 399 752 402 752 409 c 0
 752 413 751 416 748 420 c 0
 744 426 744 428 748 429 c 0
 751 429 759 427 760 425 c 0
 763 422 766 424 766 428 c 0
 766 434 756 441 748 440 c 0
 741 439 741 439 737 446 c 0
 733 452 732 453 728 454 c 0
 711 457 717 468 735 467 c 0
 745 467 748 469 748 477 c 0
 748 483 744 485 735 484 c 0
 723 482 712 499 723 503 c 0
 728 505 728 507 722 513 c 0
 719 515 716 521 714 525 c 0
 708 538 700 539 700 526 c 0
 700 519 699 517 697 518 c 0
 693 519 690 515 690 507 c 0
 690 497 688 494 682 494 c 0
 674 495 672 513 680 519 c 0
 688 524 686 532 676 535 c 0
 669 538 669 546 676 549 c 0
 679 550 680 550 684 547 c 0
 694 541 695 550 685 558 c 0
 682 560 677 565 672 569 c 2
 664 575 l 2
 663 575 659 580 655 585 c 0
 652 590 647 595 645 597 c 0
 643 599 640 602 638 605 c 0
 636 608 631 613 627 615 c 0
 622 618 620 620 619 624 c 0
 618 630 609 639 604 640 c 0
 603 641 599 644 596 648 c 0
 593 652 589 656 586 657 c 0
 584 658 577 661 571 664 c 0
 565 667 559 669 557 669 c 0
 555 669 548 672 542 675 c 0
 531 681 530 681 516 681 c 0
 501 681 494 683 480 688 c 0
 469 692 451 693 440 691 c 0
 437 690 434 691 427 694 c 0
 417 698 410 698 404 694 c 0
 401 692 397 690 395 688 c 0
586 65 m 0
 581 70 579 69 577 61 c 0
 575 55 575 55 570 55 c 0
 558 55 556 68 568 74 c 0
 571 76 576 80 578 82 c 0
 583 87 584 86 592 78 c 0
 604 64 599 52 586 65 c 0
EndSplineSet
EndChar

StartChar: uni0050
Encoding: 80 80 16
Width: 504
Flags: W
LayerCount: 2
Fore
SplineSet
152 697 m 0
 148 697 143 696 138 693 c 1
 130 690 130 690 126 694 c 0
 119 700 110 702 105 697 c 0
 101 694 100 690 102 688 c 0
 106 686 102 674 97 672 c 0
 89 670 87 674 91 683 c 0
 97 694 94 698 82 697 c 0
 78 697 72 697 68 698 c 0
 56 701 50 697 52 688 c 0
 52 684 51 679 48 671 c 0
 44 659 44 658 47 650 c 0
 49 647 49 645 48 642 c 0
 46 637 46 630 48 626 c 1
 51 623 51 618 48 612 c 0
 44 605 44 604 49 594 c 0
 53 585 53 585 51 579 c 0
 50 574 49 570 50 566 c 1
 50 561 50 557 48 553 c 0
 46 545 46 542 49 535 c 0
 52 530 52 529 51 523 c 0
 50 519 48 511 48 505 c 0
 44 473 44 475 47 469 c 0
 50 463 50 463 46 456 c 0
 42 448 42 427 46 421 c 0
 46 420 47 415 47 409 c 0
 46 397 47 396 64 396 c 0
 77 396 90 391 90 386 c 0
 90 378 101 381 108 392 c 0
 112 398 113 399 116 399 c 0
 120 398 120 398 126 413 c 0
 130 422 131 424 130 432 c 0
 129 436 129 443 129 445 c 0
 129 451 130 490 129 507 c 1
 129 526 l 2
 129 534 128 556 127 561 c 0
 126 565 121 568 119 566 c 0
 115 562 110 566 112 571 c 0
 112 572 114 573 116 572 c 0
 121 571 123 576 123 583 c 0
 123 590 113 594 111 588 c 0
 110 584 103 584 100 589 c 0
 95 596 90 601 86 601 c 0
 78 601 76 611 82 616 c 0
 84 617 87 619 89 619 c 0
 95 619 95 626 88 628 c 0
 82 630 87 636 95 636 c 0
 99 636 101 640 100 646 c 0
 99 654 106 659 115 657 c 0
 121 656 122 654 125 645 c 0
 126 642 127 642 134 641 c 0
 136 640 138 639 138 636 c 0
 139 631 141 629 144 629 c 0
 147 629 148 633 145 638 c 0
 141 646 145 652 152 652 c 0
 161 652 168 655 170 659 c 0
 172 663 173 663 180 663 c 0
 189 664 191 665 194 671 c 0
 198 682 208 678 208 666 c 0
 208 662 209 658 209 657 c 0
 210 650 204 647 194 650 c 0
 183 654 173 649 164 638 c 0
 154 625 173 614 199 617 c 0
 212 619 236 619 261 617 c 0
 268 616 272 616 276 618 c 0
 281 620 281 620 289 617 c 0
 297 613 297 613 300 620 c 0
 307 634 335 623 335 606 c 0
 335 599 340 593 348 591 c 0
 352 590 356 588 358 587 c 0
 369 582 381 590 377 601 c 0
 375 605 375 605 362 603 c 0
 357 602 343 609 343 613 c 0
 343 616 356 627 364 630 c 0
 373 634 391 617 391 606 c 0
 391 603 392 598 393 594 c 0
 395 587 395 587 391 577 c 0
 385 564 386 565 378 565 c 0
 371 565 371 565 371 562 c 0
 372 558 374 556 377 556 c 0
 395 556 404 541 390 536 c 0
 382 533 380 530 382 524 c 0
 384 521 383 519 381 514 c 0
 379 507 379 507 383 502 c 0
 388 495 388 494 382 488 c 1
 373 476 378 470 393 474 c 0
 414 480 419 479 426 471 c 0
 430 465 431 462 428 456 c 0
 425 452 425 447 427 442 c 0
 429 438 424 428 417 422 c 0
 413 418 412 415 415 410 c 0
 420 403 416 394 408 393 c 0
 404 393 402 383 405 380 c 0
 417 370 443 391 445 412 c 0
 445 420 446 422 450 425 c 0
 460 431 467 456 462 466 c 0
 459 473 459 476 462 484 c 0
 469 503 468 541 460 557 c 0
 458 560 457 565 457 567 c 0
 457 579 448 587 439 586 c 0
 429 585 427 589 431 596 c 1
 439 606 425 632 410 637 c 0
 401 640 398 642 396 649 c 0
 392 664 361 678 356 666 c 0
 354 663 352 661 346 658 c 0
 336 653 335 651 335 646 c 0
 335 635 328 632 320 639 c 0
 317 641 314 643 313 643 c 0
 311 643 308 644 306 646 c 0
 300 651 296 651 290 645 c 0
 282 636 275 634 269 637 c 0
 264 640 261 641 261 638 c 0
 261 632 248 628 243 632 c 0
 238 637 242 643 251 646 c 0
 260 648 262 660 254 662 c 0
 252 662 249 663 248 664 c 0
 247 665 242 665 235 664 c 0
 212 663 208 675 228 681 c 0
 239 685 265 675 264 666 c 0
 264 661 267 658 273 658 c 1
 278 659 279 662 277 670 c 0
 276 673 277 674 280 678 c 1
 288 684 291 683 293 672 c 1
 295 667 301 661 305 661 c 0
 308 661 310 659 312 657 c 0
 317 650 327 652 330 662 c 0
 332 666 344 673 348 673 c 0
 358 673 346 685 335 687 c 0
 331 687 325 689 320 690 c 0
 307 694 295 695 290 692 c 0
 286 689 286 689 277 694 c 0
 267 700 225 701 213 696 c 0
 211 696 207 696 203 698 c 0
 193 701 170 701 164 699 c 0
 161 698 156 697 152 697 c 0
103 567 m 0
 102 566 100 562 99 559 c 0
 94 547 69 557 69 571 c 0
 69 580 86 584 98 579 c 0
 104 576 106 571 103 567 c 0
87 505 m 0
 96 508 108 503 106 498 c 0
 105 495 97 491 90 491 c 0
 83 491 82 490 84 482 c 0
 86 473 85 469 78 465 c 0
 68 460 69 459 92 445 c 0
 94 443 97 440 99 437 c 0
 101 434 105 430 108 428 c 0
 128 414 103 398 76 407 c 0
 74 408 70 409 66 410 c 0
 54 413 50 440 62 440 c 0
 70 440 72 456 64 458 c 0
 54 460 53 462 60 470 c 0
 65 476 66 485 62 491 c 0
 56 503 64 511 78 506 c 0
 81 505 85 505 87 505 c 0
363 438 m 0
 353 430 347 418 349 409 c 0
 349 405 350 402 350 401 c 0
 350 398 342 399 336 402 c 0
 329 405 329 405 317 402 c 0
 301 397 300 393 308 381 c 0
 313 373 315 364 312 362 c 0
 308 360 305 362 295 371 c 0
 279 387 273 379 288 362 c 0
 297 352 298 351 293 346 c 0
 286 339 290 322 298 324 c 0
 307 326 311 331 310 337 c 0
 310 343 310 343 313 343 c 0
 316 343 320 345 326 351 c 0
 331 355 337 359 339 359 c 0
 346 361 350 366 350 374 c 0
 350 387 353 397 357 396 c 0
 372 392 376 393 375 402 c 0
 375 406 374 407 369 410 c 0
 360 415 361 421 373 426 c 0
 382 430 385 436 382 444 c 0
 381 447 373 447 372 445 c 0
 371 444 367 441 363 438 c 0
151 382 m 0
 141 386 136 382 135 370 c 0
 134 358 138 354 146 359 c 1
 160 370 176 371 169 362 c 0
 168 360 167 356 166 353 c 0
 165 349 164 346 158 341 c 0
 151 334 149 329 151 324 c 0
 155 316 164 319 170 329 c 1
 180 342 l 1
 186 348 186 349 187 358 c 0
 187 363 188 370 189 373 c 0
 190 386 178 391 164 384 c 0
 157 380 156 380 151 382 c 0
243 375 m 0
 249 368 249 367 244 362 c 1
 230 352 229 348 240 338 c 0
 253 325 267 331 261 345 c 0
 257 356 256 363 259 371 c 0
 261 379 261 382 255 385 c 0
 251 386 241 387 239 385 c 0
 237 383 238 380 243 375 c 0
46 355 m 0
 45 352 43 346 42 342 c 0
 39 332 39 327 42 321 c 0
 45 314 47 314 52 323 c 0
 57 334 62 336 69 332 c 0
 78 327 82 331 73 337 c 0
 69 339 67 341 67 344 c 1
 66 346 64 350 62 353 c 0
 61 355 59 359 59 360 c 0
 59 368 54 370 49 365 c 0
 48 363 46 358 46 355 c 0
361 339 m 0
 358 338 351 335 346 332 c 0
 338 328 335 328 327 328 c 0
 317 328 317 327 316 324 c 0
 313 313 328 311 345 322 c 0
 349 324 355 328 359 329 c 0
 368 333 383 342 384 345 c 0
 388 351 380 351 372 345 c 0
 369 343 364 340 361 339 c 0
218 318 m 0
 220 318 223 316 226 313 c 0
 237 305 243 303 249 307 c 0
 257 313 251 321 239 321 c 0
 230 321 224 325 218 336 c 0
 215 341 211 342 208 337 c 0
 203 330 210 318 218 318 c 0
49 305 m 0
 47 310 42 309 42 303 c 0
 42 301 41 294 40 287 c 0
 36 269 39 260 49 260 c 0
 62 259 64 246 50 240 c 0
 41 236 41 238 40 182 c 0
 40 148 40 129 41 127 c 0
 42 124 42 121 41 115 c 0
 39 108 39 107 42 101 c 0
 45 94 45 94 42 89 c 0
 34 78 38 73 54 73 c 0
 68 73 70 75 62 82 c 0
 55 88 54 92 60 96 c 0
 65 99 78 96 83 89 c 0
 92 78 108 106 102 122 c 0
 100 127 100 128 102 132 c 0
 103 134 104 137 103 139 c 0
 101 145 88 139 86 132 c 0
 85 126 80 123 76 126 c 0
 72 130 71 134 75 140 c 0
 79 147 79 146 70 151 c 1
 65 155 65 158 71 160 c 0
 92 169 99 177 87 177 c 1
 78 178 76 179 69 185 c 0
 65 188 60 192 58 194 c 0
 51 199 54 205 65 207 c 0
 86 210 87 221 67 229 c 0
 59 232 58 237 64 239 c 0
 67 239 69 241 79 255 c 0
 85 264 85 266 81 270 c 0
 78 272 77 275 77 278 c 0
 77 281 76 284 73 287 c 0
 68 293 68 295 71 299 c 0
 74 303 73 308 70 309 c 0
 67 311 67 311 61 305 c 0
 54 299 51 299 49 305 c 0
88 216 m 0
 89 216 91 213 93 209 c 0
 100 197 117 185 122 188 c 0
 131 193 127 207 117 207 c 0
 112 207 108 213 111 218 c 0
 115 228 101 235 91 227 c 0
 87 224 85 216 88 216 c 0
109 86 m 1
 112 84 111 81 108 81 c 0
 100 81 99 74 105 68 c 0
 107 65 109 65 112 65 c 1
 114 66 116 65 117 65 c 0
 119 62 120 63 123 69 c 0
 127 77 127 87 123 94 c 0
 119 100 119 100 113 97 c 0
 109 95 107 89 109 86 c 1
53 53 m 0
 40 61 32 45 41 29 c 0
 46 21 46 17 42 10 c 0
 36 -2 46 -8 61 -2 c 0
 67 1 82 1 93 -2 c 0
 115 -8 129 -2 127 12 c 0
 126 16 126 22 126 25 c 0
 126 32 123 31 122 24 c 0
 120 13 113 7 107 12 c 1
 105 15 105 16 106 21 c 0
 108 28 107 31 101 31 c 0
 93 31 89 37 90 50 c 0
 90 60 85 63 80 55 c 0
 75 47 63 46 53 53 c 0
EndSplineSet
EndChar

StartChar: uni0051
Encoding: 81 81 17
Width: 838
Flags: W
LayerCount: 2
Fore
SplineSet
377 691 m 1
 369 692 366 691 359 689 c 0
 354 687 347 685 343 684 c 0
 325 681 312 660 324 654 c 0
 329 651 334 654 341 667 c 0
 348 681 358 682 372 671 c 0
 379 665 382 664 387 666 c 0
 396 670 397 670 402 665 c 0
 406 661 407 658 404 655 c 0
 403 654 399 651 396 648 c 0
 393 645 389 642 388 642 c 0
 381 640 381 633 389 627 c 0
 395 623 394 621 386 620 c 1
 379 618 374 615 376 611 c 0
 377 608 387 609 392 612 c 0
 397 616 426 612 434 607 c 0
 444 601 453 603 463 612 c 0
 468 616 474 615 485 606 c 0
 490 602 496 599 498 599 c 0
 499 599 502 599 503 598 c 0
 507 597 511 603 509 607 c 0
 504 616 495 624 489 625 c 0
 479 627 476 632 482 640 c 0
 487 645 484 661 478 661 c 0
 474 661 468 665 468 667 c 0
 468 671 473 674 478 673 c 0
 480 672 483 673 484 673 c 0
 487 675 493 672 497 666 c 0
 500 662 500 662 504 669 c 0
 511 682 453 701 438 690 c 0
 434 687 434 687 428 690 c 0
 422 693 418 693 398 691 c 1
 377 691 l 1
233 643 m 0
 227 639 220 635 218 634 c 0
 216 633 213 630 210 627 c 0
 208 624 204 620 202 619 c 0
 192 615 181 602 181 595 c 0
 181 590 176 585 170 584 c 0
 156 580 152 560 163 552 c 0
 166 550 167 549 167 543 c 0
 167 530 163 529 144 534 c 0
 122 540 104 525 98 494 c 0
 97 489 95 486 91 483 c 0
 85 478 81 467 78 451 c 0
 78 447 75 441 73 437 c 0
 68 430 63 414 63 404 c 0
 63 401 62 393 61 386 c 0
 57 367 57 273 61 261 c 0
 63 256 66 246 67 237 c 0
 69 227 72 218 76 209 c 0
 80 202 84 192 86 187 c 0
 91 173 93 168 102 156 c 0
 106 151 110 143 111 140 c 0
 113 135 116 131 121 127 c 0
 126 122 129 118 131 113 c 0
 136 101 150 92 157 98 c 0
 159 99 162 101 164 101 c 0
 167 102 172 106 177 111 c 0
 187 120 192 122 196 119 c 0
 204 114 213 118 212 127 c 0
 211 135 213 138 217 137 c 0
 221 136 221 135 221 128 c 0
 221 121 221 121 225 120 c 0
 234 118 239 127 231 131 c 0
 226 134 223 137 221 143 c 0
 219 147 216 151 214 152 c 0
 212 154 209 157 207 160 c 0
 202 166 198 167 195 161 c 0
 192 155 192 155 198 155 c 0
 211 155 210 135 197 132 c 0
 193 131 192 132 188 136 c 0
 185 140 183 141 181 141 c 1
 176 138 168 138 164 141 c 0
 156 145 153 157 159 159 c 0
 165 161 167 164 164 172 c 0
 161 182 168 189 180 189 c 0
 185 189 187 193 184 198 c 0
 181 205 177 205 171 198 c 0
 166 193 163 192 157 196 c 1
 152 198 148 197 148 192 c 0
 148 188 146 186 138 184 c 0
 119 181 114 183 118 193 c 0
 121 200 121 200 114 203 c 0
 110 205 110 205 110 212 c 0
 110 216 111 223 111 228 c 0
 111 240 117 247 126 246 c 0
 134 245 135 246 138 255 c 0
 140 263 139 268 134 269 c 0
 131 269 131 271 130 276 c 0
 129 288 115 291 113 280 c 0
 112 269 107 267 100 274 c 0
 94 281 95 286 103 287 c 1
 109 289 109 289 108 293 c 0
 106 306 107 310 113 310 c 0
 119 310 126 315 124 317 c 0
 122 320 113 319 109 316 c 0
 99 309 88 313 86 325 c 0
 86 327 84 332 82 335 c 0
 75 350 95 359 106 347 c 0
 114 339 118 338 123 343 c 0
 132 352 128 368 118 370 c 1
 111 370 94 388 94 394 c 0
 94 404 100 407 107 400 c 0
 112 396 116 395 119 398 c 0
 120 399 124 402 128 403 c 0
 137 406 138 408 143 418 c 0
 150 433 140 451 129 443 c 0
 121 437 114 444 120 452 c 0
 123 456 123 460 119 461 c 0
 103 466 105 479 121 477 c 0
 130 476 135 478 134 482 c 0
 134 484 133 485 132 485 c 0
 130 485 126 486 123 487 c 0
 102 489 111 524 133 522 c 0
 140 522 143 514 137 511 c 0
 130 507 133 501 142 501 c 0
 146 501 152 500 154 499 c 0
 157 498 161 497 163 497 c 0
 167 497 167 498 167 507 c 1
 166 511 167 512 171 515 c 0
 175 517 176 519 177 524 c 1
 177 534 188 535 191 525 c 0
 194 517 206 511 212 516 c 0
 215 519 216 523 213 527 c 0
 210 530 210 532 211 535 c 0
 212 540 211 540 208 542 c 0
 193 548 190 553 198 559 c 0
 210 568 234 557 223 547 c 0
 215 540 223 531 232 537 c 0
 240 543 240 550 232 554 c 0
 229 555 228 557 228 562 c 0
 225 580 219 586 206 580 c 1
 202 577 201 577 200 579 c 0
 198 581 198 582 203 585 c 0
 205 587 207 590 208 593 c 0
 209 602 215 605 220 600 c 0
 222 597 226 597 232 601 c 0
 239 607 241 606 242 596 c 0
 243 587 246 582 253 582 c 0
 259 582 262 580 262 573 c 0
 262 564 270 563 281 573 c 0
 284 575 288 577 291 578 c 0
 293 579 301 583 309 586 c 0
 317 590 329 595 335 597 c 0
 347 603 348 605 338 610 c 0
 331 614 331 614 324 610 c 0
 313 605 310 605 304 610 c 0
 296 618 288 618 286 611 c 0
 285 604 278 589 277 589 c 0
 270 589 263 597 261 605 c 0
 261 609 259 613 258 614 c 0
 257 617 257 618 260 622 c 1
 263 624 265 628 265 630 c 0
 267 635 270 638 274 638 c 0
 291 638 312 660 302 668 c 0
 298 671 299 671 283 666 c 0
 259 658 245 651 233 643 c 0
625 581 m 0
 618 577 619 571 627 565 c 0
 636 559 643 564 643 576 c 0
 642 589 652 596 660 590 c 2
 670 583 l 2
 673 581 677 578 677 576 c 0
 678 572 685 566 688 566 c 0
 694 566 693 573 686 579 c 0
 683 582 679 587 678 589 c 0
 676 592 673 594 669 595 c 0
 665 596 662 599 659 603 c 0
 645 620 632 626 633 613 c 1
 633 592 631 585 625 581 c 0
561 575 m 0
 564 573 569 570 572 567 c 0
 582 558 592 552 598 552 c 0
 603 552 607 548 613 535 c 0
 615 530 618 527 622 524 c 0
 626 521 633 515 637 511 c 0
 646 501 648 501 651 512 c 0
 655 529 672 521 672 502 c 1
 671 490 678 481 683 485 c 0
 687 487 687 488 684 492 c 1
 681 494 681 495 684 500 c 0
 692 514 695 514 706 503 c 0
 712 497 714 496 717 496 c 0
 730 497 734 494 734 485 c 0
 734 472 752 459 753 471 c 0
 753 475 752 477 748 482 c 0
 746 485 743 489 743 490 c 0
 742 506 740 513 733 519 c 0
 731 521 728 525 726 528 c 0
 714 553 701 562 699 549 c 1
 698 535 688 533 676 543 c 0
 667 550 666 550 660 543 c 0
 648 528 616 533 616 550 c 0
 616 555 616 555 610 554 c 0
 603 553 603 553 598 561 c 0
 590 573 581 583 579 582 c 0
 578 581 575 583 574 585 c 0
 570 590 569 591 562 589 c 0
 552 586 552 581 561 575 c 0
659 476 m 0
 668 467 678 442 685 408 c 0
 692 378 706 362 717 371 c 0
 718 372 722 373 725 373 c 0
 733 374 733 373 734 358 c 0
 734 349 734 349 740 343 c 0
 749 334 749 334 754 338 c 0
 756 340 759 341 760 341 c 0
 765 339 769 343 769 353 c 0
 769 365 771 376 774 380 c 0
 779 386 780 389 781 409 c 0
 782 431 781 433 772 435 c 0
 766 436 763 438 761 444 c 0
 756 458 734 450 727 431 c 0
 724 420 722 420 713 429 c 0
 709 433 705 437 704 437 c 0
 697 437 693 447 698 452 c 0
 706 460 710 470 705 473 c 0
 702 475 692 474 688 472 c 0
 678 467 673 470 662 488 c 0
 657 497 650 501 649 497 c 0
 647 490 651 484 659 476 c 0
168 482 m 0
 153 485 147 480 155 472 c 0
 165 462 186 470 195 486 c 0
 200 496 192 502 185 494 c 0
 174 481 174 481 168 482 c 0
706 358 m 0
 696 358 692 327 701 317 c 1
 704 312 704 312 700 305 c 0
 694 295 693 287 698 280 c 0
 702 273 702 274 698 266 c 0
 695 261 695 260 698 258 c 1
 699 256 700 253 700 251 c 0
 700 248 702 243 704 238 c 0
 710 228 707 224 690 223 c 0
 673 222 664 213 659 192 c 1
 654 176 651 171 642 166 c 0
 639 165 635 161 632 157 c 0
 630 153 624 147 621 144 c 0
 617 141 611 135 608 131 c 0
 605 127 598 121 592 117 c 0
 568 99 566 96 576 85 c 0
 580 81 586 74 590 69 c 0
 599 58 604 57 607 65 c 0
 609 70 608 75 604 78 c 0
 595 86 602 100 613 95 c 0
 622 90 625 92 626 104 c 1
 628 112 632 118 642 122 c 0
 646 124 651 128 654 131 c 0
 656 134 661 137 664 138 c 1
 668 141 668 141 668 150 c 0
 668 161 670 164 675 161 c 0
 676 160 682 159 687 158 c 0
 693 157 698 155 703 152 c 0
 707 150 712 148 714 147 c 0
 718 146 720 144 722 141 c 0
 726 134 733 135 738 144 c 0
 742 151 741 156 734 160 c 0
 721 169 724 178 741 178 c 0
 763 178 763 189 741 192 c 0
 722 195 718 201 728 213 c 0
 731 216 732 219 732 223 c 0
 732 229 739 242 742 242 c 0
 750 242 758 226 752 220 c 0
 749 216 751 210 755 208 c 0
 760 206 763 209 763 215 c 0
 763 217 765 220 769 223 c 0
 787 238 783 258 761 259 c 0
 747 260 746 263 759 278 c 0
 768 288 769 289 768 293 c 0
 766 302 762 301 759 293 c 0
 754 279 747 282 744 297 c 0
 743 302 741 303 726 306 c 0
 705 310 703 312 711 319 c 1
 714 323 716 323 722 323 c 0
 727 323 730 324 731 326 c 0
 736 331 733 335 724 334 c 1
 717 332 715 337 716 350 c 0
 716 360 715 362 711 360 c 0
 710 359 708 358 706 358 c 0
679 118 m 1
 680 112 680 111 677 109 c 0
 667 101 666 98 669 91 c 0
 671 87 674 88 680 92 c 0
 682 94 686 97 688 98 c 0
 693 102 692 103 687 108 c 0
 679 117 696 124 709 118 c 0
 716 115 722 119 720 126 c 0
 718 132 681 134 679 128 c 0
 677 125 677 123 679 118 c 1
191 101 m 0
 188 98 184 97 180 96 c 0
 176 95 172 94 170 92 c 0
 167 89 165 88 162 88 c 0
 154 89 155 83 164 76 c 0
 168 72 173 68 175 66 c 0
 177 63 183 58 188 54 c 0
 194 50 202 43 206 39 c 0
 211 35 216 32 218 31 c 0
 220 31 225 29 229 28 c 0
 235 26 237 25 238 26 c 0
 242 38 258 39 269 27 c 0
 275 19 275 19 281 23 c 0
 294 32 294 32 297 28 c 0
 300 24 299 22 288 12 c 0
 278 2 278 2 286 -1 c 0
 290 -3 295 -6 297 -7 c 0
 300 -9 303 -10 309 -10 c 0
 315 -10 318 -11 324 -14 c 0
 330 -17 333 -18 339 -18 c 0
 344 -18 349 -19 351 -20 c 0
 354 -21 358 -22 360 -22 c 0
 367 -22 372 -26 374 -32 c 0
 376 -39 380 -42 386 -40 c 0
 388 -39 394 -39 398 -39 c 0
 408 -38 410 -35 404 -28 c 0
 397 -21 406 -15 418 -20 c 0
 427 -23 431 -18 424 -11 c 0
 422 -8 420 -5 420 -4 c 0
 420 -3 422 0 424 2 c 0
 433 9 420 18 411 12 c 0
 405 8 401 10 399 17 c 1
 394 27 l 1
 391 30 392 33 398 38 c 0
 410 46 403 51 377 52 c 0
 358 53 358 53 369 41 c 0
 379 30 377 21 367 30 c 0
 366 31 362 33 359 35 c 0
 350 39 346 47 352 50 c 0
 356 51 354 54 347 58 c 0
 344 60 339 64 337 65 c 0
 332 69 325 69 315 66 c 0
 313 66 311 67 305 72 c 0
 301 76 297 78 297 78 c 2
 296 78 293 80 289 81 c 1
 282 85 278 85 276 81 c 0
 273 76 274 74 278 75 c 0
 289 78 289 78 293 70 c 0
 295 65 297 63 302 61 c 0
 311 57 315 47 309 43 c 0
 305 40 302 40 291 46 c 0
 282 50 280 50 277 49 c 0
 273 47 247 49 242 51 c 1
 237 55 239 64 246 70 c 0
 249 72 252 79 251 82 c 0
 251 84 246 85 244 83 c 1
 243 80 237 81 235 84 c 0
 231 89 232 94 236 99 c 0
 242 105 239 109 230 107 c 0
 226 106 223 106 219 107 c 0
 210 109 205 109 200 107 c 0
 198 106 193 104 191 101 c 0
475 56 m 0
 472 56 465 55 460 53 c 0
 454 51 447 51 435 51 c 0
 419 51 407 47 407 42 c 0
 407 40 414 35 417 35 c 0
 437 35 448 22 437 12 c 0
 433 9 431 7 432 6 c 0
 433 3 441 4 445 8 c 0
 452 14 469 10 469 2 c 0
 469 -1 460 -8 454 -9 c 0
 443 -11 437 -21 446 -23 c 0
 449 -24 461 -20 461 -18 c 0
 461 -17 467 -14 472 -14 c 0
 478 -14 479 -12 476 -5 c 0
 473 4 487 14 500 11 c 0
 510 8 514 23 507 36 c 0
 498 53 512 61 534 51 c 0
 545 46 548 48 547 64 c 1
 547 82 546 83 523 71 c 1
 505 63 485 56 475 56 c 0
624 67 m 0
 627 62 627 60 627 56 c 0
 624 39 625 38 639 46 c 0
 651 53 652 54 652 60 c 0
 652 66 645 73 636 76 c 0
 631 77 627 79 626 79 c 0
 625 80 624 79 622 77 c 0
 619 74 619 73 624 67 c 0
493 -21 m 0
 492 -24 489 -26 486 -28 c 0
 481 -30 481 -30 480 -38 c 1
 480 -48 479 -48 468 -48 c 1
 463 -49 456 -49 454 -50 c 0
 450 -51 449 -50 445 -46 c 0
 439 -39 436 -40 434 -47 c 0
 429 -63 435 -73 450 -75 c 0
 460 -76 474 -83 480 -90 c 0
 483 -92 487 -95 491 -97 c 0
 495 -98 502 -102 508 -105 c 0
 523 -113 531 -106 525 -88 c 0
 524 -83 522 -76 521 -73 c 0
 520 -61 508 -55 497 -60 c 0
 492 -62 491 -62 489 -60 c 0
 482 -54 496 -40 506 -43 c 0
 511 -45 517 -45 519 -44 c 0
 519 -43 523 -40 527 -37 c 0
 538 -30 538 -17 526 -24 c 0
 518 -28 510 -25 510 -17 c 0
 510 -11 502 -8 497 -13 c 0
 496 -15 493 -18 493 -21 c 0
589 -76 m 0
 604 -89 597 -103 574 -106 c 0
 564 -107 562 -116 572 -116 c 0
 573 -116 578 -118 582 -121 c 0
 591 -127 604 -130 612 -127 c 0
 617 -126 618 -126 628 -131 c 0
 634 -133 641 -136 643 -137 c 0
 644 -137 649 -139 653 -142 c 0
 659 -146 659 -146 664 -144 c 0
 667 -142 672 -141 675 -141 c 0
 683 -141 690 -134 690 -125 c 0
 690 -116 692 -114 699 -113 c 0
 703 -112 705 -110 709 -106 c 0
 713 -101 716 -99 723 -97 c 0
 742 -91 771 -74 771 -69 c 0
 771 -64 760 -64 724 -71 c 0
 715 -72 711 -73 705 -71 c 1
 700 -71 682 -70 663 -70 c 0
 644 -69 629 -68 626 -67 c 0
 601 -59 586 -57 583 -60 c 0
 579 -64 581 -68 589 -76 c 0
EndSplineSet
EndChar

StartChar: uni0052
Encoding: 82 82 18
Width: 575
Flags: W
LayerCount: 2
Fore
SplineSet
65 713 m 0
 54 713 51 710 51 700 c 0
 51 687 54 685 61 692 c 0
 67 698 89 700 113 698 c 0
 120 697 121 697 125 701 c 0
 130 707 129 707 137 701 c 0
 140 698 144 696 146 696 c 0
 150 696 155 693 164 687 c 1
 171 681 183 686 185 696 c 0
 186 701 193 707 198 708 c 0
 200 709 202 710 202 712 c 0
 203 715 191 714 185 711 c 0
 175 706 169 706 157 712 c 0
 146 718 141 718 132 713 c 0
 129 712 127 711 126 712 c 0
 125 713 120 714 115 714 c 0
 109 714 104 715 102 716 c 0
 97 719 88 719 81 715 c 0
 77 713 72 713 65 713 c 0
295 701 m 0
 293 699 289 697 287 697 c 0
 283 697 275 694 275 692 c 0
 275 689 280 687 286 688 c 0
 293 689 292 690 304 676 c 0
 311 667 320 667 315 677 c 0
 311 683 311 687 314 692 c 1
 319 697 311 709 304 707 c 1
 304 707 303 706 302 706 c 0
 301 706 298 703 295 701 c 0
344 679 m 0
 346 676 348 672 349 669 c 0
 352 662 355 659 363 657 c 0
 368 655 369 654 373 648 c 1
 375 643 378 639 380 637 c 0
 386 630 373 609 364 611 c 0
 358 613 352 601 357 597 c 0
 358 596 360 592 361 589 c 0
 363 581 363 581 371 585 c 0
 383 591 390 572 381 561 c 1
 370 550 358 555 360 571 c 0
 361 581 361 581 357 581 c 0
 351 581 349 583 348 590 c 0
 347 597 347 597 339 597 c 0
 325 596 324 592 334 580 c 0
 343 570 344 567 343 553 c 0
 342 545 343 538 344 533 c 0
 345 526 345 525 343 521 c 0
 342 518 340 511 339 504 c 1
 339 493 336 486 325 458 c 0
 322 451 318 446 306 437 c 0
 303 435 297 431 293 427 c 0
 283 419 280 417 265 416 c 0
 247 414 235 408 235 402 c 0
 235 397 240 396 245 399 c 0
 249 401 252 402 261 402 c 0
 293 402 296 402 302 409 c 0
 312 420 319 417 319 402 c 0
 319 393 321 392 341 396 c 0
 346 397 349 393 349 388 c 0
 349 378 361 378 368 388 c 0
 369 390 373 394 376 395 c 0
 405 415 413 437 385 423 c 0
 377 419 377 419 377 425 c 0
 377 431 379 434 384 440 c 0
 387 443 387 444 386 445 c 0
 381 446 376 453 376 457 c 0
 376 464 384 472 388 470 c 0
 389 470 394 468 399 468 c 0
 404 467 408 465 410 464 c 0
 416 459 418 461 424 477 c 0
 434 503 431 547 420 536 c 0
 417 533 406 534 403 538 c 0
 396 547 408 556 419 550 c 0
 430 544 431 547 427 576 c 0
 424 599 417 608 407 603 c 0
 405 603 401 602 400 601 c 1
 398 601 395 601 394 600 c 0
 393 600 392 601 392 604 c 0
 391 607 400 617 404 617 c 0
 414 617 403 640 385 654 c 0
 376 661 375 662 364 674 c 0
 354 684 341 690 341 685 c 0
 341 684 342 681 344 679 c 0
412 503 m 0
 412 499 391 485 387 486 c 0
 374 490 377 511 391 511 c 0
 392 511 395 512 396 513 c 0
 399 515 401 516 405 514 c 0
 408 513 412 507 412 503 c 0
71 665 m 0
 71 663 68 659 64 656 c 0
 58 650 58 650 59 644 c 0
 60 640 59 638 58 635 c 0
 53 628 55 624 64 624 c 0
 70 624 73 623 76 620 c 0
 82 616 95 621 100 630 c 0
 102 634 102 634 96 640 c 0
 88 648 88 650 103 657 c 0
 119 665 121 677 106 680 c 0
 90 683 89 683 80 675 c 0
 74 670 71 667 71 665 c 0
286 655 m 0
 287 648 283 645 272 646 c 1
 256 646 255 636 271 634 c 0
 274 633 280 632 282 630 c 1
 292 626 308 647 305 659 c 0
 304 665 289 668 286 662 c 0
 286 661 285 658 286 655 c 0
60 556 m 0
 66 556 65 545 60 541 c 0
 59 541 58 537 59 532 c 0
 60 525 59 524 56 519 c 0
 53 515 53 512 53 506 c 0
 53 501 52 498 50 494 c 0
 46 488 46 476 49 466 c 0
 51 460 51 458 49 452 c 0
 47 446 47 443 48 433 c 0
 50 423 50 419 48 414 c 1
 48 410 47 402 47 395 c 2
 47 379 l 2
 47 376 48 372 49 370 c 0
 53 363 53 351 50 337 c 0
 45 309 54 284 63 304 c 0
 67 314 69 315 79 315 c 0
 94 314 91 326 76 329 c 0
 63 332 64 344 77 344 c 0
 83 344 84 350 80 355 c 0
 73 362 84 383 95 382 c 0
 101 381 99 386 93 387 c 0
 87 387 83 391 83 394 c 0
 83 398 95 419 99 421 c 0
 102 422 106 428 106 432 c 1
 106 432 104 436 102 438 c 0
 99 443 99 444 100 450 c 0
 101 454 101 460 101 464 c 0
 101 471 101 471 108 472 c 0
 116 474 119 475 119 478 c 1
 118 479 118 483 118 488 c 0
 118 493 117 498 116 499 c 0
 115 501 114 506 115 510 c 1
 115 523 107 527 101 516 c 0
 99 513 96 509 94 508 c 0
 89 505 89 502 94 492 c 0
 102 477 97 468 82 473 c 0
 68 477 69 477 77 494 c 0
 85 509 85 511 74 511 c 0
 69 511 68 511 68 514 c 0
 68 515 68 519 67 522 c 0
 66 531 72 539 81 540 c 0
 95 542 95 564 80 564 c 0
 77 564 75 568 75 573 c 0
 75 577 76 577 83 579 c 0
 97 581 102 593 93 598 c 0
 91 599 88 602 87 604 c 0
 85 611 83 612 77 606 c 0
 71 599 68 599 61 605 c 0
 55 611 52 612 50 607 c 0
 45 586 51 556 60 556 c 0
297 385 m 0
 291 385 287 381 288 375 c 1
 288 368 288 367 284 366 c 0
 279 364 278 360 282 356 c 0
 284 354 286 354 289 355 c 0
 291 356 296 357 301 357 c 0
 311 358 317 362 316 368 c 1
 316 387 l 1
 317 391 315 391 308 388 c 0
 305 386 300 385 297 385 c 0
194 351 m 0
 188 351 180 347 180 345 c 0
 180 340 192 330 198 330 c 0
 201 330 205 329 211 326 c 1
 218 321 227 318 233 318 c 0
 234 318 234 319 234 321 c 1
 233 322 234 326 235 329 c 0
 238 337 238 337 231 344 c 0
 228 348 225 353 224 355 c 0
 222 361 215 363 209 359 c 1
 204 354 197 351 194 351 c 0
347 306 m 0
 353 304 363 295 366 287 c 0
 383 253 387 247 398 243 c 1
 408 241 409 247 401 256 c 0
 399 258 396 262 395 266 c 0
 394 271 391 274 377 288 c 0
 369 296 358 306 355 310 c 0
 348 317 340 321 339 317 c 0
 337 313 341 307 347 306 c 0
285 274 m 0
 295 272 298 269 298 263 c 0
 298 259 299 256 302 252 c 0
 305 248 308 244 308 242 c 0
 309 240 313 233 317 227 c 0
 322 220 330 208 336 199 c 0
 342 190 351 179 355 174 c 0
 361 168 363 165 364 160 c 0
 364 156 367 152 372 145 c 0
 376 140 381 132 384 127 c 1
 386 121 391 113 394 109 c 0
 397 105 400 99 401 97 c 0
 404 89 408 81 414 74 c 0
 417 70 422 60 426 52 c 0
 430 45 436 34 440 29 c 0
 444 24 448 16 450 13 c 1
 453 2 485 -5 501 1 c 0
 504 2 511 3 517 4 c 0
 535 5 538 10 526 19 c 0
 522 22 522 23 522 27 c 1
 523 30 522 34 518 41 c 0
 512 54 511 54 504 55 c 0
 491 57 483 65 488 71 c 0
 495 78 489 85 476 86 c 0
 468 86 463 89 463 93 c 0
 463 96 456 101 447 103 c 0
 437 106 435 108 438 114 c 0
 440 120 438 123 429 129 c 0
 418 137 414 142 413 152 c 0
 413 157 412 162 410 164 c 0
 409 166 407 169 406 171 c 0
 403 174 405 177 410 175 c 0
 412 174 414 175 417 176 c 0
 419 177 421 178 422 178 c 0
 427 178 428 183 425 185 c 1
 423 185 420 188 418 190 c 0
 416 194 414 195 411 195 c 0
 402 195 399 197 398 206 c 0
 397 218 394 220 383 219 c 0
 376 218 374 219 370 221 c 0
 368 223 362 225 358 227 c 0
 347 231 346 232 348 242 c 0
 351 256 347 264 336 264 c 1
 327 265 324 266 318 277 c 0
 313 286 312 287 302 288 c 0
 297 289 292 291 290 292 c 0
 286 295 283 295 279 291 c 0
 272 284 275 277 285 274 c 0
52 278 m 0
 53 276 53 269 53 264 c 0
 53 249 58 245 66 251 c 0
 70 254 70 254 67 258 c 0
 58 269 61 277 71 269 c 0
 79 262 88 266 88 276 c 0
 88 282 79 286 72 281 c 1
 68 280 68 280 63 283 c 0
 56 288 56 288 53 285 c 0
 51 283 51 281 52 278 c 0
54 223 m 1
 57 220 57 220 54 214 c 0
 52 210 51 207 51 205 c 0
 51 204 50 199 47 194 c 1
 44 186 44 185 45 176 c 0
 46 171 47 163 47 157 c 0
 46 150 47 146 50 140 c 0
 53 134 53 132 51 128 c 1
 48 115 50 108 58 106 c 0
 68 103 67 96 58 92 c 0
 48 87 44 77 44 55 c 1
 43 47 43 39 42 36 c 0
 39 20 66 18 75 34 c 0
 80 42 84 43 91 37 c 0
 96 32 99 32 107 36 c 0
 110 38 110 39 109 46 c 0
 108 54 109 55 112 59 c 0
 118 66 116 71 108 68 c 0
 96 64 88 77 93 90 c 1
 97 97 96 101 90 101 c 0
 73 101 61 121 78 121 c 0
 87 121 96 130 99 141 c 0
 103 156 116 164 127 159 c 0
 132 157 129 162 122 168 c 0
 113 176 112 176 106 170 c 0
 100 163 92 169 94 178 c 0
 94 179 94 185 92 191 c 0
 90 202 90 203 93 211 c 0
 98 223 91 228 71 227 c 0
 69 227 67 228 66 231 c 0
 61 241 58 243 53 238 c 0
 50 235 51 228 54 223 c 1
414 216 m 0
 426 205 431 197 431 190 c 0
 431 185 432 184 437 182 c 0
 440 180 445 177 447 174 c 0
 453 168 455 171 451 180 c 0
 431 218 431 217 421 226 c 0
 413 233 411 234 408 231 c 0
 405 227 406 224 414 216 c 0
EndSplineSet
EndChar

StartChar: uni0053
Encoding: 83 83 19
Width: 426
Flags: W
LayerCount: 2
Fore
SplineSet
353 637 m 1
 359 631 l 2
 362 628 363 627 366 628 c 0
 376 630 381 623 376 612 c 0
 372 604 372 603 378 600 c 0
 392 594 397 613 388 637 c 0
 383 650 360 662 353 654 c 0
 348 648 348 639 353 637 c 1
264 605 m 0
 272 605 273 605 278 595 c 0
 281 589 284 590 292 598 c 0
 303 608 299 620 286 618 c 0
 281 617 280 618 277 620 c 1
 274 624 269 624 262 619 c 0
 251 611 252 605 264 605 c 0
60 594 m 0
 60 589 55 578 45 559 c 0
 41 552 41 549 40 536 c 0
 39 527 38 515 38 508 c 0
 37 497 37 496 41 488 c 0
 46 480 46 480 43 472 c 0
 41 465 41 465 45 457 c 0
 47 452 49 447 49 445 c 0
 50 443 52 439 55 436 c 0
 61 431 61 430 61 423 c 0
 61 409 71 399 80 403 c 0
 82 404 86 404 88 404 c 0
 97 404 94 419 85 421 c 0
 75 423 72 429 78 437 c 1
 79 440 81 444 82 448 c 0
 83 451 85 456 88 458 c 0
 92 462 93 466 89 470 c 0
 87 472 87 473 88 474 c 0
 91 475 91 482 89 484 c 0
 85 488 82 486 82 479 c 0
 82 470 76 468 68 472 c 0
 57 479 68 499 89 510 c 0
 94 512 98 516 100 518 c 0
 101 520 104 524 107 526 c 1
 115 536 114 545 105 545 c 0
 103 545 100 545 98 546 c 0
 94 548 86 546 85 543 c 0
 82 532 68 536 68 548 c 0
 68 551 66 556 64 559 c 0
 60 567 63 574 71 574 c 0
 75 574 84 565 86 560 c 0
 88 555 89 555 95 560 c 0
 98 562 101 564 102 564 c 0
 104 564 107 571 107 575 c 0
 106 579 99 582 94 582 c 0
 91 582 86 587 86 590 c 0
 86 593 90 596 95 596 c 0
 98 596 104 601 104 603 c 0
 104 606 101 608 94 609 c 0
 71 612 73 613 66 606 c 0
 60 601 60 599 60 594 c 0
355 582 m 0
 331 588 329 579 352 568 c 0
 359 564 369 559 373 556 c 0
 389 543 393 545 394 567 c 0
 395 586 388 596 380 587 c 0
 374 580 366 579 355 582 c 0
160 396 m 0
 160 389 150 387 144 392 c 0
 140 396 134 394 133 390 c 0
 132 388 145 381 146 383 c 1
 148 384 151 380 151 377 c 0
 151 369 144 367 138 374 c 1
 134 377 133 378 129 377 c 0
 125 376 124 377 122 382 c 0
 120 388 120 388 113 385 c 0
 104 382 103 382 99 389 c 0
 93 399 76 389 76 375 c 0
 76 368 82 363 91 363 c 2
 100 363 l 1
 102 362 103 358 102 353 c 0
 99 343 104 339 113 342 c 0
 119 345 127 345 133 344 c 0
 138 343 138 343 138 348 c 0
 138 356 139 357 149 358 c 0
 164 359 166 354 155 341 c 0
 148 334 148 332 152 325 c 0
 157 316 163 313 173 316 c 0
 184 319 189 317 193 308 c 0
 197 301 204 295 210 295 c 0
 215 295 225 290 231 285 c 0
 234 282 238 280 240 279 c 0
 251 276 267 263 273 251 c 0
 277 244 279 242 286 242 c 0
 295 242 296 241 296 235 c 0
 296 230 297 227 300 223 c 0
 302 220 305 215 306 213 c 0
 308 208 310 207 318 205 c 0
 333 200 345 190 351 178 c 0
 357 164 366 166 364 180 c 0
 363 186 368 193 372 193 c 0
 373 193 376 200 376 204 c 0
 376 206 377 210 378 212 c 0
 380 217 380 218 378 221 c 0
 376 225 376 228 377 235 c 0
 378 243 378 243 373 246 c 0
 371 247 368 250 366 252 c 0
 363 255 360 256 356 257 c 0
 353 258 349 259 347 259 c 1
 346 260 344 260 341 257 c 0
 338 254 338 254 336 257 c 0
 334 259 332 263 329 265 c 1
 325 271 325 274 329 275 c 0
 331 276 332 275 333 274 c 0
 339 264 344 261 348 265 c 0
 351 269 359 268 363 264 c 0
 366 260 366 260 370 263 c 0
 374 267 374 271 369 274 c 0
 367 275 361 282 356 289 c 0
 341 310 333 315 331 306 c 0
 329 297 317 300 309 312 c 0
 305 319 303 319 297 316 c 0
 283 309 271 323 280 337 c 0
 290 351 259 354 247 339 c 0
 244 335 234 332 228 333 c 0
 224 333 221 333 215 330 c 0
 211 328 208 326 207 326 c 0
 206 326 204 339 205 342 c 1
 205 346 202 347 200 344 c 0
 198 341 186 345 182 351 c 0
 176 360 180 367 193 369 c 0
 204 370 211 363 209 353 c 0
 208 347 208 347 217 355 c 0
 229 365 227 382 213 389 c 0
 211 391 206 394 202 397 c 0
 198 400 195 402 193 402 c 0
 185 401 189 391 198 391 c 0
 199 391 202 389 203 388 c 0
 208 382 204 377 195 377 c 0
 191 377 187 376 184 375 c 0
 177 372 175 375 174 389 c 0
 172 404 168 410 163 403 c 0
 161 401 160 398 160 396 c 0
337 134 m 0
 336 128 334 120 332 116 c 0
 329 109 331 104 338 102 c 0
 342 100 342 100 342 95 c 0
 342 89 343 89 347 86 c 1
 354 83 354 75 348 71 c 0
 345 69 346 65 350 64 c 0
 361 61 368 66 367 77 c 0
 365 89 371 92 378 83 c 0
 383 77 386 77 390 83 c 0
 396 92 392 99 384 94 c 0
 379 91 379 91 374 95 c 0
 372 97 368 100 365 101 c 0
 354 107 352 114 359 118 c 0
 364 121 364 121 368 118 c 0
 379 112 399 126 388 133 c 0
 386 135 383 137 383 137 c 1
 383 137 382 141 382 145 c 0
 381 154 378 155 370 147 c 0
 364 141 362 141 357 148 c 1
 354 154 350 156 346 154 c 0
 341 152 339 146 337 134 c 0
40 116 m 0
 39 114 38 106 38 94 c 0
 38 84 37 75 36 74 c 0
 35 72 33 43 33 32 c 0
 33 24 37 17 47 11 c 0
 51 8 56 5 57 4 c 0
 58 2 62 0 66 -2 c 0
 70 -4 76 -9 79 -12 c 0
 87 -19 86 -19 107 -19 c 1
 117 -18 117 -18 116 -9 c 0
 115 0 115 0 122 6 c 0
 131 15 131 16 114 20 c 0
 95 24 93 35 112 35 c 0
 121 35 124 36 124 39 c 0
 124 48 106 51 98 44 c 1
 95 40 88 41 83 46 c 0
 80 49 78 50 71 50 c 0
 57 50 44 61 50 68 c 0
 52 71 57 71 60 68 c 0
 61 67 63 66 65 66 c 0
 71 66 71 71 64 78 c 1
 60 84 58 89 61 90 c 0
 66 91 64 109 59 113 c 0
 56 115 54 118 53 121 c 0
 51 132 39 137 41 126 c 0
 41 122 41 118 40 116 c 0
321 73 m 1
 324 71 322 66 318 66 c 0
 316 66 313 64 310 62 c 0
 308 60 303 57 300 57 c 0
 297 56 292 54 288 51 c 0
 282 47 272 43 265 43 c 0
 263 43 258 42 254 40 c 0
 250 38 245 36 242 36 c 0
 240 36 235 35 232 33 c 0
 197 18 181 17 183 30 c 0
 184 34 184 35 182 34 c 0
 181 33 179 32 177 32 c 0
 171 30 170 26 172 20 c 0
 175 10 168 7 160 13 c 0
 157 16 155 17 151 16 c 0
 149 16 145 15 142 15 c 0
 135 13 135 13 142 3 c 0
 150 -8 157 -10 175 -4 c 0
 185 -1 195 -1 201 -4 c 0
 204 -5 210 -6 214 -6 c 0
 219 -6 224 -7 228 -8 c 0
 242 -15 247 -15 260 -9 c 0
 277 -1 276 -1 291 0 c 0
 311 1 327 12 321 20 c 0
 316 26 326 49 332 49 c 0
 334 49 345 64 344 65 c 0
 343 65 341 66 337 68 c 0
 333 70 332 71 331 76 c 1
 331 85 328 87 322 83 c 0
 318 81 318 77 321 73 c 1
EndSplineSet
EndChar

StartChar: uni0054
Encoding: 84 84 20
Width: 669
Flags: W
LayerCount: 2
Fore
SplineSet
106 680 m 1
 109 672 107 667 103 667 c 0
 95 666 91 675 95 689 c 1
 98 705 72 713 53 702 c 0
 45 697 47 680 56 673 c 0
 62 669 63 665 60 655 c 0
 55 631 69 625 129 624 c 0
 138 624 142 623 147 620 c 0
 154 617 154 617 160 621 c 0
 165 624 168 624 176 624 c 0
 181 624 191 625 198 626 c 0
 209 627 212 627 216 625 c 0
 223 622 226 622 237 627 c 0
 248 632 249 632 260 624 c 0
 269 617 270 616 271 606 c 0
 272 599 272 599 279 598 c 0
 289 596 291 594 288 586 c 0
 287 581 286 573 286 562 c 0
 286 553 285 543 285 539 c 0
 284 535 284 532 287 527 c 0
 290 520 290 519 288 509 c 0
 283 468 287 461 306 482 c 0
 316 493 317 495 315 502 c 0
 313 508 314 510 322 515 c 0
 334 523 337 524 339 521 c 0
 341 519 346 519 348 521 c 0
 349 523 346 526 341 525 c 0
 338 525 335 526 333 528 c 0
 330 532 326 531 321 526 c 1
 315 522 314 522 305 526 c 0
 292 531 295 562 309 570 c 0
 317 574 316 581 307 586 c 0
 297 592 296 597 306 603 c 1
 317 608 315 644 304 642 c 0
 302 641 299 642 298 643 c 0
 296 644 293 645 290 646 c 0
 288 646 282 648 277 649 c 0
 270 651 267 651 263 650 c 0
 258 648 254 649 249 653 c 0
 236 662 218 661 212 651 c 0
 207 643 201 648 201 660 c 0
 201 665 197 676 195 676 c 0
 193 676 191 673 189 664 c 0
 186 653 180 654 176 667 c 0
 171 682 163 681 159 666 c 1
 157 654 151 650 137 652 c 0
 114 656 107 674 127 678 c 0
 133 679 141 685 150 693 c 0
 157 700 160 699 168 688 c 0
 173 682 177 682 182 687 c 0
 189 694 195 692 197 682 c 0
 198 677 199 676 204 680 c 0
 205 681 208 682 211 682 c 0
 214 682 217 683 219 685 c 0
 223 690 227 689 228 684 c 0
 231 668 242 675 241 692 c 0
 241 694 238 696 227 700 c 0
 223 701 215 702 205 702 c 0
 196 702 183 703 177 704 c 0
 167 706 165 706 160 704 c 1
 156 701 155 701 150 703 c 0
 137 708 111 708 107 703 c 0
 103 698 103 693 106 680 c 1
341 688 m 1
 344 685 344 683 343 679 c 0
 341 670 345 657 350 657 c 0
 361 657 365 670 357 678 c 0
 352 683 351 686 355 689 c 0
 358 691 361 689 363 683 c 1
 366 678 370 676 381 676 c 0
 385 676 385 675 386 671 c 0
 387 655 389 648 394 640 c 0
 403 625 403 625 413 626 c 0
 431 628 432 639 414 645 c 1
 404 647 403 649 397 663 c 0
 392 676 392 676 404 679 c 0
 427 686 425 697 401 695 c 0
 391 695 387 695 383 697 c 0
 377 700 348 702 343 700 c 0
 338 697 338 693 341 688 c 1
434 687 m 0
 432 679 433 672 437 670 c 0
 440 669 441 668 440 664 c 0
 439 657 442 654 448 657 c 0
 456 660 455 669 446 669 c 0
 443 669 443 670 444 675 c 0
 445 682 449 686 455 686 c 0
 457 686 462 687 465 688 c 0
 471 689 472 689 477 686 c 1
 480 683 483 682 484 682 c 2
 484 682 487 680 489 678 c 0
 493 673 495 672 500 676 c 0
 507 682 504 692 495 694 c 0
 492 694 487 695 484 696 c 0
 481 698 479 697 476 695 c 0
 472 693 472 693 466 696 c 0
 459 699 458 699 448 697 c 0
 436 694 436 694 434 687 c 0
584 688 m 0
 581 677 568 678 568 690 c 0
 568 696 564 695 556 688 c 0
 553 686 553 686 548 688 c 0
 543 691 543 691 538 687 c 0
 532 683 532 683 527 685 c 0
 521 688 517 687 517 682 c 1
 516 680 521 674 533 665 c 0
 537 662 537 662 532 658 c 1
 530 655 526 651 524 647 c 0
 518 639 500 631 495 636 c 1
 489 640 484 640 480 635 c 1
 476 632 475 631 470 632 c 0
 464 633 463 632 467 626 c 0
 471 620 479 618 490 622 c 0
 498 625 500 625 528 623 c 0
 572 621 584 627 551 636 c 0
 542 638 541 641 540 653 c 0
 539 664 540 666 545 664 c 0
 546 664 547 664 548 666 c 0
 551 669 552 668 554 664 c 0
 556 659 559 658 563 662 c 0
 566 665 575 665 579 663 c 0
 582 662 585 661 587 661 c 0
 594 661 602 658 607 653 c 0
 626 633 628 667 609 689 c 0
 602 697 597 700 591 697 c 0
 587 696 585 693 584 688 c 0
354 570 m 0
 357 568 362 565 363 564 c 0
 371 557 373 560 372 584 c 1
 372 610 369 615 360 604 c 0
 348 589 345 574 354 570 c 0
360 495 m 0
 361 490 360 489 356 485 c 0
 352 480 347 471 346 463 c 0
 346 462 342 457 337 453 c 0
 325 442 327 433 339 442 c 0
 342 444 347 445 349 445 c 0
 354 445 357 448 357 455 c 0
 357 460 360 465 363 462 c 0
 366 459 369 460 371 468 c 0
 378 492 373 509 362 502 c 0
 360 500 359 499 360 495 c 0
290 436 m 0
 284 430 284 429 285 422 c 0
 286 408 286 390 284 383 c 0
 283 377 282 373 283 364 c 0
 284 357 284 349 283 344 c 0
 282 339 283 334 285 327 c 0
 287 317 287 316 285 306 c 0
 282 293 282 291 285 280 c 0
 288 270 289 252 286 247 c 0
 285 245 285 229 285 188 c 0
 284 137 284 131 281 119 c 0
 279 108 279 105 280 95 c 0
 281 85 281 67 279 38 c 0
 278 28 279 24 281 16 c 0
 282 11 284 4 285 1 c 0
 286 -4 291 -6 294 -2 c 0
 295 -1 297 0 299 0 c 0
 305 0 309 2 309 7 c 0
 309 14 313 17 322 16 c 0
 330 16 330 16 332 20 c 0
 340 37 340 36 347 33 c 0
 359 28 352 47 338 59 c 0
 334 62 328 58 330 53 c 1
 331 46 325 43 320 47 c 0
 315 50 315 52 320 57 c 0
 324 61 324 61 320 66 c 1
 319 69 318 72 318 73 c 0
 318 76 318 76 325 78 c 0
 330 79 334 85 331 90 c 1
 330 94 325 96 322 95 c 0
 319 93 315 99 313 106 c 0
 312 111 310 115 310 116 c 0
 308 121 311 123 316 120 c 0
 320 117 322 118 324 125 c 1
 326 128 325 129 322 132 c 0
 319 135 319 135 322 141 c 0
 326 148 325 153 320 162 c 0
 315 171 315 173 319 178 c 0
 323 184 322 188 317 194 c 0
 315 196 311 201 310 205 c 0
 308 210 307 211 304 211 c 0
 297 211 296 218 302 226 c 0
 304 229 307 232 308 234 c 0
 310 237 312 237 320 238 c 1
 332 238 334 240 332 247 c 0
 331 249 330 253 330 256 c 0
 330 263 320 269 306 269 c 1
 295 270 294 273 301 284 c 0
 307 293 308 299 304 307 c 0
 300 315 309 327 314 322 c 0
 316 320 319 320 319 323 c 0
 319 324 317 327 315 328 c 0
 309 331 308 336 312 344 c 0
 315 350 314 355 309 360 c 1
 304 363 307 371 313 374 c 0
 319 377 321 377 326 373 c 0
 337 363 346 375 335 385 c 0
 328 391 320 393 314 390 c 0
 299 384 293 410 306 425 c 0
 317 437 316 449 305 452 c 0
 303 452 300 453 300 454 c 0
 298 458 295 455 295 449 c 0
 296 443 295 442 290 436 c 0
365 27 m 0
 365 23 366 14 366 8 c 0
 366 -6 369 -9 374 -2 c 0
 378 2 379 14 376 25 c 0
 374 30 374 35 374 48 c 0
 375 67 373 74 368 68 c 0
 366 65 364 39 365 27 c 0
EndSplineSet
EndChar

StartChar: uni0055
Encoding: 85 85 21
Width: 686
Flags: W
LayerCount: 2
Fore
SplineSet
615 647 m 0
 609 641 608 638 610 630 c 0
 611 629 612 627 614 627 c 1
 615 626 617 623 618 620 c 0
 620 611 634 601 637 606 c 0
 638 609 638 660 636 662 c 0
 633 665 631 664 626 658 c 0
 623 655 619 650 615 647 c 0
551 626 m 0
 551 625 549 620 546 614 c 0
 542 603 541 598 544 591 c 0
 545 589 546 581 546 573 c 0
 547 558 547 558 554 549 c 0
 564 535 567 536 575 554 c 0
 581 566 585 570 590 570 c 0
 603 570 611 589 602 598 c 0
 599 600 596 605 595 608 c 0
 593 615 584 621 575 623 c 0
 571 623 568 625 563 630 c 0
 556 638 555 638 553 632 c 0
 552 629 551 627 551 626 c 0
566 513 m 0
 564 502 562 496 558 496 c 0
 556 496 555 492 555 486 c 0
 555 484 554 480 553 478 c 0
 552 476 551 464 551 436 c 2
 551 391 l 1
 550 388 551 384 553 381 c 0
 555 377 555 376 553 369 c 0
 546 340 545 333 548 328 c 0
 552 320 568 333 565 342 c 0
 563 350 564 354 571 363 c 0
 579 372 579 373 566 376 c 0
 564 377 564 382 567 386 c 0
 570 389 569 394 566 399 c 1
 562 403 563 407 566 412 c 0
 569 416 569 416 564 430 c 0
 558 447 558 449 564 454 c 0
 569 459 570 461 567 471 c 0
 565 481 593 489 600 481 c 0
 602 480 609 482 609 484 c 0
 609 485 608 486 606 487 c 0
 598 489 599 495 609 505 c 0
 614 510 613 512 607 515 c 0
 601 517 598 516 595 512 c 0
 590 504 584 508 582 519 c 0
 580 530 574 534 569 527 c 0
 568 525 567 519 566 513 c 0
64 418 m 0
 71 419 71 421 66 429 c 0
 57 446 69 460 80 444 c 0
 85 437 87 437 97 441 c 0
 104 444 104 444 108 442 c 0
 111 440 114 440 115 440 c 0
 118 441 119 437 119 430 c 1
 118 424 118 423 130 415 c 0
 141 408 145 409 145 419 c 0
 145 424 138 435 134 436 c 0
 133 437 131 439 129 442 c 0
 127 446 126 447 122 446 c 0
 114 445 103 454 101 462 c 1
 100 471 94 471 85 462 c 0
 75 452 75 452 67 460 c 1
 60 469 59 469 56 467 c 0
 45 459 52 416 64 418 c 0
51 299 m 0
 55 293 79 294 81 301 c 0
 82 304 85 309 88 313 c 0
 98 325 98 340 88 332 c 0
 81 326 73 329 73 338 c 0
 73 340 72 343 69 346 c 0
 67 348 63 351 61 353 c 0
 56 358 54 358 51 353 c 0
 48 348 48 305 51 299 c 0
123 343 m 0
 128 336 127 333 122 326 c 1
 116 320 116 318 119 314 c 0
 120 312 121 309 120 306 c 0
 119 301 129 296 135 297 c 0
 146 300 149 337 141 352 c 0
 138 356 136 356 128 354 c 0
 120 352 118 350 123 343 c 0
555 307 m 0
 549 311 546 308 547 299 c 0
 548 295 548 286 548 279 c 0
 549 272 549 266 550 265 c 0
 550 264 550 260 549 256 c 0
 543 235 543 224 548 218 c 0
 554 211 558 220 558 239 c 0
 558 255 558 256 563 263 c 0
 568 271 568 271 563 276 c 0
 557 283 558 288 565 288 c 0
 569 288 570 287 573 282 c 0
 579 270 592 275 588 288 c 0
 587 292 586 297 586 299 c 0
 586 309 577 315 570 309 c 0
 565 305 560 304 555 307 c 0
131 277 m 0
 134 277 139 267 139 260 c 0
 139 249 132 244 128 252 c 0
 123 262 108 256 112 247 c 0
 113 243 114 243 122 243 c 0
 130 243 130 243 136 237 c 0
 142 230 144 230 147 237 c 0
 149 243 149 254 147 262 c 0
 146 265 144 271 144 274 c 0
 142 286 131 293 129 284 c 0
 128 281 129 277 131 277 c 0
61 266 m 0
 60 264 57 261 54 259 c 0
 47 252 50 229 58 225 c 0
 60 225 62 223 63 223 c 0
 67 221 67 215 64 212 c 0
 57 207 62 200 73 200 c 0
 77 200 80 199 84 196 c 0
 86 194 89 192 90 192 c 0
 92 192 92 196 89 198 c 0
 84 202 79 221 82 229 c 0
 83 233 83 235 81 242 c 0
 79 249 79 250 81 255 c 0
 87 266 72 281 65 272 c 0
 63 271 62 268 61 266 c 0
579 223 m 0
 574 223 571 219 572 213 c 1
 572 204 570 190 567 186 c 0
 565 183 563 179 562 176 c 0
 561 174 559 170 556 168 c 0
 551 163 550 153 556 152 c 0
 563 150 566 152 572 165 c 0
 581 185 592 189 592 172 c 1
 591 165 592 161 594 159 c 0
 599 151 606 157 605 168 c 0
 605 172 606 184 607 193 c 0
 609 223 600 238 587 226 c 0
 584 224 581 223 579 223 c 0
526 173 m 0
 525 166 521 160 515 153 c 0
 507 144 508 138 517 145 c 0
 518 147 521 149 522 150 c 1
 524 150 528 156 531 163 c 0
 535 171 539 177 546 184 c 0
 556 194 556 197 552 204 c 0
 549 210 546 210 542 204 c 0
 537 198 527 180 526 173 c 0
145 161 m 1
 148 158 151 155 152 152 c 0
 153 147 158 144 161 146 c 1
 169 146 l 1
 181 144 183 149 173 160 c 0
 170 163 166 169 164 174 c 0
 160 184 156 187 153 184 c 0
 141 175 138 165 145 161 c 1
69 174 m 0
 70 171 70 167 69 164 c 1
 69 159 73 153 77 153 c 0
 80 153 84 147 86 139 c 0
 88 130 93 119 100 111 c 0
 102 108 104 104 105 102 c 0
 106 96 110 93 116 94 c 0
 122 95 125 92 125 86 c 2
 125 80 l 2
 125 78 143 59 146 59 c 0
 147 59 151 56 155 52 c 0
 159 48 164 45 165 45 c 2
 174 45 l 2
 182 45 182 45 186 40 c 0
 195 29 197 28 200 35 c 0
 201 38 204 41 205 42 c 0
 209 46 208 49 201 53 c 0
 193 57 191 58 191 63 c 1
 190 66 190 67 184 67 c 2
 175 67 l 2
 174 67 169 71 164 76 c 0
 159 82 154 85 151 86 c 0
 140 88 134 101 140 109 c 0
 147 120 142 129 134 120 c 0
 127 112 119 117 112 132 c 0
 110 138 108 140 105 142 c 0
 98 145 94 160 99 165 c 0
 102 168 90 177 84 176 c 0
 82 176 80 177 79 180 c 0
 77 184 75 184 70 181 c 1
 67 178 67 178 69 174 c 0
537 112 m 0
 539 112 544 108 549 102 c 0
 554 97 559 92 560 92 c 0
 561 92 564 91 566 90 c 0
 571 87 576 89 581 94 c 1
 585 100 582 102 574 98 c 0
 565 94 564 94 557 101 c 0
 548 111 546 121 552 126 c 0
 559 133 548 147 539 142 c 0
 523 131 521 112 537 112 c 0
326 64 m 0
 324 57 342 58 355 65 c 0
 361 68 362 69 367 67 c 0
 373 65 376 67 376 75 c 0
 376 81 361 83 348 80 c 1
 344 78 327 66 326 64 c 0
371 27 m 0
 367 28 365 28 363 27 c 0
 362 26 359 25 357 25 c 0
 353 25 350 21 348 15 c 1
 347 6 356 3 366 9 c 0
 372 12 374 12 388 8 c 0
 394 7 397 5 402 0 c 0
 405 -3 408 -6 409 -6 c 0
 412 -6 416 -1 416 2 c 0
 416 4 418 7 419 10 c 0
 422 17 421 20 416 20 c 0
 412 20 404 23 399 27 c 0
 394 32 388 32 381 28 c 0
 376 25 375 25 371 27 c 0
279 5 m 0
 281 6 286 7 289 7 c 0
 306 7 303 16 285 19 c 0
 269 21 264 22 258 25 c 0
 251 29 249 29 246 25 c 0
 237 11 262 -4 279 5 c 0
EndSplineSet
EndChar

StartChar: uni0056
Encoding: 86 86 22
Width: 652
Flags: W
LayerCount: 2
Fore
SplineSet
68 692 m 0
 64 689 62 689 57 690 c 0
 49 691 46 687 47 679 c 0
 47 675 48 669 49 664 c 0
 50 658 51 654 54 649 c 0
 58 644 58 643 58 628 c 0
 58 604 74 574 79 589 c 0
 80 591 83 595 86 599 c 0
 94 608 95 611 92 616 c 0
 87 626 99 644 110 644 c 0
 114 644 115 647 111 650 c 0
 108 653 108 653 100 649 c 0
 93 646 90 647 89 653 c 0
 87 663 81 669 74 667 c 0
 70 666 64 671 65 674 c 0
 67 678 72 680 78 677 c 0
 95 669 112 681 98 691 c 1
 89 699 87 699 78 697 c 0
 76 697 71 695 68 692 c 0
581 661 m 0
 580 656 580 656 575 655 c 1
 567 655 565 653 568 647 c 0
 571 640 571 636 567 636 c 0
 566 636 563 634 561 633 c 0
 555 628 549 626 545 627 c 0
 540 628 538 625 538 618 c 0
 538 614 542 613 546 618 c 0
 551 624 569 628 573 623 c 1
 581 616 568 600 558 606 c 0
 553 609 552 607 552 596 c 1
 553 587 549 585 546 592 c 0
 541 607 534 610 527 600 c 0
 521 591 521 589 527 582 c 0
 533 575 533 571 529 567 c 0
 520 559 521 553 532 550 c 0
 544 546 549 529 539 525 c 0
 536 523 532 519 528 514 c 0
 522 504 519 504 512 510 c 0
 506 515 499 517 493 516 c 0
 488 515 491 522 496 526 c 1
 513 535 515 539 508 546 c 1
 500 556 499 563 505 574 c 0
 508 580 509 584 509 593 c 0
 509 614 506 613 486 581 c 0
 482 576 481 561 484 553 c 0
 487 543 487 541 479 534 c 0
 474 529 472 525 470 520 c 0
 468 514 466 511 459 505 c 0
 450 497 450 497 450 485 c 0
 450 476 450 473 446 466 c 0
 444 462 440 451 437 441 c 0
 434 432 429 421 427 418 c 0
 425 415 421 407 419 401 c 0
 417 394 414 386 411 383 c 0
 408 379 407 376 407 371 c 0
 406 366 404 360 400 352 c 0
 392 337 395 332 408 336 c 0
 417 339 418 343 414 350 c 0
 409 357 409 358 414 365 c 0
 416 368 418 373 418 376 c 0
 419 380 420 383 423 384 c 1
 430 391 l 2
 436 398 443 401 447 399 c 0
 462 389 461 383 446 380 c 0
 440 379 441 374 450 365 c 1
 458 355 458 353 449 349 c 0
 441 346 439 344 438 338 c 0
 437 336 436 331 435 327 c 0
 433 321 433 320 435 312 c 0
 438 302 436 299 428 294 c 0
 425 292 423 289 422 287 c 0
 420 277 416 274 409 280 c 0
 406 283 405 283 398 283 c 0
 387 283 386 284 390 295 c 0
 391 299 392 303 392 305 c 0
 392 308 397 312 403 314 c 0
 405 315 398 322 395 322 c 0
 391 322 381 310 380 304 c 0
 379 301 375 292 370 283 c 0
 360 264 358 260 353 249 c 0
 332 198 319 177 309 180 c 1
 306 182 304 181 299 179 c 0
 288 175 287 177 291 190 c 0
 292 193 294 197 295 199 c 0
 295 201 297 203 299 204 c 0
 308 206 308 216 298 235 c 0
 296 239 293 246 292 251 c 0
 291 255 289 260 287 262 c 0
 286 264 283 269 282 272 c 0
 278 280 273 283 268 279 c 0
 267 277 264 275 261 274 c 0
 254 269 257 265 267 265 c 0
 293 264 283 248 256 246 c 0
 235 245 232 247 238 260 c 1
 244 270 237 281 229 274 c 0
 221 267 217 269 211 283 c 0
 209 288 206 292 204 294 c 0
 198 297 198 298 198 303 c 0
 198 312 204 311 209 301 c 0
 213 294 216 293 221 296 c 0
 224 297 225 297 233 294 c 0
 237 293 242 292 243 292 c 0
 244 292 247 292 249 291 c 0
 268 281 279 291 269 310 c 0
 260 325 255 329 255 319 c 0
 255 314 253 312 248 314 c 0
 243 317 242 325 247 331 c 0
 255 341 251 368 241 379 c 0
 236 385 234 388 234 394 c 0
 234 397 232 403 229 409 c 0
 225 416 224 422 223 430 c 0
 222 438 220 443 217 450 c 0
 214 455 210 464 208 469 c 0
 206 473 202 481 199 486 c 0
 196 491 193 497 193 501 c 0
 192 506 190 509 187 512 c 0
 182 516 182 517 183 520 c 0
 189 533 170 563 164 552 c 0
 162 548 159 544 156 543 c 0
 153 542 150 540 150 539 c 0
 145 531 141 538 145 546 c 0
 151 557 145 570 131 575 c 0
 123 578 122 577 121 566 c 1
 118 553 116 552 104 560 c 0
 97 565 95 566 95 571 c 0
 94 577 89 582 82 584 c 0
 74 587 80 551 89 545 c 0
 92 543 109 547 113 550 c 0
 116 553 119 552 120 546 c 0
 125 527 124 524 112 531 c 0
 102 536 98 536 96 530 c 0
 93 524 95 519 100 517 c 0
 112 514 112 514 112 507 c 0
 112 500 113 497 119 490 c 0
 126 482 127 476 123 467 c 0
 118 458 118 456 131 437 c 0
 134 432 134 431 134 425 c 0
 132 412 140 396 149 393 c 0
 158 390 158 390 157 377 c 1
 154 359 161 341 173 339 c 0
 183 338 185 334 186 317 c 0
 186 300 188 294 194 291 c 0
 199 289 199 287 200 269 c 0
 201 257 202 252 205 245 c 0
 216 221 220 209 222 202 c 0
 223 198 226 191 228 188 c 0
 231 184 233 178 233 175 c 0
 234 172 238 162 243 153 c 0
 248 143 251 136 251 133 c 0
 251 130 253 124 255 119 c 0
 261 107 268 88 270 83 c 0
 270 81 273 77 276 73 c 0
 282 67 283 64 279 57 c 1
 277 51 278 47 282 39 c 0
 285 32 291 14 293 5 c 0
 295 -6 305 -9 323 -4 c 0
 327 -3 331 -3 334 -4 c 0
 348 -8 364 16 364 39 c 0
 364 45 365 48 369 55 c 0
 377 70 374 77 365 67 c 0
 358 60 353 62 348 73 c 0
 345 82 345 84 352 87 c 0
 356 88 361 91 363 93 c 0
 365 95 369 97 371 97 c 0
 376 97 376 106 373 127 c 0
 372 136 387 144 393 137 c 1
 397 134 410 153 410 161 c 0
 410 166 405 182 402 186 c 0
 398 191 398 197 403 201 c 1
 408 207 415 205 420 197 c 0
 421 194 421 194 424 197 c 0
 429 201 428 210 424 211 c 0
 414 213 414 233 424 238 c 0
 428 240 429 240 433 234 c 0
 439 225 461 268 459 286 c 0
 458 293 458 294 463 301 c 0
 473 314 478 327 476 335 c 0
 474 344 474 346 480 348 c 0
 490 351 489 361 480 360 c 0
 474 360 471 363 473 367 c 0
 476 373 481 375 486 374 c 0
 496 373 503 382 503 396 c 0
 503 403 503 405 508 411 c 0
 514 419 527 445 530 456 c 0
 531 460 536 472 541 481 c 0
 549 497 549 497 548 506 c 0
 547 515 547 515 554 520 c 0
 563 526 572 546 574 562 c 0
 575 572 576 575 579 580 c 0
 591 597 595 615 589 623 c 0
 584 629 584 631 589 638 c 0
 591 640 594 645 595 648 c 2
 602 658 l 1
 608 664 606 667 596 669 c 0
 588 671 589 671 585 668 c 0
 584 667 582 663 581 661 c 0
517 482 m 0
 498 470 489 455 492 441 c 0
 494 430 493 427 484 420 c 0
 477 415 475 413 474 408 c 0
 472 400 464 395 459 400 c 0
 458 401 456 402 455 402 c 0
 447 402 446 412 453 418 c 0
 460 425 461 429 454 435 c 1
 449 441 450 448 455 448 c 0
 462 449 465 452 465 457 c 0
 465 459 466 463 467 466 c 0
 469 470 469 473 468 479 c 0
 467 489 472 495 479 493 c 0
 481 493 490 492 499 492 c 0
 522 491 527 488 517 482 c 0
159 431 m 0
 155 422 159 416 170 412 c 0
 179 409 182 405 178 401 c 0
 171 393 151 401 147 413 c 0
 146 416 144 421 142 424 c 0
 138 431 138 432 142 436 c 0
 144 438 157 439 160 436 c 1
 160 436 160 433 159 431 c 0
270 215 m 0
 264 209 265 204 272 201 c 0
 280 197 281 191 273 188 c 0
 271 188 268 186 265 184 c 0
 255 176 247 185 253 196 c 0
 257 202 257 202 253 204 c 0
 243 211 242 215 249 219 c 0
 252 220 255 223 256 226 c 0
 260 234 266 235 270 228 c 0
 274 223 274 220 270 215 c 0
323 107 m 0
 318 108 312 104 309 98 c 0
 306 92 299 92 296 99 c 0
 292 108 295 115 304 118 c 0
 309 119 310 120 311 125 c 0
 315 137 320 139 330 131 c 0
 345 120 340 104 323 107 c 0
EndSplineSet
EndChar

StartChar: uni0057
Encoding: 87 87 23
Width: 1029
Flags: HW
LayerCount: 2
Fore
SplineSet
32.0713 696 m 4
 36.0713 683 46.0713 687 55.0713 706 c 4
 55.0713 708 58.0713 710 60.0713 712 c 4
 72.0713 718 60.0713 729 48.0713 722 c 4
 42.0713 719 42.0713 719 35.0713 723 c 4
 27.0713 728 25.0713 728 19.0713 723 c 5
 14.0713 717 14.0713 713 20.0713 711 c 4
 26.0713 708 30.0713 703 32.0713 696 c 4
38.0713 640 m 4
 42.0713 646 63.0713 648 70.0713 643 c 4
 72.0713 642 76.0713 641 79.0713 641 c 4
 87.0713 641 89.0713 637 84.0713 633 c 4
 79.0713 629 79.0713 628 83.0713 619 c 4
 87.0713 612 89.0713 611 93.0713 614 c 4
 97.0713 617 99.0713 617 106.071 613 c 4
 112.071 610 115.071 612 115.071 620 c 4
 115.071 625 112.071 626 103.071 628 c 4
 95.0713 630 94.0713 633 99.0713 637 c 4
 106.071 642 98.0713 657 88.0713 657 c 4
 81.0713 657 72.0713 660 64.0713 665 c 4
 53.0713 673 33.0713 669 28.0713 659 c 4
 26.0713 655 26.0713 638 28.0713 636 c 4
 31.0713 633 34.0713 634 38.0713 640 c 4
55.0713 530 m 4
 58.0713 523 61.0713 513 62.0713 509 c 4
 63.0713 504 66.0713 496 69.0713 491 c 4
 72.0713 487 75.0713 478 77.0713 472 c 4
 81.0713 455 90.0713 449 101.071 456 c 4
 109.071 461 109.071 468 99.0713 473 c 4
 94.0713 476 81.0713 492 81.0713 496 c 4
 81.0713 503 90.0713 500 102.071 489 c 4
 105.071 485 110.071 482 111.071 481 c 4
 112.071 481 115.071 478 117.071 475 c 4
 122.071 467 124.071 466 140.071 467 c 5
 162.071 467 164.071 465 163.071 448 c 4
 162.071 437 160.071 434 155.071 435 c 4
 145.071 438 139.071 436 132.071 427 c 4
 125.071 418 122.071 417 116.071 421 c 4
 95.0713 437 92.0713 418 110.071 384 c 4
 119.071 366 122.071 364 129.071 364 c 4
 132.071 364 134.071 363 136.071 359 c 4
 140.071 353 153.071 351 153.071 358 c 4
 153.071 361 145.071 370 141.071 372 c 4
 138.071 374 136.071 377 134.071 382 c 4
 132.071 386 128.071 392 126.071 394 c 4
 120.071 403 126.071 411 135.071 405 c 5
 139.071 401 156.071 392 166.071 387 c 4
 172.071 383 173.071 380 170.071 376 c 4
 161.071 367 180.071 344 191.071 351 c 4
 198.071 355 203.071 353 206.071 342 c 4
 210.071 329 197.071 325 188.071 337 c 5
 183.071 342 181.071 342 175.071 338 c 4
 166.071 332 160.071 332 152.071 338 c 4
 145.071 344 143.071 344 140.071 342 c 4
 134.071 335 145.071 322 156.071 322 c 4
 163.071 322 166.071 321 178.071 311 c 4
 179.071 309 181.071 308 182.071 308 c 4
 183.071 308 185.071 307 187.071 305 c 4
 192.071 302 199.071 302 203.071 305 c 4
 211.071 312 219.071 308 216.071 298 c 4
 215.071 295 214.071 291 215.071 288 c 4
 216.071 282 214.071 281 211.071 286 c 4
 208.071 291 203.071 292 195.071 288 c 4
 192.071 286 187.071 284 185.071 284 c 4
 183.071 284 178.071 283 173.071 282 c 4
 168.071 281 162.071 280 160.071 280 c 4
 153.071 280 154.071 271 161.071 271 c 4
 164.071 271 168.071 270 171.071 269 c 4
 175.071 268 176.071 268 180.071 270 c 4
 190.071 275 193.071 273 192.071 261 c 4
 191.071 248 191.071 247 186.071 244 c 4
 177.071 238 180.071 229 194.071 219 c 4
 199.071 215 200.071 214 200.071 210 c 4
 200.071 207 202.071 202 204.071 198 c 4
 207.071 190 207.071 190 204.071 183 c 4
 201.071 177 201.071 177 208.071 169 c 4
 216.071 160 218.071 156 216.071 149 c 4
 213.071 138 216.071 132 226.071 132 c 4
 230.071 132 234.071 128 234.071 123 c 4
 234.071 120 241.071 112 246.071 110 c 4
 251.071 108 252.071 106 248.071 100 c 4
 245.071 96 246.071 92 251.071 93 c 4
 256.071 95 263.071 93 269.071 87 c 4
 273.071 84 276.071 81 278.071 81 c 5
 286.071 76 252.071 52 244.071 56 c 4
 236.071 60 233.071 54 235.071 35 c 4
 238.071 7 244.071 -2 259.071 0 c 4
 274.071 1 285.071 9 286.071 20 c 5
 288.071 28 291.071 38 297.071 51 c 4
 303.071 65 304.071 68 300.071 76 c 4
 297.071 80 297.071 82 299.071 83 c 4
 307.071 89 311.071 94 313.071 100 c 4
 314.071 104 318.071 116 322.071 127 c 4
 326.071 138 330.071 151 332.071 156 c 4
 333.071 161 336.071 168 338.071 171 c 4
 346.071 186 341.071 201 331.071 194 c 4
 324.071 189 320.071 188 317.071 193 c 4
 312.071 200 315.071 204 333.071 211 c 4
 342.071 215 342.071 215 348.071 212 c 4
 354.071 208 357.071 210 359.071 216 c 4
 360.071 218 362.071 224 364.071 229 c 4
 368.071 237 368.071 239 367.071 244 c 5
 364.071 251 366.071 255 373.071 259 c 4
 383.071 265 388.071 278 387.071 293 c 4
 386.071 303 386.071 304 389.071 306 c 4
 395.071 312 395.071 319 388.071 319 c 4
 385.071 319 383.071 323 385.071 327 c 4
 388.071 332 393.071 333 396.071 330 c 4
 402.071 325 404.071 327 415.071 349 c 4
 423.071 365 423.071 365 422.071 374 c 4
 421.071 383 424.071 391 431.071 397 c 4
 434.071 400 435.071 405 433.071 411 c 4
 431.071 414 432.071 415 436.071 420 c 4
 439.071 423 442.071 427 444.071 430 c 4
 445.071 433 448.071 436 450.071 438 c 4
 454.071 442 461.071 456 464.071 468 c 4
 465.071 472 469.071 480 472.071 485 c 4
 475.071 491 478.071 498 479.071 501 c 4
 480.071 504 482.071 509 483.071 512 c 4
 485.071 515 487.071 522 488.071 528 c 4
 490.071 540 491.071 542 498.071 551 c 4
 504.071 560 508.071 570 506.071 576 c 4
 502.071 585 503.071 586 512.071 585 c 4
 517.071 585 522.071 584 523.071 583 c 4
 525.071 582 528.071 581 529.071 582 c 4
 534.071 584 532.071 577 527.071 574 c 4
 517.071 570 515.071 565 523.071 558 c 4
 530.071 551 536.071 552 542.071 561 c 5
 544.071 566 556.071 567 568.071 564 c 5
 568.071 564 571.071 565 573.071 566 c 4
 578.071 568 584.071 568 590.071 567 c 4
 593.071 566 595.071 566 597.071 569 c 4
 598.071 570 600.071 571 602.071 571 c 4
 604.071 571 604.071 587 600.071 599 c 4
 599.071 604 596.071 613 595.071 618 c 4
 591.071 632 588.071 635 583.071 630 c 4
 578.071 625 571.071 625 571.071 629 c 4
 571.071 631 573.071 633 577.071 635 c 4
 581.071 638 582.071 640 582.071 642 c 4
 582.071 650 579.071 664 576.071 670 c 4
 573.071 674 571.071 680 570.071 684 c 4
 562.071 716 527.071 728 487.071 713 c 4
 465.071 704 461.071 699 456.071 676 c 4
 455.071 673 453.071 667 451.071 664 c 4
 444.071 654 437.071 631 439.071 626 c 5
 441.071 624 450.071 626 456.071 630 c 4
 460.071 632 464.071 632 470.071 629 c 4
 474.071 626 474.071 626 477.071 629 c 4
 481.071 633 479.071 637 473.071 638 c 4
 469.071 639 469.071 639 469.071 647 c 4
 469.071 654 469.071 655 465.071 658 c 4
 462.071 660 462.071 660 464.071 661 c 4
 467.071 663 470.071 661 470.071 657 c 4
 470.071 654 474.071 654 485.071 656 c 4
 491.071 657 496.071 658 496.071 658 c 6
 498.071 658 497.071 664 495.071 668 c 4
 493.071 674 488.071 678 485.071 678 c 4
 476.071 678 472.071 685 480.071 687 c 4
 482.071 687 487.071 688 490.071 689 c 4
 496.071 691 497.071 691 503.071 687 c 4
 507.071 685 512.071 683 514.071 683 c 4
 521.071 683 522.071 675 515.071 672 c 4
 511.071 671 509.071 666 511.071 664 c 4
 513.071 661 520.071 665 521.071 669 c 4
 525.071 679 533.071 669 531.071 657 c 5
 531.071 650 531.071 648 533.071 645 c 4
 536.071 640 535.071 635 530.071 635 c 4
 528.071 635 525.071 633 523.071 632 c 4
 521.071 630 517.071 628 513.071 627 c 4
 506.071 624 505.071 623 503.071 618 c 4
 502.071 615 503.071 615 508.071 615 c 4
 520.071 615 529.071 607 523.071 602 c 5
 518.071 596 511.071 599 501.071 611 c 5
 499.071 615 495.071 614 489.071 609 c 4
 483.071 603 481.071 602 476.071 607 c 4
 460.071 620 455.071 604 468.071 584 c 4
 472.071 577 472.071 577 470.071 574 c 4
 466.071 570 461.071 571 457.071 577 c 4
 450.071 587 440.071 581 438.071 566 c 5
 438.071 557 440.071 555 450.071 555 c 4
 463.071 555 463.071 548 451.071 538 c 4
 446.071 534 439.071 528 436.071 525 c 4
 429.071 518 429.071 518 417.071 527 c 4
 405.071 536 401.071 537 399.071 531 c 4
 397.071 525 397.071 523 403.071 518 c 5
 409.071 511 409.071 504 404.071 501 c 4
 399.071 499 396.071 501 394.071 507 c 4
 393.071 511 391.071 512 386.071 510 c 4
 381.071 507 385.071 493 391.071 493 c 5
 391.071 493 393.071 491 394.071 488 c 4
 397.071 483 398.071 483 401.071 482 c 5
 410.071 482 413.071 473 406.071 466 c 4
 399.071 459 389.071 462 389.071 473 c 4
 389.071 493 368.071 474 363.071 450 c 4
 363.071 447 361.071 444 360.071 443 c 4
 356.071 437 349.071 414 351.071 413 c 4
 352.071 412 354.071 413 365.071 421 c 4
 369.071 424 369.071 434 367.071 440 c 4
 365.071 446 371.071 450 384.071 450 c 4
 405.071 450 409.071 439 395.071 423 c 4
 391.071 418 391.071 416 391.071 413 c 4
 393.071 405 397.071 404 400.071 411 c 4
 401.071 414 403.071 416 404.071 416 c 4
 405.071 416 407.071 416 408.071 417 c 4
 412.071 418 413.071 415 409.071 406 c 5
 407.071 399 407.071 399 402.071 400 c 4
 398.071 401 397.071 400 394.071 397 c 4
 391.071 394 388.071 392 387.071 392 c 4
 383.071 392 383.071 391 381.071 380 c 5
 381.071 372 381.071 371 383.071 368 c 4
 389.071 361 384.071 350 371.071 340 c 4
 363.071 333 362.071 332 369.071 325 c 4
 379.071 314 367.071 300 354.071 307 c 4
 345.071 311 345.071 318 353.071 330 c 4
 358.071 338 356.071 343 346.071 348 c 4
 338.071 352 337.071 356 343.071 365 c 4
 347.071 370 347.071 371 348.071 386 c 4
 348.071 394 349.071 403 349.071 405 c 4
 350.071 407 349.071 406 347.071 403 c 4
 346.071 400 342.071 394 339.071 390 c 4
 336.071 387 332.071 379 329.071 373 c 4
 327.071 367 323.071 358 321.071 354 c 4
 315.071 342 318.071 330 326.071 333 c 4
 332.071 335 339.071 326 337.071 320 c 4
 336.071 316 338.071 311 342.071 311 c 5
 344.071 310 345.071 309 346.071 306 c 5
 346.071 302 352.071 297 356.071 297 c 4
 365.071 297 367.071 288 360.071 281 c 4
 345.071 267 328.071 272 334.071 289 c 4
 336.071 294 336.071 295 333.071 300 c 4
 331.071 304 331.071 307 331.071 309 c 4
 332.071 314 328.071 319 324.071 318 c 4
 323.071 317 320.071 317 319.071 318 c 4
 315.071 319 312.071 317 312.071 313 c 4
 312.071 310 313.071 309 319.071 309 c 4
 323.071 309 324.071 306 321.071 304 c 6
 315.071 301 l 6
 314.071 301 311.071 300 309.071 300 c 4
 293.071 300 285.071 265 299.071 256 c 4
 306.071 251 310.071 258 306.071 266 c 4
 301.071 274 306.071 285 312.071 280 c 4
 313.071 279 315.071 277 317.071 276 c 4
 333.071 264 335.071 258 328.071 249 c 4
 321.071 240 322.071 233 331.071 235 c 4
 339.071 237 341.071 227 334.071 221 c 5
 326.071 211 315.071 217 291.071 245 c 4
 284.071 253 280.071 251 274.071 239 c 4
 266.071 224 269.071 216 280.071 226 c 4
 296.071 242 302.071 230 300.071 186 c 4
 299.071 158 295.071 154 284.071 169 c 4
 278.071 177 277.071 178 272.071 174 c 4
 270.071 172 266.071 171 262.071 170 c 4
 259.071 170 256.071 169 254.071 168 c 4
 248.071 165 246.071 167 249.071 174 c 4
 251.071 177 253.071 182 254.071 186 c 4
 255.071 191 257.071 193 261.071 197 c 4
 267.071 202 268.071 208 262.071 209 c 4
 254.071 210 251.071 216 256.071 226 c 4
 259.071 233 258.071 237 253.071 247 c 4
 251.071 251 249.071 257 249.071 259 c 4
 249.071 264 242.071 282 234.071 296 c 5
 228.071 309 220.071 332 218.071 341 c 5
 218.071 346 216.071 353 214.071 357 c 4
 203.071 376 199.071 388 198.071 397 c 4
 198.071 405 197.071 408 193.071 414 c 4
 189.071 419 187.071 425 186.071 431 c 4
 184.071 438 182.071 444 177.071 452 c 4
 173.071 459 169.071 466 169.071 467 c 4
 169.071 473 166.071 480 159.071 486 c 4
 152.071 492 152.071 492 153.071 499 c 4
 154.071 506 153.071 509 147.071 516 c 4
 144.071 520 143.071 522 142.071 532 c 5
 142.071 543 141.071 544 130.071 552 c 4
 128.071 553 126.071 557 125.071 559 c 5
 125.071 562 123.071 564 120.071 566 c 4
 118.071 567 113.071 570 111.071 572 c 4
 106.071 577 101.071 577 101.071 572 c 4
 101.071 566 92.0713 564 89.0713 569 c 4
 83.0713 578 78.0713 583 74.0713 584 c 4
 71.0713 585 68.0713 586 67.0713 586 c 4
 64.0713 587 64.0713 587 66.0713 584 c 4
 78.0713 567 65.0713 555 53.0713 571 c 4
 41.0713 588 39.0713 582 46.0713 556 c 4
 49.0713 548 53.0713 536 55.0713 530 c 4
542.071 618 m 4
 538.071 629 541.071 642 545.071 633 c 4
 547.071 629 553.071 623 553.071 625 c 4
 553.071 626 554.071 625 555.071 624 c 4
 558.071 621 558.071 616 556.071 614 c 4
 555.071 613 554.071 608 554.071 602 c 4
 555.071 592 554.071 591 552.071 590 c 4
 551.071 590 547.071 588 545.071 587 c 4
 536.071 583 533.071 594 540.071 606 c 4
 544.071 612 544.071 613 542.071 618 c 4
419.071 549 m 4
 421.071 549 423.071 549 425.071 548 c 4
 431.071 547 435.071 556 431.071 560 c 4
 427.071 563 426.071 571 429.071 577 c 4
 432.071 582 432.071 590 429.071 593 c 5
 426.071 598 423.071 594 418.071 582 c 4
 416.071 577 413.071 569 412.071 566 c 4
 408.071 559 408.071 557 412.071 552 c 4
 414.071 551 417.071 549 419.071 549 c 4
552.071 481 m 4
 555.071 474 558.071 465 559.071 460 c 4
 560.071 455 563.071 446 565.071 440 c 4
 568.071 434 572.071 425 573.071 420 c 4
 579.071 402 585.071 388 589.071 381 c 4
 600.071 365 604.071 357 605.071 349 c 4
 606.071 344 607.071 339 608.071 337 c 4
 608.071 335 609.071 331 609.071 328 c 4
 609.071 319 623.071 287 628.071 285 c 4
 629.071 285 629.071 280 629.071 274 c 4
 629.071 264 630.071 262 635.071 251 c 4
 638.071 244 643.071 234 645.071 228 c 4
 653.071 211 656.071 207 661.071 214 c 4
 664.071 218 669.071 218 673.071 215 c 4
 677.071 211 674.071 206 666.071 206 c 4
 657.071 206 656.071 198 663.071 180 c 4
 666.071 173 670.071 164 670.071 161 c 4
 673.071 152 678.071 141 683.071 135 c 4
 689.071 129 692.071 120 692.071 109 c 4
 692.071 104 693.071 99 694.071 98 c 4
 695.071 97 697.071 94 699.071 91 c 4
 701.071 87 703.071 85 704.071 85 c 4
 705.071 85 710.071 84 714.071 84 c 4
 727.071 82 729.071 80 726.071 71 c 4
 725.071 67 723.071 63 723.071 62 c 4
 723.071 61 722.071 59 722.071 59 c 5
 722.071 59 724.071 58 726.071 56 c 4
 733.071 52 732.071 44 724.071 43 c 4
 713.071 42 709.071 32 714.071 23 c 4
 716.071 20 717.071 16 717.071 15 c 4
 718.071 -4 750.071 -15 757.071 1 c 4
 760.071 8 769.071 46 769.071 53 c 4
 769.071 57 769.071 58 773.071 59 c 4
 781.071 62 787.071 83 784.071 93 c 4
 782.071 100 784.071 102 791.071 104 c 4
 800.071 106 807.071 126 802.071 135 c 4
 799.071 139 799.071 139 803.071 143 c 4
 814.071 151 815.071 153 816.071 170 c 4
 817.071 183 817.071 183 823.071 186 c 4
 831.071 190 831.071 191 837.071 204 c 4
 841.071 214 841.071 214 839.071 222 c 4
 837.071 231 838.071 234 846.071 238 c 5
 852.071 242 l 6
 853.071 242 861.071 265 863.071 273 c 5
 865.071 276 867.071 281 868.071 283 c 4
 869.071 285 871.071 289 872.071 293 c 4
 873.071 296 875.071 302 877.071 305 c 4
 879.071 308 881.071 314 882.071 317 c 4
 884.071 321 886.071 328 888.071 331 c 4
 895.071 345 904.071 370 905.071 376 c 4
 906.071 380 908.071 385 910.071 388 c 4
 912.071 390 915.071 397 916.071 402 c 4
 918.071 407 925.071 422 931.071 435 c 4
 937.071 448 943.071 463 944.071 467 c 4
 946.071 472 948.071 479 951.071 483 c 5
 954.071 490 956.071 499 960.071 518 c 4
 960.071 521 963.071 525 967.071 529 c 4
 974.071 535 974.071 536 974.071 543 c 4
 974.071 549 975.071 550 979.071 555 c 5
 986.071 561 990.071 569 990.071 578 c 4
 990.071 584 991.071 588 994.071 593 c 4
 1002.07 608 996.071 617 982.071 610 c 4
 979.071 609 978.071 609 976.071 611 c 4
 973.071 614 975.071 618 981.071 619 c 5
 986.071 621 991.071 630 991.071 637 c 4
 991.071 639 993.071 642 995.071 644 c 4
 998.071 648 1007.07 671 1007.07 677 c 4
 1007.07 680 1008.07 684 1011.07 687 c 4
 1019.07 697 1015.07 702 997.071 704 c 4
 983.071 705 981.071 704 982.071 694 c 4
 982.071 688 982.071 687 979.071 686 c 5
 974.071 686 971.071 689 972.071 693 c 4
 974.071 701 965.071 704 957.071 699 c 4
 945.071 690 946.071 674 960.071 648 c 4
 961.071 647 963.071 646 967.071 646 c 4
 972.071 646 972.071 646 972.071 642 c 4
 972.071 630 953.071 620 953.071 632 c 4
 953.071 639 952.071 641 945.071 644 c 4
 932.071 650 927.071 646 919.071 623 c 5
 909.071 598 910.071 592 919.071 592 c 4
 923.071 592 925.071 591 929.071 586 c 4
 932.071 582 935.071 579 935.071 578 c 4
 936.071 577 938.071 578 941.071 581 c 4
 946.071 587 949.071 587 954.071 581 c 4
 957.071 578 959.071 577 963.071 577 c 4
 972.071 577 967.071 562 955.071 555 c 4
 951.071 552 951.071 551 951.071 545 c 4
 951.071 538 950.071 538 944.071 533 c 4
 935.071 526 934.071 525 934.071 512 c 4
 934.071 500 930.071 494 921.071 492 c 4
 908.071 490 903.071 473 912.071 464 c 4
 919.071 458 918.071 452 907.071 446 c 4
 903.071 444 902.071 438 906.071 435 c 4
 909.071 432 909.071 429 906.071 424 c 4
 900.071 416 883.071 420 883.071 429 c 4
 883.071 431 882.071 435 881.071 438 c 4
 876.071 447 878.071 455 884.071 455 c 4
 892.071 455 894.071 470 887.071 479 c 4
 883.071 484 882.071 487 882.071 491 c 4
 882.071 499 880.071 503 875.071 503 c 4
 862.071 503 861.071 486 874.071 484 c 4
 881.071 482 881.071 482 881.071 474 c 4
 881.071 457 873.071 451 864.071 461 c 4
 859.071 467 856.071 465 850.071 450 c 4
 847.071 445 845.071 441 844.071 441 c 5
 844.071 440 842.071 437 841.071 434 c 4
 840.071 431 838.071 427 837.071 425 c 4
 832.071 419 825.071 403 823.071 394 c 4
 821.071 388 818.071 380 815.071 375 c 4
 808.071 361 809.071 358 821.071 355 c 4
 832.071 353 836.071 344 829.071 336 c 4
 826.071 332 825.071 329 825.071 328 c 4
 826.071 327 827.071 323 827.071 321 c 4
 827.071 314 828.071 312 832.071 313 c 4
 837.071 315 847.071 308 847.071 302 c 4
 847.071 297 840.071 290 836.071 290 c 4
 812.071 290 801.071 297 807.071 308 c 4
 810.071 314 810.071 316 806.071 323 c 4
 804.071 326 802.071 330 802.071 332 c 4
 800.071 339 795.071 337 791.071 327 c 4
 790.071 323 787.071 318 786.071 317 c 4
 785.071 315 783.071 311 782.071 307 c 4
 781.071 303 777.071 296 775.071 293 c 4
 769.071 285 767.071 279 764.071 263 c 4
 761.071 249 760.071 246 754.071 240 c 4
 751.071 237 750.071 235 751.071 230 c 4
 751.071 226 751.071 225 748.071 225 c 4
 746.071 225 746.071 226 746.071 231 c 4
 746.071 237 746.071 237 741.071 239 c 4
 731.071 243 728.071 246 726.071 254 c 4
 724.071 259 722.071 264 717.071 269 c 4
 713.071 274 711.071 277 712.071 279 c 4
 716.071 289 713.071 301 697.071 332 c 4
 695.071 337 692.071 344 691.071 349 c 4
 689.071 357 685.071 366 683.071 366 c 4
 681.071 366 678.071 370 678.071 374 c 4
 678.071 376 676.071 381 674.071 385 c 4
 672.071 390 671.071 394 671.071 399 c 4
 671.071 412 668.071 424 662.071 436 c 4
 658.071 443 655.071 452 654.071 457 c 4
 652.071 464 651.071 465 641.071 474 c 5
 636.071 477 636.071 477 639.071 485 c 5
 641.071 494 641.071 494 636.071 508 c 5
 630.071 521 628.071 524 620.071 530 c 4
 617.071 532 617.071 532 619.071 539 c 4
 620.071 546 620.071 547 618.071 551 c 4
 615.071 557 612.071 559 612.071 556 c 4
 612.071 552 607.071 549 600.071 549 c 4
 586.071 550 578.071 547 573.071 541 c 4
 567.071 534 565.071 535 560.071 543 c 5
 555.071 555 547.071 550 548.071 535 c 4
 548.071 527 547.071 521 545.071 517 c 4
 543.071 510 543.071 505 545.071 499 c 4
 546.071 496 549.071 488 552.071 481 c 4
596.071 526 m 4
 593.071 517 593.071 512 596.071 506 c 4
 599.071 498 600.071 484 597.071 482 c 4
 592.071 478 587.071 483 584.071 497 c 4
 583.071 500 580.071 505 578.071 508 c 4
 574.071 513 568.071 520 568.071 521 c 6
 568.071 521 569.071 522 570.071 524 c 4
 575.071 537 599.071 539 596.071 526 c 4
688.071 287 m 4
 685.071 282 686.071 278 690.071 270 c 4
 695.071 261 694.071 257 688.071 256 c 4
 681.071 254 673.071 263 673.071 272 c 4
 673.071 274 672.071 278 669.071 281 c 4
 661.071 291 660.071 295 667.071 300 c 4
 679.071 310 695.071 299 688.071 287 c 4
713.071 163 m 4
 718.071 160 718.071 160 725.071 163 c 4
 735.071 168 737.071 168 743.071 163 c 5
 747.071 161 750.071 160 752.071 160 c 4
 757.071 161 757.071 159 751.071 154 c 4
 748.071 151 742.071 146 738.071 141 c 4
 729.071 132 727.071 132 716.071 138 c 4
 706.071 143 704.071 150 708.071 164 c 4
 708.071 165 710.071 165 713.071 163 c 4
804.071 282 m 4
 808.071 281 813.071 280 816.071 281 c 4
 824.071 282 827.071 279 827.071 271 c 4
 827.071 268 828.071 263 829.071 261 c 4
 831.071 252 826.071 247 818.071 252 c 4
 812.071 256 806.071 256 800.071 250 c 4
 789.071 241 783.071 241 779.071 250 c 5
 775.071 263 774.071 262 783.071 272 c 4
 793.071 283 794.071 284 804.071 282 c 4
841.071 382 m 4
 832.071 391 845.071 408 860.071 407 c 4
 867.071 406 868.071 407 872.071 410 c 4
 877.071 414 878.071 414 884.071 407 c 4
 887.071 404 892.071 399 895.071 397 c 4
 906.071 387 896.071 381 880.071 387 c 4
 862.071 393 853.071 385 862.071 372 c 4
 867.071 365 868.071 358 865.071 348 c 4
 862.071 335 850.071 332 850.071 343 c 4
 850.071 348 845.071 353 842.071 353 c 4
 835.071 353 834.071 359 841.071 368 c 4
 847.071 375 847.071 377 841.071 382 c 4
882.071 514 m 4
 890.071 520 892.071 520 897.071 517 c 4
 909.071 509 922.071 522 919.071 539 c 4
 916.071 556 925.071 565 935.071 556 c 4
 945.071 547 951.071 554 944.071 569 c 4
 940.071 577 937.071 578 933.071 571 c 4
 929.071 564 927.071 565 922.071 576 c 4
 914.071 592 908.071 593 904.071 580 c 4
 903.071 576 899.071 571 897.071 569 c 4
 891.071 563 889.071 559 886.071 550 c 4
 885.071 546 882.071 539 880.071 534 c 4
 875.071 525 874.071 517 877.071 514 c 4
 879.071 512 880.071 512 882.071 514 c 4
EndSplineSet
EndChar

StartChar: uni0058
Encoding: 88 88 24
Width: 703
Flags: W
LayerCount: 2
Fore
SplineSet
57 693 m 0
 62 692 63 691 65 685 c 0
 72 669 87 662 98 671 c 0
 100 673 103 675 105 675 c 0
 108 675 109 676 108 679 c 0
 108 681 109 682 111 682 c 0
 115 682 121 687 121 690 c 0
 121 693 116 697 113 697 c 0
 112 697 108 698 106 700 c 0
 102 702 99 703 88 703 c 1
 81 702 72 703 69 704 c 0
 64 705 61 705 57 703 c 0
 47 700 47 696 57 693 c 0
588 699 m 1
 563 700 559 699 536 681 c 0
 523 672 522 670 518 660 c 0
 514 651 507 640 497 630 c 0
 494 626 490 621 489 619 c 0
 488 616 486 612 484 610 c 0
 474 600 477 596 493 598 c 0
 509 600 516 591 509 578 c 0
 507 575 505 570 505 567 c 0
 503 558 502 557 494 552 c 0
 490 550 484 545 481 543 c 0
 477 540 474 538 473 538 c 0
 468 538 462 524 464 518 c 0
 466 514 464 509 461 505 c 1
 455 500 449 503 447 512 c 0
 447 515 446 517 446 517 c 1
 444 517 435 508 432 503 c 0
 424 489 424 489 415 498 c 0
 407 506 406 507 403 502 c 0
 400 498 400 498 404 492 c 0
 411 478 412 478 424 478 c 1
 447 480 449 465 425 463 c 0
 408 461 407 449 424 445 c 0
 432 443 437 439 435 436 c 0
 433 433 419 431 415 433 c 0
 408 436 394 433 385 425 c 0
 379 421 370 421 361 425 c 0
 359 426 353 427 348 427 c 0
 337 427 329 431 319 439 c 0
 313 445 302 442 301 434 c 0
 298 420 288 417 277 426 c 1
 274 430 273 430 269 428 c 0
 261 424 257 426 256 436 c 0
 255 444 258 449 261 444 c 1
 267 438 269 435 271 435 c 0
 275 435 278 444 277 451 c 0
 276 459 279 460 287 457 c 0
 299 453 300 466 289 476 c 0
 282 483 282 483 277 480 c 0
 273 478 269 477 260 477 c 1
 254 476 247 476 245 475 c 0
 234 471 210 479 209 487 c 0
 208 492 186 490 184 485 c 0
 182 479 198 460 210 453 c 0
 217 449 219 446 219 439 c 0
 219 428 233 413 244 413 c 0
 248 413 251 412 254 410 c 0
 257 408 260 407 263 407 c 0
 266 407 273 408 279 408 c 0
 285 408 291 409 292 410 c 0
 294 412 295 412 298 410 c 0
 300 409 303 409 310 411 c 0
 328 415 336 407 330 391 c 0
 329 389 327 386 327 386 c 2
 326 386 324 385 322 384 c 1
 320 381 320 381 318 386 c 0
 316 394 312 398 308 396 c 0
 304 394 297 395 291 398 c 0
 286 401 286 401 281 396 c 0
 278 393 273 389 270 386 c 0
 261 378 265 369 278 363 c 0
 282 361 287 358 288 356 c 0
 294 350 303 353 303 360 c 0
 303 376 316 373 321 357 c 1
 323 354 329 349 332 349 c 0
 336 349 338 338 334 332 c 0
 330 327 332 326 342 325 c 0
 348 325 354 324 356 323 c 0
 359 322 360 322 365 325 c 0
 371 329 375 328 378 321 c 0
 385 308 404 308 399 321 c 0
 398 323 398 328 399 332 c 0
 400 341 387 351 383 345 c 0
 381 343 369 341 368 343 c 0
 364 349 373 352 381 348 c 0
 383 347 384 348 386 353 c 0
 388 356 392 362 395 366 c 0
 402 375 403 381 397 390 c 0
 393 396 393 402 396 404 c 0
 399 407 404 404 406 398 c 0
 409 389 418 393 423 405 c 0
 424 409 426 412 427 413 c 0
 428 414 431 415 433 416 c 0
 443 420 465 449 465 457 c 0
 465 463 466 464 476 469 c 0
 485 473 493 483 499 495 c 0
 502 501 504 503 509 506 c 0
 513 508 517 513 520 517 c 0
 523 521 527 526 529 528 c 0
 531 530 535 535 538 539 c 0
 541 544 546 549 548 551 c 0
 555 556 559 563 559 570 c 0
 559 580 560 582 568 583 c 0
 579 585 583 588 592 602 c 0
 595 607 603 616 621 635 c 0
 635 650 638 655 639 667 c 1
 641 676 642 678 649 685 c 0
 664 699 638 710 613 700 c 0
 607 698 605 697 588 699 c 1
567 665 m 0
 566 657 566 655 569 650 c 0
 572 644 572 645 567 631 c 0
 565 627 566 626 572 616 c 0
 576 610 574 607 564 605 c 0
 555 603 512 604 510 606 c 0
 507 608 512 616 518 617 c 1
 528 621 530 625 525 634 c 0
 521 641 523 644 537 651 c 0
 549 657 549 657 550 664 c 0
 553 676 561 683 566 677 c 0
 567 675 567 672 567 665 c 0
354 384 m 0
 351 368 351 353 355 349 c 0
 361 344 360 340 353 343 c 0
 352 343 347 346 343 348 c 0
 336 351 335 352 334 356 c 0
 333 365 338 385 342 385 c 0
 343 385 348 394 349 400 c 1
 351 405 351 404 354 395 c 0
 355 391 355 386 354 384 c 0
73 621 m 0
 76 617 83 610 87 605 c 0
 94 595 94 595 104 595 c 1
 113 594 113 594 113 584 c 0
 112 574 112 574 118 568 c 0
 128 557 133 561 129 576 c 0
 127 582 127 583 128 587 c 1
 132 593 131 596 126 599 c 0
 118 603 115 607 115 614 c 0
 115 620 114 621 110 625 c 0
 105 630 102 635 102 641 c 0
 102 647 86 651 73 649 c 0
 64 647 63 631 73 621 c 0
160 633 m 0
 157 633 155 631 153 627 c 0
 151 624 147 619 144 617 c 0
 138 613 136 609 139 604 c 0
 141 601 142 597 142 594 c 0
 142 589 146 588 151 591 c 1
 155 595 159 594 165 589 c 0
 170 584 171 584 178 589 c 0
 182 592 184 592 190 591 c 0
 203 588 206 594 197 603 c 0
 193 607 192 609 192 614 c 0
 192 627 177 639 166 634 c 0
 165 634 162 633 160 633 c 0
169 556 m 0
 174 546 174 546 172 541 c 0
 167 528 177 509 185 517 c 0
 189 521 188 527 180 536 c 0
 174 542 174 543 179 546 c 0
 181 548 182 550 182 554 c 0
 182 559 186 564 190 564 c 0
 192 564 196 560 196 558 c 0
 196 557 198 552 201 548 c 1
 206 537 206 528 199 522 c 0
 194 518 194 518 199 518 c 0
 202 518 203 519 205 522 c 0
 209 533 224 538 225 530 c 0
 225 527 227 522 227 520 c 0
 228 517 229 512 229 509 c 0
 229 493 240 483 245 496 c 0
 246 498 249 501 253 503 c 0
 264 508 265 513 254 517 c 0
 248 520 238 529 235 537 c 0
 233 540 231 543 228 544 c 0
 224 546 223 549 223 558 c 0
 223 565 220 572 216 573 c 0
 210 575 205 575 197 574 c 0
 189 573 177 575 173 577 c 0
 172 578 169 577 168 575 c 0
 163 570 163 568 169 556 c 0
274 340 m 0
 265 340 237 313 237 304 c 0
 237 303 235 301 233 300 c 0
 225 296 220 286 227 286 c 0
 233 286 237 289 237 294 c 0
 237 302 250 305 252 297 c 0
 253 292 251 289 246 286 c 0
 239 283 242 274 253 268 c 0
 263 262 272 265 265 272 c 0
 259 279 263 283 275 283 c 0
 285 283 289 278 284 273 c 0
 280 270 279 266 281 261 c 0
 284 252 269 242 258 246 c 0
 247 249 246 249 244 242 c 0
 241 230 234 228 230 238 c 0
 228 243 226 245 220 249 c 0
 207 256 205 263 212 270 c 0
 216 274 221 281 219 283 c 0
 218 284 212 278 210 273 c 0
 206 265 194 251 187 246 c 0
 186 245 182 240 179 236 c 0
 176 231 172 227 169 226 c 0
 157 221 141 200 145 196 c 0
 147 194 164 210 177 224 c 0
 180 227 183 230 185 230 c 0
 188 230 193 235 194 240 c 0
 197 253 210 249 208 236 c 0
 207 227 209 224 218 224 c 0
 230 224 237 209 229 200 c 0
 225 194 227 189 234 187 c 0
 240 186 256 197 269 215 c 0
 275 222 282 231 286 235 c 0
 289 239 293 246 295 250 c 0
 297 254 304 261 310 268 c 1
 324 281 326 287 318 295 c 0
 313 299 313 301 316 309 c 0
 318 315 317 319 312 320 c 0
 309 321 308 321 309 329 c 0
 309 337 306 341 301 339 c 0
 300 339 298 339 296 340 c 0
 293 343 291 341 291 333 c 0
 291 328 291 325 288 322 c 0
 286 319 284 315 284 313 c 0
 284 302 276 299 261 305 c 0
 252 309 261 325 273 325 c 0
 276 325 288 336 288 339 c 0
 288 343 285 344 282 342 c 0
 280 341 277 340 274 340 c 0
369 287 m 0
 374 279 380 276 383 280 c 0
 385 282 390 282 393 279 c 0
 396 275 393 270 385 267 c 0
 379 264 377 261 381 256 c 1
 384 250 403 243 407 246 c 0
 411 250 408 262 403 264 c 0
 399 265 397 274 400 277 c 0
 408 286 402 303 393 298 c 0
 387 294 384 294 379 297 c 2
 373 301 l 2
 372 301 370 300 369 300 c 0
 364 299 364 296 369 287 c 0
446 242 m 0
 444 236 443 236 438 235 c 1
 427 235 427 228 439 222 c 0
 442 220 447 216 449 213 c 0
 452 209 453 209 460 209 c 1
 468 211 472 205 470 194 c 0
 469 185 478 184 489 191 c 0
 504 201 516 189 501 179 c 1
 490 170 508 150 531 146 c 0
 534 146 540 143 546 137 c 1
 559 127 562 125 562 128 c 0
 562 129 561 130 561 131 c 1
 560 131 557 136 555 141 c 0
 551 149 546 154 537 160 c 0
 535 161 533 165 532 168 c 0
 531 172 528 176 521 183 c 0
 513 190 509 195 507 201 c 0
 500 216 493 220 489 213 c 0
 486 208 479 207 471 211 c 0
 463 215 463 227 471 234 c 0
 475 238 475 238 473 244 c 0
 467 257 462 259 454 252 c 0
 451 250 448 246 446 242 c 0
397 228 m 0
 390 225 389 223 393 215 c 0
 394 212 396 210 399 210 c 0
 402 209 406 206 410 202 c 0
 417 195 417 195 422 196 c 0
 441 201 440 201 435 210 c 0
 433 215 429 218 426 217 c 1
 426 217 424 217 422 218 c 0
 420 219 417 220 416 220 c 0
 414 221 413 222 413 224 c 0
 413 230 409 234 405 231 c 1
 405 231 401 229 397 228 c 0
164 144 m 0
 156 140 156 139 155 119 c 0
 154 99 154 98 144 101 c 1
 132 103 122 97 119 84 c 0
 117 78 116 77 109 74 c 0
 102 70 101 70 98 62 c 0
 94 51 88 45 79 45 c 0
 73 45 73 45 73 39 c 0
 73 34 72 33 67 29 c 0
 62 26 57 20 54 14 c 0
 53 12 66 4 70 4 c 0
 73 4 78 3 81 2 c 0
 93 -2 103 6 92 11 c 0
 89 12 88 13 89 19 c 0
 89 22 88 27 88 29 c 0
 87 33 87 34 90 35 c 0
 95 37 97 35 97 28 c 0
 97 10 110 12 124 32 c 0
 128 37 134 46 139 50 c 1
 143 55 148 63 151 68 c 0
 154 75 158 80 165 87 c 1
 173 93 177 98 180 105 c 0
 183 111 188 117 194 123 c 0
 211 139 211 141 196 155 c 0
 183 167 183 167 179 159 c 0
 175 151 173 148 164 144 c 0
462 131 m 0
 457 127 457 122 461 117 c 0
 466 111 469 112 470 120 c 0
 471 126 471 128 475 129 c 1
 484 134 487 129 485 115 c 1
 482 102 489 98 499 108 c 0
 505 113 508 114 523 116 c 0
 535 118 539 123 534 129 c 0
 529 135 515 131 508 122 c 0
 502 115 490 115 493 122 c 0
 494 123 495 125 497 125 c 0
 501 125 498 131 491 135 c 0
 489 137 486 140 485 142 c 0
 483 149 480 148 472 141 c 0
 469 138 465 133 462 131 c 0
549 66 m 0
 543 71 540 72 534 70 c 0
 521 66 517 57 528 56 c 0
 531 56 534 56 535 55 c 0
 538 54 531 49 526 49 c 0
 515 49 516 43 529 29 c 0
 540 16 543 15 544 21 c 0
 546 30 547 30 560 24 c 0
 572 18 574 15 569 10 c 0
 567 7 567 7 569 5 c 0
 570 4 571 2 572 1 c 0
 572 0 574 -1 576 -1 c 0
 577 -1 580 -3 582 -4 c 0
 587 -8 594 -9 603 -7 c 0
 610 -5 611 -5 616 -9 c 0
 630 -19 634 -20 639 -15 c 0
 643 -11 641 -3 636 4 c 1
 631 9 631 17 634 24 c 0
 641 36 634 48 619 53 c 0
 613 55 611 56 609 61 c 0
 607 65 606 66 601 66 c 0
 594 66 588 70 588 76 c 0
 588 90 581 91 572 77 c 1
 562 64 555 61 549 66 c 0
EndSplineSet
EndChar

StartChar: uni0059
Encoding: 89 89 25
Width: 666
Flags: W
LayerCount: 2
Fore
SplineSet
49 713 m 0
 51 710 51 707 51 704 c 0
 50 699 51 696 61 685 c 0
 71 673 77 673 78 685 c 0
 79 697 90 687 95 669 c 0
 96 664 96 664 106 662 c 0
 124 659 125 658 115 649 c 0
 108 642 107 639 113 631 c 0
 116 626 117 624 117 618 c 0
 117 612 118 610 120 608 c 0
 127 603 135 608 131 614 c 1
 129 620 130 624 135 631 c 1
 142 638 142 639 138 651 c 0
 133 664 135 667 147 667 c 0
 159 668 168 672 168 675 c 0
 168 687 160 697 152 697 c 0
 144 697 142 699 138 707 c 0
 136 713 133 715 133 711 c 0
 133 701 117 703 112 714 c 0
 108 721 102 722 78 719 c 0
 73 718 70 719 67 720 c 0
 61 723 49 723 48 720 c 0
 47 719 48 716 49 713 c 0
505 699 m 0
 502 694 497 689 495 687 c 0
 486 680 481 670 485 667 c 0
 489 665 504 677 508 686 c 0
 511 692 516 691 515 685 c 0
 515 683 515 678 514 674 c 0
 514 670 513 665 512 663 c 0
 510 659 510 659 514 656 c 0
 516 654 520 651 523 649 c 0
 525 647 529 645 531 645 c 0
 534 644 539 642 542 639 c 0
 548 633 549 633 553 637 c 0
 557 642 556 645 550 648 c 0
 546 650 543 653 540 657 c 0
 538 660 535 664 533 666 c 0
 529 669 529 670 533 673 c 0
 541 681 542 681 550 677 c 0
 560 672 561 670 560 660 c 0
 559 646 566 644 577 654 c 0
 589 664 593 675 590 688 c 0
 588 701 592 704 610 701 c 0
 617 699 620 701 619 706 c 0
 617 713 599 715 590 709 c 0
 584 704 577 704 567 710 c 0
 555 717 532 717 519 711 c 0
 512 707 509 705 505 699 c 0
175 661 m 0
 175 657 173 654 170 650 c 0
 163 641 164 633 172 624 c 1
 177 620 176 620 191 622 c 0
 194 623 196 622 199 619 c 2
 205 613 l 2
 211 608 210 595 203 587 c 0
 195 578 197 574 208 572 c 1
 220 571 225 568 225 561 c 0
 226 553 234 552 240 558 c 0
 249 567 238 587 227 581 c 0
 219 577 214 586 222 591 c 0
 230 596 228 603 218 608 c 0
 210 612 209 614 208 624 c 0
 208 628 207 632 203 637 c 0
 200 641 196 648 192 653 c 0
 185 665 179 670 176 667 c 0
 175 666 175 664 175 661 c 0
512 630 m 0
 513 623 513 622 508 620 c 0
 496 614 490 603 493 592 c 0
 494 586 501 587 504 592 c 0
 507 597 514 598 515 593 c 0
 515 589 490 567 485 567 c 0
 484 567 481 565 477 562 c 0
 474 559 470 557 469 557 c 0
 466 557 461 552 459 546 c 0
 458 541 450 532 440 524 c 0
 437 522 434 518 433 516 c 0
 431 510 416 492 413 491 c 0
 412 490 409 487 408 484 c 0
 402 473 388 476 389 488 c 0
 390 491 391 498 391 503 c 0
 393 518 400 523 409 514 c 0
 416 507 422 514 420 526 c 0
 418 534 418 534 407 535 c 0
 402 536 397 537 396 538 c 0
 388 542 384 537 383 523 c 0
 382 518 381 510 380 506 c 0
 378 500 377 498 379 493 c 1
 380 487 380 486 376 481 c 0
 374 477 372 473 371 470 c 0
 370 463 368 461 362 460 c 0
 356 459 356 458 359 448 c 0
 361 441 363 440 376 440 c 0
 388 440 385 433 372 430 c 0
 365 428 363 427 361 424 c 0
 360 422 356 418 353 415 c 0
 347 410 347 410 347 397 c 1
 349 382 346 376 332 365 c 0
 320 356 320 349 331 341 c 0
 344 330 347 327 347 322 c 0
 347 318 342 312 338 312 c 0
 336 312 334 309 331 306 c 0
 326 299 320 296 310 298 c 0
 304 299 300 296 298 289 c 0
 297 285 295 284 293 284 c 0
 288 284 286 288 286 301 c 1
 287 310 301 321 312 321 c 0
 319 321 322 322 322 327 c 0
 322 331 318 333 312 333 c 0
 298 333 289 347 295 356 c 0
 298 361 299 370 297 372 c 0
 296 372 293 376 290 380 c 0
 282 392 279 391 279 374 c 0
 278 330 276 283 274 278 c 0
 273 274 273 263 273 237 c 1
 274 218 274 200 274 197 c 0
 274 195 274 179 273 162 c 0
 273 145 273 127 272 121 c 0
 271 108 281 96 283 108 c 0
 285 120 286 135 285 146 c 0
 284 152 284 154 286 158 c 0
 289 165 286 185 280 194 c 0
 278 197 278 198 280 201 c 0
 285 210 287 225 285 234 c 0
 283 245 300 272 310 272 c 0
 326 272 339 252 327 244 c 0
 317 237 329 222 346 220 c 0
 363 219 362 208 344 205 c 0
 329 202 322 192 330 187 c 0
 341 180 341 180 339 176 c 0
 338 172 335 169 316 156 c 0
 306 149 311 142 327 143 c 0
 340 143 347 136 342 128 c 0
 337 121 336 118 336 113 c 0
 336 105 334 104 326 104 c 0
 320 104 316 102 316 99 c 0
 316 94 346 73 352 73 c 0
 365 73 372 98 363 114 c 0
 359 122 359 123 362 129 c 0
 368 141 369 202 363 210 c 0
 359 214 359 216 364 221 c 0
 367 224 367 227 368 242 c 0
 369 252 369 264 370 269 c 0
 372 286 366 297 356 297 c 0
 349 297 346 299 347 305 c 0
 348 309 350 310 358 308 c 0
 369 305 374 348 365 368 c 0
 361 379 372 398 388 408 c 0
 396 414 398 416 401 423 c 0
 404 428 407 433 409 435 c 0
 414 440 428 457 432 464 c 0
 434 467 439 473 443 478 c 0
 447 482 453 491 457 496 c 0
 460 501 464 506 466 507 c 0
 467 508 472 514 477 520 c 1
 481 527 489 535 493 540 c 0
 496 544 501 551 503 555 c 0
 505 558 509 564 513 569 c 0
 524 581 527 586 527 593 c 0
 527 597 528 600 530 601 c 0
 542 611 542 611 541 615 c 0
 541 618 539 620 535 623 c 0
 531 626 527 630 526 632 c 0
 521 640 521 641 515 638 c 0
 512 637 512 636 512 630 c 0
187 552 m 2
 186 549 184 546 182 544 c 0
 176 541 176 536 181 532 c 1
 184 531 185 528 186 523 c 0
 189 506 200 505 203 520 c 0
 204 525 207 525 211 519 c 0
 214 515 218 514 221 517 c 0
 225 523 246 525 258 522 c 0
 266 520 265 520 268 530 c 0
 271 543 268 548 257 543 c 0
 254 542 248 540 244 540 c 0
 240 540 236 539 233 538 c 0
 224 532 218 535 217 545 c 0
 216 550 215 551 211 552 c 1
 208 554 203 556 200 559 c 0
 195 564 194 564 191 560 c 2
 187 552 l 2
293 468 m 0
 295 463 293 459 289 459 c 0
 287 459 284 458 282 457 c 0
 280 456 276 456 273 456 c 0
 268 457 253 452 253 449 c 0
 253 442 272 438 278 444 c 0
 280 446 281 447 286 446 c 0
 292 445 292 445 295 450 c 0
 298 455 298 455 304 455 c 0
 310 455 317 457 322 461 c 0
 323 462 328 463 333 463 c 0
 342 463 342 463 344 467 c 0
 350 479 338 483 328 473 c 0
 322 467 314 467 307 474 c 0
 302 479 298 481 295 479 c 0
 293 477 291 472 293 468 c 0
269 44 m 0
 269 34 268 24 268 21 c 0
 265 9 270 5 279 10 c 0
 285 13 285 13 294 11 c 0
 307 7 310 7 315 8 c 1
 318 10 322 10 338 8 c 0
 362 4 363 5 367 16 c 0
 372 28 372 30 364 36 c 0
 358 41 358 42 358 48 c 0
 359 57 353 60 347 54 c 0
 339 47 338 47 324 47 c 1
 312 48 310 48 304 44 c 0
 293 38 292 39 283 54 c 0
 276 67 274 69 271 65 c 0
 270 63 269 58 269 44 c 0
EndSplineSet
EndChar

StartChar: uni005A
Encoding: 90 90 26
Width: 816
Flags: W
LayerCount: 2
Fore
SplineSet
292 604 m 0
 289 602 285 601 283 601 c 0
 275 601 270 582 277 578 c 0
 281 576 282 574 280 569 c 0
 276 561 286 559 299 566 c 0
 310 571 316 568 318 556 c 0
 320 546 302 545 295 555 c 0
 292 559 287 560 286 556 c 0
 285 555 283 551 281 548 c 0
 273 538 278 531 292 529 c 1
 304 529 345 532 351 534 c 0
 358 537 364 537 373 532 c 0
 382 527 382 527 392 530 c 0
 399 532 404 532 411 531 c 0
 433 529 444 529 450 530 c 1
 454 532 458 532 462 531 c 0
 466 530 471 530 478 531 c 0
 487 532 490 532 497 530 c 0
 506 528 509 528 525 532 c 0
 539 535 542 539 536 547 c 0
 533 551 533 553 534 560 c 0
 536 577 549 580 551 564 c 0
 552 554 565 556 565 565 c 0
 565 573 577 567 585 554 c 1
 594 542 609 541 603 554 c 0
 600 560 601 562 607 564 c 0
 613 566 616 563 615 557 c 0
 614 554 615 553 617 552 c 0
 622 550 625 552 636 562 c 1
 646 573 650 575 654 570 c 0
 657 566 657 562 651 556 c 0
 645 549 645 549 651 538 c 0
 655 529 655 529 662 528 c 0
 669 528 672 525 669 521 c 1
 667 520 667 519 669 517 c 0
 674 511 668 503 663 508 c 0
 661 510 657 512 655 513 c 0
 649 515 645 517 643 523 c 1
 637 534 631 534 627 523 c 0
 623 512 624 510 635 510 c 0
 648 510 653 498 641 495 c 0
 635 493 635 490 637 473 c 0
 639 462 631 453 620 454 c 0
 614 455 613 455 609 452 c 0
 601 446 595 448 593 457 c 0
 592 459 590 461 588 461 c 0
 586 462 583 462 583 463 c 1
 582 463 581 466 580 469 c 0
 578 479 572 482 567 477 c 0
 565 474 564 472 564 470 c 0
 565 468 566 465 566 463 c 0
 567 460 569 458 574 455 c 0
 584 450 584 447 574 441 c 0
 564 436 560 436 555 440 c 1
 551 445 546 444 546 438 c 0
 546 436 545 432 544 431 c 0
 540 427 540 421 543 417 c 0
 550 408 543 394 531 396 c 0
 526 396 524 396 515 390 c 0
 498 378 495 380 495 398 c 1
 494 415 493 416 481 409 c 0
 475 405 471 400 471 396 c 0
 471 395 469 391 466 387 c 0
 455 374 458 360 473 362 c 0
 488 364 491 354 481 335 c 0
 475 323 475 323 467 323 c 0
 460 323 459 322 453 317 c 0
 445 310 443 310 439 314 c 0
 434 319 438 330 448 336 c 0
 460 342 462 359 452 368 c 0
 450 369 448 372 447 375 c 0
 443 384 428 375 430 366 c 0
 433 355 429 350 422 353 c 0
 415 355 415 354 412 344 c 0
 410 338 410 335 411 332 c 0
 414 326 412 321 407 319 c 0
 402 317 399 319 399 323 c 0
 399 339 381 331 379 313 c 0
 377 303 374 298 369 301 c 0
 362 305 355 302 349 293 c 1
 345 285 339 281 335 283 c 0
 332 285 316 270 312 259 c 0
 309 253 306 251 298 251 c 0
 291 251 288 247 287 238 c 0
 287 234 287 231 288 231 c 0
 289 231 291 227 294 222 c 0
 299 212 303 209 307 213 c 0
 310 215 310 220 306 226 c 0
 302 233 303 235 308 243 c 0
 317 256 329 257 329 244 c 0
 329 241 330 235 333 231 c 0
 340 217 339 203 330 203 c 0
 312 203 281 177 291 169 c 0
 295 165 296 166 303 173 c 0
 309 179 309 179 318 179 c 0
 327 179 327 179 331 184 c 0
 334 188 337 190 342 191 c 0
 347 193 352 196 359 201 c 1
 364 206 371 212 375 215 c 0
 379 218 384 224 388 228 c 1
 392 234 396 237 402 240 c 0
 408 243 411 246 417 253 c 0
 423 261 427 264 436 269 c 0
 445 274 447 275 450 282 c 0
 453 287 455 289 459 291 c 0
 466 294 471 298 475 305 c 0
 477 308 481 312 485 315 c 0
 489 317 494 322 496 325 c 0
 500 329 502 330 508 331 c 0
 516 332 522 338 524 346 c 0
 525 352 528 354 536 354 c 0
 543 354 548 358 552 368 c 0
 557 378 567 385 576 385 c 0
 577 385 580 388 582 391 c 0
 585 394 589 397 591 399 c 0
 593 400 598 403 602 407 c 0
 605 410 614 416 620 420 c 0
 630 426 633 428 636 434 c 0
 638 438 641 442 643 445 c 0
 644 447 646 450 647 452 c 0
 648 454 651 458 655 462 c 0
 658 465 662 470 664 473 c 0
 667 479 671 482 678 482 c 0
 690 482 703 489 704 496 c 0
 704 498 708 501 715 505 c 0
 729 512 732 515 736 526 c 0
 743 544 742 543 738 556 c 0
 736 564 734 573 734 579 c 0
 733 596 729 600 718 596 c 0
 711 593 711 593 708 596 c 0
 702 601 699 600 694 592 c 0
 689 584 687 584 680 589 c 0
 674 593 671 593 662 589 c 0
 651 584 645 584 645 589 c 1
 646 592 645 593 640 595 c 0
 635 598 634 598 623 590 c 0
 620 588 615 586 613 586 c 0
 608 585 608 585 611 587 c 0
 615 589 615 591 611 595 c 0
 609 597 607 600 607 601 c 0
 607 605 603 608 597 608 c 0
 591 608 590 604 595 602 c 0
 605 597 591 586 582 589 c 0
 580 590 575 593 571 597 c 0
 562 605 561 605 557 599 c 1
 551 593 539 593 539 599 c 0
 539 607 497 614 482 609 c 0
 478 608 472 608 433 608 c 0
 415 608 403 604 410 599 c 0
 415 596 402 591 396 593 c 0
 393 595 393 596 394 600 c 0
 395 610 384 614 375 607 c 0
 370 603 370 603 367 606 c 0
 363 610 338 611 310 609 c 0
 301 608 297 607 292 604 c 0
417 297 m 0
 425 292 425 285 415 281 c 0
 412 280 408 278 406 278 c 0
 400 275 395 278 396 283 c 0
 397 287 396 288 394 291 c 0
 391 294 391 295 392 299 c 0
 394 307 403 308 409 302 c 0
 410 301 414 298 417 297 c 0
182 605 m 0
 173 605 168 602 170 596 c 0
 170 594 171 590 171 588 c 0
 173 577 162 573 155 582 c 0
 152 587 152 587 155 591 c 0
 157 595 156 600 152 600 c 1
 149 601 148 595 150 593 c 0
 152 590 144 587 138 589 c 0
 129 591 129 582 137 572 c 0
 139 569 141 566 141 565 c 0
 141 561 137 544 135 543 c 0
 128 535 138 531 164 532 c 1
 194 532 l 1
 203 531 205 533 200 540 c 0
 197 545 194 554 195 556 c 0
 196 558 195 559 191 561 c 0
 184 564 182 563 175 557 c 0
 169 551 165 550 160 554 c 0
 152 560 164 570 176 568 c 0
 179 567 180 568 184 572 c 1
 188 579 190 580 196 573 c 0
 199 571 202 568 203 568 c 2
 203 568 204 567 204 564 c 0
 204 561 205 560 209 557 c 0
 214 554 218 546 218 540 c 0
 218 539 219 537 220 537 c 0
 222 536 227 534 233 532 c 0
 254 523 275 545 264 565 c 0
 261 571 261 574 266 580 c 0
 267 582 267 583 264 586 c 0
 260 590 260 591 260 596 c 0
 262 606 256 609 248 603 c 0
 239 596 235 596 229 603 c 1
 225 606 198 609 192 606 c 0
 191 606 186 605 182 605 c 0
68 594 m 0
 46 583 63 528 88 528 c 0
 117 527 126 532 110 542 c 1
 101 546 99 549 99 555 c 0
 99 558 98 559 94 561 c 0
 88 563 87 566 90 572 c 0
 93 577 93 581 88 582 c 0
 81 584 77 594 83 597 c 0
 89 600 88 606 81 606 c 0
 79 606 77 605 75 601 c 0
 73 599 70 595 68 594 c 0
257 222 m 0
 252 217 245 212 242 211 c 0
 235 207 228 200 228 197 c 0
 228 196 225 191 222 187 c 0
 218 181 216 177 216 174 c 0
 217 168 216 167 205 162 c 0
 199 159 195 156 191 150 c 0
 185 142 182 141 177 145 c 0
 171 149 163 145 163 138 c 0
 163 134 151 122 145 122 c 0
 143 122 144 129 146 130 c 0
 148 131 148 132 147 133 c 0
 146 134 145 134 143 133 c 0
 142 132 141 131 142 130 c 1
 142 130 140 128 138 127 c 0
 133 124 128 120 105 102 c 0
 86 88 77 80 72 73 c 0
 69 70 65 64 62 60 c 0
 54 50 55 31 63 21 c 0
 69 15 69 16 66 3 c 0
 65 -3 69 -6 80 -6 c 0
 86 -6 91 -6 93 -8 c 1
 98 -10 105 -10 107 -8 c 0
 108 -6 113 -7 119 -9 c 0
 126 -12 150 -13 158 -11 c 0
 164 -10 166 -10 173 -12 c 0
 181 -14 182 -14 189 -12 c 0
 193 -11 201 -10 206 -9 c 0
 256 -5 263 -5 273 -8 c 0
 288 -14 309 -14 319 -9 c 0
 329 -3 332 -3 347 -8 c 0
 359 -13 362 -13 366 -8 c 0
 370 -3 377 13 378 18 c 0
 380 31 389 33 398 24 c 0
 405 16 404 13 392 2 c 0
 384 -5 382 -10 388 -13 c 0
 392 -16 471 -13 487 -9 c 0
 498 -7 499 -7 505 -9 c 0
 521 -14 531 -7 526 7 c 0
 525 10 525 12 526 14 c 0
 531 22 531 30 525 34 c 0
 520 38 520 38 521 45 c 0
 522 52 522 52 517 52 c 0
 511 52 507 54 502 59 c 0
 497 65 494 64 492 56 c 0
 490 52 488 48 487 47 c 0
 483 43 483 42 489 36 c 0
 492 33 494 30 495 27 c 0
 495 24 496 19 498 16 c 1
 500 9 498 4 493 4 c 0
 489 4 486 8 485 13 c 0
 484 20 480 20 474 13 c 0
 464 3 461 11 468 29 c 0
 472 39 472 41 466 45 c 0
 463 46 460 48 458 49 c 1
 456 52 449 55 440 57 c 0
 438 57 437 58 437 60 c 0
 437 62 436 62 433 63 c 1
 428 63 427 62 430 59 c 0
 432 57 428 54 422 52 c 0
 417 51 412 46 413 41 c 0
 414 32 401 30 392 38 c 0
 385 44 385 47 391 52 c 0
 398 58 399 68 392 71 c 0
 389 73 383 71 376 65 c 0
 373 62 371 62 365 63 c 0
 348 66 341 62 352 54 c 0
 356 51 358 49 359 45 c 0
 364 25 364 26 362 21 c 0
 356 10 331 21 331 35 c 0
 331 38 330 41 327 44 c 0
 324 47 323 49 323 56 c 0
 322 70 314 73 305 64 c 0
 300 58 299 54 304 50 c 0
 325 33 325 27 308 19 c 0
 293 11 286 11 277 16 c 1
 269 22 268 26 275 32 c 0
 290 45 292 63 279 61 c 0
 275 61 272 61 270 62 c 0
 265 65 264 65 265 60 c 0
 266 53 261 49 251 49 c 0
 241 50 239 47 246 42 c 0
 250 40 251 38 252 33 c 0
 253 29 255 26 257 24 c 0
 265 16 261 4 250 4 c 0
 245 4 244 6 242 11 c 0
 240 21 234 28 228 28 c 0
 225 28 224 26 223 17 c 0
 222 2 206 19 202 39 c 0
 201 44 198 45 193 43 c 0
 186 41 182 45 182 54 c 0
 182 63 173 61 167 51 c 0
 161 42 155 42 151 52 c 0
 150 55 147 59 145 61 c 0
 143 64 142 66 143 72 c 0
 144 79 144 79 138 84 c 0
 131 90 131 94 138 103 c 0
 144 111 154 108 157 97 c 0
 159 89 174 93 172 101 c 0
 172 105 173 108 178 118 c 0
 187 134 191 135 198 127 c 0
 203 122 208 122 212 128 c 0
 221 142 238 150 238 141 c 0
 238 137 253 126 256 128 c 0
 261 130 261 133 252 142 c 0
 242 152 239 169 245 179 c 0
 247 182 247 184 247 189 c 0
 246 197 259 206 269 204 c 0
 275 203 278 205 276 209 c 0
 274 213 275 218 282 227 c 0
 287 234 280 237 270 232 c 0
 268 230 262 226 257 222 c 0
610 62 m 0
 609 60 607 59 602 58 c 0
 592 56 583 42 584 32 c 0
 585 26 584 24 580 17 c 0
 572 1 574 -2 593 -4 c 0
 602 -5 614 -7 619 -8 c 0
 644 -16 659 -12 660 1 c 0
 660 12 666 17 674 12 c 0
 676 10 676 10 675 6 c 0
 668 -8 676 -13 708 -11 c 0
 713 -11 721 -12 725 -12 c 0
 736 -14 746 -12 752 -7 c 1
 756 -2 756 0 753 22 c 0
 753 28 753 30 757 37 c 0
 766 55 750 72 730 65 c 0
 727 64 723 62 722 62 c 0
 720 62 716 63 712 64 c 0
 705 67 705 67 701 65 c 0
 692 58 668 54 663 58 c 0
 659 62 655 61 635 53 c 0
 624 49 622 55 632 59 c 0
 635 61 637 62 637 65 c 0
 637 75 630 77 619 70 c 0
 615 68 611 64 610 62 c 0
527 52 m 0
 531 52 534 46 532 42 c 0
 528 35 537 27 547 27 c 0
 548 27 551 25 553 23 c 0
 556 20 563 18 566 21 c 0
 568 22 568 30 565 35 c 1
 564 39 564 40 566 43 c 0
 577 58 571 67 552 65 c 0
 546 64 544 65 539 68 c 0
 531 72 530 72 526 69 c 0
 520 63 521 52 527 52 c 0
EndSplineSet
EndChar

